{"glyphs":{"0":{"ha":772,"x_min":8,"x_max":724,"o":"m 625 460 q 621 529 625 492 q 612 599 617 565 q 594 663 605 632 q 568 720 584 693 q 365 837 511 833 q 242 805 290 836 l 243 805 q 199 768 218 789 q 164 720 179 747 q 138 663 149 693 q 123 598 128 633 q 108 460 108 532 q 123 326 108 394 q 139 261 128 292 q 165 202 149 231 q 242 118 193 148 q 298 92 267 100 q 366 84 328 84 q 434 92 404 84 q 489 118 465 100 q 534 154 515 134 q 568 202 553 175 q 595 261 585 230 q 612 326 605 292 q 621 393 617 359 q 625 460 625 427 m 723 460 q 705 292 724 371 q 650 146 687 214 q 538 28 610 70 q 366 -16 467 -13 q 195 28 267 -13 q 83 145 124 70 q 27 293 46 214 q 9 460 8 372 q 27 628 8 549 q 83 777 46 707 q 195 892 124 852 q 366 935 267 933 q 538 892 467 933 q 650 777 609 852 q 705 628 687 708 q 723 460 724 549 z "},"1":{"ha":772,"x_min":122,"x_max":448,"o":"m 349 762 q 328 745 340 753 q 304 730 316 736 q 237 692 272 709 q 170 666 202 675 q 136 671 150 661 q 122 702 122 682 l 122 727 q 130 747 122 736 q 146 762 137 758 q 209 788 179 773 q 262 819 239 804 q 309 859 284 837 q 355 907 334 882 q 369 916 359 911 q 384 921 378 921 l 412 921 q 437 910 427 921 q 448 884 448 899 l 448 37 q 437 11 448 22 q 412 0 427 0 l 386 0 q 360 11 370 0 q 349 37 349 22 l 349 762 z "},"2":{"ha":772,"x_min":52,"x_max":696,"o":"m 659 99 q 686 89 675 99 q 696 62 696 78 l 696 37 q 686 11 696 22 q 659 0 675 0 l 89 0 q 63 11 73 0 q 52 38 52 22 q 60 99 53 71 q 79 153 66 127 q 109 198 92 176 q 147 242 125 220 q 192 283 169 264 q 239 319 215 302 q 287 353 262 336 q 334 386 311 370 q 426 453 384 418 q 507 524 469 487 q 556 593 540 556 q 574 671 573 629 q 561 742 574 711 q 523 793 547 773 q 376 837 465 837 q 280 821 321 836 q 216 776 239 805 q 165 606 165 711 q 155 579 165 590 q 129 569 144 569 l 103 569 q 77 579 87 569 q 66 606 66 590 q 376 935 68 931 q 490 919 438 935 q 584 871 541 903 q 673 669 672 802 q 649 559 672 612 q 585 463 625 507 q 499 384 545 422 q 403 313 454 345 l 404 313 q 229 183 306 248 l 229 183 q 162 99 182 143 l 659 99 z "},"3":{"ha":772,"x_min":32,"x_max":701,"o":"m 94 584 q 67 594 78 584 q 57 621 57 605 q 80 756 57 698 q 146 856 102 815 q 249 915 189 895 q 382 935 309 935 q 585 883 497 935 q 658 805 633 852 q 684 690 683 758 q 668 596 684 637 q 622 526 652 555 q 603 508 613 517 q 582 493 592 499 q 604 478 593 486 q 627 461 615 471 q 682 382 663 429 q 701 271 701 334 q 601 59 700 135 q 499 4 554 22 q 378 -16 444 -15 q 234 8 298 -15 q 122 75 169 32 q 56 175 81 116 q 32 304 32 233 l 32 313 q 32 318 32 316 q 33 323 33 321 q 43 350 33 339 q 70 360 54 360 l 95 360 q 122 349 111 360 q 132 320 133 337 l 132 301 q 191 146 132 199 q 378 84 257 84 q 537 134 473 84 q 585 192 569 158 q 602 271 600 227 q 548 398 601 359 q 395 444 492 440 l 335 444 q 308 454 319 444 q 298 480 298 465 l 298 505 q 308 531 298 520 q 335 543 319 543 l 395 543 q 531 578 473 542 q 585 690 581 608 q 528 802 581 770 q 461 827 498 818 q 382 837 424 837 q 155 620 163 837 q 144 594 155 604 q 119 584 134 584 l 94 584 z "},"4":{"ha":772,"x_min":25,"x_max":707,"o":"m 519 827 q 507 809 513 818 q 495 793 501 801 q 481 773 488 783 q 467 752 474 762 q 459 749 463 748 q 454 756 454 751 l 454 848 q 458 855 454 854 q 466 853 463 857 l 492 827 l 511 837 l 519 827 m 454 735 q 357 598 404 665 q 262 463 310 531 q 212 393 236 427 q 159 319 188 359 l 454 319 l 454 735 m 62 220 q 36 231 47 220 q 25 257 25 241 l 25 300 l 455 905 q 469 916 459 911 q 486 921 479 921 l 517 921 q 543 910 532 921 q 553 884 553 899 l 553 319 l 669 319 q 696 308 686 319 q 707 282 707 298 l 707 257 q 696 231 707 241 q 669 220 686 220 l 553 220 l 553 37 q 543 11 553 22 q 517 0 532 0 l 491 0 q 465 11 475 0 q 454 37 454 22 l 454 220 l 62 220 z "},"5":{"ha":772,"x_min":28,"x_max":689,"o":"m 233 822 q 221 768 227 795 q 210 715 215 741 q 203 686 206 699 q 197 660 200 673 q 192 633 195 646 q 186 604 189 620 q 266 636 222 625 q 359 648 309 648 q 493 625 433 648 q 597 555 553 602 q 689 319 688 463 q 598 79 688 169 q 494 9 553 33 q 359 -16 435 -15 q 226 8 287 -15 q 120 72 165 31 q 51 173 75 115 q 28 308 28 232 q 40 334 28 323 q 66 345 51 345 l 91 345 q 117 335 106 345 q 127 308 127 324 q 143 214 127 256 q 186 143 159 172 q 262 101 217 116 q 358 84 307 85 q 449 105 408 87 q 520 153 490 123 q 569 225 551 184 q 590 319 587 267 q 573 411 588 368 q 528 485 557 454 q 359 549 467 549 q 240 521 291 549 q 155 437 189 494 q 140 425 151 431 q 123 419 130 419 l 92 419 q 63 432 74 419 q 56 464 52 446 l 146 891 q 159 912 149 903 q 182 921 170 921 l 617 921 q 643 910 632 921 q 654 884 654 899 l 654 859 q 643 832 654 843 q 617 822 632 822 l 233 822 z "},"6":{"ha":772,"x_min":31,"x_max":701,"o":"m 602 315 q 535 479 601 412 q 460 529 501 513 q 371 545 420 545 q 208 479 274 544 q 140 315 140 413 q 208 151 140 217 q 371 84 272 85 q 535 151 470 85 q 602 315 600 218 m 624 648 q 601 656 611 648 q 587 677 590 665 q 573 722 582 701 q 555 760 565 744 l 556 759 q 533 785 546 773 q 507 804 520 797 q 446 829 477 820 q 385 837 414 838 q 314 827 346 836 q 256 798 282 817 q 211 751 231 777 q 177 694 191 725 q 154 623 163 662 q 139 549 144 585 l 139 548 q 154 562 146 555 q 170 576 162 568 q 264 627 214 610 q 371 644 313 644 q 492 622 435 644 q 597 554 548 600 l 597 555 q 701 315 699 467 q 602 80 699 170 q 498 9 555 33 q 370 -16 440 -15 q 279 -3 321 -15 q 202 33 237 9 q 94 136 128 81 q 60 204 73 169 q 43 279 48 240 l 43 279 q 34 355 37 316 q 31 437 31 394 q 49 607 31 524 q 102 764 67 690 q 214 890 142 846 q 386 935 285 933 q 500 917 450 935 q 591 864 551 899 l 591 865 q 685 690 667 798 q 677 660 688 672 q 648 648 666 648 l 624 648 z "},"7":{"ha":772,"x_min":59,"x_max":673,"o":"m 96 822 q 70 832 80 822 q 59 859 59 843 l 59 884 q 70 910 59 899 q 96 921 80 921 l 636 921 q 662 910 652 921 q 673 884 673 899 l 673 850 q 669 836 673 844 q 663 823 666 827 q 392 467 492 659 q 291 37 292 279 q 280 11 291 22 q 254 0 269 0 l 229 0 q 204 12 214 0 q 192 38 193 24 q 220 255 196 149 q 286 461 244 361 q 386 652 328 561 q 518 822 445 743 l 96 822 z "},"8":{"ha":772,"x_min":22,"x_max":710,"o":"m 543 130 q 593 188 576 153 q 611 273 610 223 q 593 357 610 322 q 545 410 576 391 q 463 440 508 430 q 366 450 417 451 q 270 440 315 451 q 189 410 226 430 q 139 356 157 391 q 120 273 121 321 q 189 130 121 174 q 269 95 225 107 q 366 84 313 83 q 464 95 420 83 q 543 130 507 107 l 543 130 m 608 537 q 604 535 606 535 q 588 520 596 527 q 572 508 581 514 q 710 273 706 446 q 682 144 709 199 q 604 54 654 90 q 495 2 554 19 q 366 -16 435 -16 q 238 3 298 -16 q 130 54 178 21 q 51 145 79 89 q 22 273 22 201 q 159 508 24 446 q 127 537 141 520 q 80 603 96 566 q 63 684 64 640 q 159 878 64 819 l 158 878 q 366 935 242 935 q 576 878 492 935 q 667 684 666 817 q 608 537 666 595 m 220 804 q 219 803 220 803 q 218 802 218 803 l 215 814 q 216 814 216 814 q 217 815 216 815 q 224 810 222 815 q 220 804 225 806 m 569 686 q 555 757 569 727 q 536 784 546 772 q 515 802 526 795 l 515 802 q 446 828 483 819 q 366 837 408 837 q 287 828 323 837 q 218 802 251 819 l 218 802 q 197 783 206 794 q 180 757 188 771 q 163 684 163 727 q 177 632 163 650 q 222 587 195 602 q 291 560 255 570 q 366 550 327 550 q 511 587 445 550 q 553 628 539 603 q 569 686 568 652 z "},"9":{"ha":772,"x_min":31,"x_max":703,"o":"m 108 273 q 130 266 119 273 q 144 246 140 258 q 228 118 170 150 q 258 103 242 109 q 288 92 273 96 l 288 92 q 318 86 303 88 q 346 84 332 84 q 419 95 387 85 q 477 125 452 104 q 523 171 503 144 q 556 231 542 198 q 580 299 570 262 q 595 375 590 336 q 565 347 582 361 q 472 294 523 312 q 361 277 422 277 q 136 368 233 277 l 136 368 q 31 606 35 456 q 56 738 32 678 q 131 842 81 797 q 361 935 227 935 q 532 888 458 935 q 592 840 566 867 q 638 785 619 813 q 672 718 658 754 q 692 643 686 682 q 700 565 698 604 q 702 484 702 526 q 631 158 703 307 q 522 35 589 84 q 441 -2 485 11 q 345 -16 397 -15 q 141 56 222 -15 l 141 56 q 79 134 102 90 q 47 231 56 178 q 55 260 45 248 q 83 273 66 273 l 108 273 m 591 606 q 525 770 590 704 q 361 837 460 836 q 272 820 313 836 q 198 769 232 804 q 131 606 132 706 q 198 443 132 507 q 361 375 262 376 q 524 443 459 376 q 575 517 559 477 q 591 606 591 558 z "},"\u0001":{"ha":0,"x_min":0,"x_max":0,"o":""},"\u0002":{"ha":386,"x_min":0,"x_max":0,"o":""},"\u0005":{"ha":180,"x_min":-107,"x_max":277,"o":"m -43 983 q -19 975 -29 983 q -7 954 -9 966 q 24 898 1 918 q 82 876 45 876 q 150 896 123 876 q 176 951 174 913 q 190 974 178 964 q 214 983 201 983 l 239 983 q 267 972 256 983 q 275 943 277 960 q 256 873 272 904 q 212 821 239 843 q 153 789 186 801 q 82 777 119 777 q -45 825 7 777 q -104 941 -93 870 q -96 971 -107 959 q -68 983 -85 983 l -43 983 z "},"\u0007":{"ha":180,"x_min":-103,"x_max":275,"o":"m -41 983 q -25 979 -35 983 q -12 970 -15 975 l 87 852 q 110 880 98 866 q 132 908 121 894 q 157 939 144 923 q 182 970 171 954 q 196 979 187 974 q 211 983 205 983 l 237 983 q 264 973 254 983 q 275 948 275 962 q 265 924 275 936 l 124 751 q 110 742 119 747 q 96 736 100 736 l 77 736 q 62 741 71 736 q 48 750 53 746 q -23 837 13 793 q -94 924 -59 881 q -103 947 -103 935 q -93 972 -103 962 q -65 983 -83 983 l -41 983 z "},"\u0011":{"ha":180,"x_min":36,"x_max":135,"o":"m 73 0 q 47 11 58 0 q 36 37 36 22 l 36 677 q 47 703 36 692 q 73 714 58 714 l 98 714 q 124 703 114 714 q 135 677 135 692 l 135 37 q 124 11 135 22 q 98 0 114 0 l 73 0 z "},"\u0013":{"ha":180,"x_min":36,"x_max":135,"o":"m 98 909 q 124 899 114 909 q 135 872 135 888 l 135 771 q 124 745 135 755 q 98 734 114 734 l 73 734 q 47 745 58 734 q 36 771 36 755 l 36 872 q 47 899 36 888 q 73 909 58 909 l 98 909 z "},"\u0016":{"ha":180,"x_min":-86,"x_max":377,"o":"m 153 983 q 180 972 170 983 q 191 947 191 962 q 178 920 191 932 l -3 741 q -16 734 -7 737 q -29 731 -25 731 l -48 731 q -76 742 -66 731 q -86 767 -86 753 q -75 793 -86 780 l 90 972 q 102 980 93 977 q 116 983 111 983 l 153 983 m 340 983 q 367 972 357 983 q 377 947 377 962 q 365 920 377 932 q 274 831 320 877 q 183 741 228 785 q 170 734 179 737 q 157 731 161 731 l 138 731 q 111 742 121 731 q 100 767 100 753 q 111 793 100 780 l 275 972 q 289 980 279 977 q 303 983 298 983 l 340 983 z "},"\u001a":{"ha":180,"x_min":-61,"x_max":232,"o":"m 232 875 q 189 772 231 817 q 85 730 147 730 q -17 772 24 730 q -61 875 -60 816 q -57 906 -61 890 q -47 935 -53 922 q -34 958 -42 946 q -16 979 -26 970 q 85 1022 25 1021 q 141 1011 116 1021 q 189 979 167 1001 q 232 876 231 936 l 232 875 m 133 876 q 121 911 133 897 q 85 924 107 924 q 54 911 64 924 q 38 875 39 898 q 54 842 39 856 q 85 829 66 829 q 120 842 105 829 q 133 876 133 856 z "},"\u001e":{"ha":180,"x_min":-52,"x_max":233,"o":"m 142 74 q 169 62 159 74 q 179 37 179 51 q 164 7 179 20 q 47 -119 45 -84 q 53 -129 47 -124 q 63 -134 56 -133 q 79 -136 69 -136 q 125 -127 107 -136 l 124 -127 q 137 -120 131 -124 q 146 -111 142 -115 q 170 -99 156 -101 q 196 -105 184 -98 q 206 -113 201 -109 q 216 -120 211 -117 q 233 -151 233 -132 q 223 -174 233 -161 q 190 -203 209 -191 q 152 -222 171 -214 q 115 -232 134 -229 q 78 -235 96 -235 q -17 -198 18 -235 q -52 -121 -52 -165 q -36 -58 -52 -91 q -20 -33 -29 -47 q -1 -8 -11 -19 q 42 35 18 14 q 94 74 66 56 l 142 74 z "}," ":{"ha":386,"x_min":0,"x_max":0,"o":""},"!":{"ha":257,"x_min":73,"x_max":172,"o":"m 110 0 q 84 11 94 0 q 73 37 73 22 l 73 159 q 84 186 73 175 q 110 197 94 197 l 135 197 q 161 186 151 197 q 172 159 172 175 l 172 37 q 161 11 172 22 q 135 0 151 0 l 110 0 m 110 227 q 84 238 94 227 q 73 264 73 248 l 73 926 q 84 952 73 941 q 110 963 94 963 l 135 963 q 161 952 151 963 q 172 926 172 941 l 172 264 q 161 238 172 248 q 135 227 151 227 l 110 227 z "},"\"":{"ha":386,"x_min":64,"x_max":302,"o":"m 163 646 q 152 619 163 630 q 125 608 141 608 l 100 608 q 74 619 85 608 q 64 646 64 630 l 64 926 q 74 952 64 941 q 100 963 85 963 l 125 963 q 152 952 141 963 q 163 926 163 941 l 163 646 m 302 646 q 292 619 302 630 q 265 608 281 608 l 240 608 q 214 619 224 608 q 203 646 203 630 l 203 926 q 214 952 203 941 q 240 963 224 963 l 265 963 q 292 952 281 963 q 302 926 302 941 l 302 646 z "},"#":{"ha":772,"x_min":26,"x_max":705,"o":"m 325 921 q 353 908 342 921 q 362 878 364 896 l 328 629 l 465 629 q 471 670 469 650 q 477 711 473 691 q 483 754 479 732 q 489 800 486 777 q 495 846 492 823 q 500 888 498 868 q 514 911 503 902 q 538 921 525 921 l 562 921 q 590 908 580 921 q 600 878 601 896 q 583 754 591 815 q 566 629 574 692 l 668 629 q 695 618 684 629 q 705 591 705 608 l 705 567 q 695 541 705 551 q 668 530 684 530 l 551 530 q 542 463 546 494 q 532 394 537 432 q 531 389 531 389 q 530 384 530 389 l 633 384 q 660 373 650 384 q 671 347 671 363 l 671 322 q 660 296 671 307 q 633 285 650 285 l 516 285 q 498 159 507 221 q 481 32 490 96 q 468 9 479 18 q 444 0 457 0 l 419 0 q 391 13 401 0 q 382 42 380 25 q 398 163 390 103 q 415 285 406 223 l 277 285 q 269 226 273 256 q 260 166 264 195 q 251 99 256 134 q 242 32 247 65 q 229 9 240 18 q 205 0 218 0 l 180 0 q 152 13 163 0 q 143 42 142 25 q 159 163 151 103 q 176 285 168 223 l 63 285 q 37 296 47 285 q 26 322 26 307 l 26 347 q 37 373 26 363 q 63 384 47 384 l 193 384 q 201 450 197 419 q 211 519 205 481 q 212 525 211 522 q 213 530 212 528 l 98 530 q 72 541 82 530 q 61 567 61 551 l 61 591 q 72 618 61 608 q 98 629 82 629 l 228 629 q 237 694 233 662 q 245 760 241 726 q 255 824 250 792 q 263 888 259 856 q 276 911 265 902 q 300 921 287 921 l 325 921 m 292 384 l 430 384 q 439 450 435 419 q 449 519 444 481 q 450 525 449 522 q 451 530 450 528 l 313 530 l 292 384 z "},"$":{"ha":772,"x_min":-11,"x_max":725,"o":"m 314 551 q 317 556 314 554 q 323 556 319 557 q 353 549 336 553 q 356 548 355 549 q 359 547 358 548 q 363 542 363 545 q 361 536 364 538 l 323 506 q 316 505 319 503 q 312 511 312 507 l 314 551 m 260 573 q 286 565 275 568 q 312 558 296 562 l 312 884 q 247 870 279 880 q 186 846 215 861 q 134 797 155 829 q 115 718 115 768 q 132 650 115 675 q 153 625 140 636 q 181 604 165 614 l 181 605 q 217 588 197 595 q 260 573 237 580 m 52 369 q 78 358 66 369 q 89 332 89 347 q 159 142 90 203 l 159 142 q 228 103 189 119 q 312 81 267 87 l 312 456 q 308 457 311 456 q 304 458 305 457 l 304 458 q 269 466 287 462 q 234 475 251 471 q 180 494 205 484 q 131 517 154 505 q 50 594 79 546 l 50 593 q 16 718 16 643 q 50 844 18 789 q 132 931 82 899 q 218 967 172 954 q 312 983 264 981 l 312 1000 q 323 1027 312 1016 q 349 1038 334 1038 l 374 1038 q 401 1027 390 1038 q 412 1000 412 1016 l 412 982 q 517 960 468 977 q 604 912 566 943 q 707 679 699 838 q 697 652 708 663 q 670 640 687 640 l 646 640 q 620 651 631 640 q 608 676 609 662 q 543 834 604 787 q 484 867 516 854 q 412 883 452 880 l 412 534 q 459 523 435 529 q 505 512 483 517 q 509 511 507 511 q 513 510 511 511 q 571 489 545 500 q 618 465 597 477 q 698 385 667 436 q 719 326 712 359 q 725 254 725 294 q 693 129 724 182 q 608 41 663 75 q 515 -1 565 15 q 412 -20 465 -16 l 412 -94 q 401 -120 412 -109 q 374 -130 390 -130 l 349 -130 q 323 -120 334 -130 q 312 -94 312 -109 l 312 -18 q 191 9 245 -12 q 92 69 137 31 l 93 69 q -11 332 -10 157 q 0 358 -11 348 q 26 369 11 369 l 52 369 m 412 80 q 485 95 450 83 q 553 124 521 106 q 627 256 623 165 q 608 339 627 311 l 608 338 q 583 366 597 353 q 551 388 569 378 q 467 420 513 408 q 460 423 463 422 q 454 424 457 424 q 443 427 446 426 q 436 429 439 429 q 428 431 433 430 q 412 435 422 433 l 412 80 z "},"%":{"ha":951,"x_min":14,"x_max":888,"o":"m 531 233 q 539 173 531 200 q 564 125 547 146 q 602 95 579 104 q 657 84 625 85 q 755 125 725 85 q 789 233 789 168 q 757 348 789 307 q 716 375 741 366 q 659 386 691 385 q 602 376 625 385 q 564 347 578 367 q 531 233 531 306 m 14 683 q 73 863 14 798 l 72 862 q 239 935 133 935 q 414 862 353 935 q 456 783 441 827 q 470 684 470 739 q 455 591 470 635 q 413 512 440 547 q 338 457 382 477 q 240 436 294 437 q 67 515 125 437 q 14 683 14 585 m 113 683 q 146 576 113 618 q 241 535 177 535 q 337 576 306 535 q 371 683 371 618 q 339 798 371 757 l 339 798 q 298 825 323 815 q 241 837 273 836 q 144 798 172 836 q 113 683 113 755 m 431 233 q 447 333 431 287 q 490 412 463 379 q 564 465 521 446 q 657 485 606 484 q 758 466 715 484 q 831 411 802 447 q 888 234 888 342 q 873 141 888 184 q 831 62 858 97 q 756 6 801 26 q 657 -16 712 -15 q 558 7 602 -14 q 486 64 515 28 q 446 142 460 99 q 431 233 431 185 m 696 946 l 695 946 q 709 957 699 951 q 726 963 719 963 l 755 963 q 775 958 766 963 q 789 945 784 953 q 793 926 793 937 q 786 906 793 916 l 193 -25 l 194 -25 q 180 -37 190 -31 q 163 -43 170 -43 l 134 -43 q 114 -37 123 -43 q 101 -24 106 -32 q 97 -5 96 -16 q 102 14 97 5 l 696 946 z "},"&":{"ha":797,"x_min":40,"x_max":772,"o":"m 338 586 q 347 585 343 590 q 351 580 347 586 q 360 570 356 574 l 359 570 q 362 567 361 569 q 365 564 363 565 q 366 556 368 560 q 359 553 364 552 l 319 558 q 313 564 314 559 q 317 571 313 568 l 328 578 l 327 578 l 338 586 m 473 707 q 473 709 473 708 q 474 710 473 709 q 482 713 477 714 q 486 707 486 712 l 485 705 l 473 707 m 245 762 q 270 694 245 737 q 345 589 295 652 q 360 599 352 593 q 374 611 368 605 q 403 633 389 621 q 431 657 417 645 q 453 682 442 669 q 473 707 465 696 l 473 708 q 485 760 485 733 q 452 837 484 808 l 453 836 q 366 864 419 864 q 279 836 315 864 q 245 762 246 811 m 322 459 q 262 419 292 441 q 204 373 233 398 l 204 374 q 157 311 176 347 q 139 236 139 277 q 153 169 140 197 q 195 121 167 141 q 330 78 252 78 q 459 117 408 78 q 498 153 480 133 q 531 197 517 173 l 322 459 m 265 532 q 266 531 266 531 l 265 532 m 762 60 q 769 47 766 54 q 772 35 772 41 q 762 11 772 22 q 734 0 751 0 l 701 0 q 685 5 694 0 q 673 14 676 9 l 594 113 q 557 71 577 90 q 513 35 537 52 q 431 -7 476 6 q 330 -21 385 -20 q 227 -3 276 -20 q 136 46 178 14 q 66 128 91 80 q 40 236 41 176 q 66 348 41 296 q 133 440 90 399 q 173 476 151 458 q 214 507 195 494 l 214 507 q 229 516 221 512 q 244 526 237 521 q 253 532 249 530 q 262 537 258 534 q 258 544 260 541 q 253 551 256 547 l 247 558 q 241 565 244 562 q 236 572 239 569 q 219 595 228 584 q 202 618 211 606 q 182 652 191 635 q 165 686 173 669 q 152 723 156 703 q 147 760 147 743 q 166 853 148 814 q 220 918 184 892 q 366 963 286 963 q 518 912 457 963 q 584 760 583 856 q 579 710 584 733 q 563 665 574 686 q 537 627 551 645 q 505 591 523 609 q 456 551 481 572 q 406 513 430 531 q 439 472 424 492 q 469 434 454 452 q 518 371 490 407 q 574 299 545 334 l 574 301 l 574 300 q 579 381 580 338 q 589 408 578 397 q 616 418 600 418 l 641 418 q 667 408 656 418 q 678 381 678 397 q 671 289 679 331 q 646 207 663 246 l 762 60 z "},"'":{"ha":232,"x_min":62,"x_max":159,"o":"m 62 926 q 72 952 62 941 q 98 963 83 963 l 123 963 q 149 952 138 963 q 159 926 159 941 l 159 646 q 149 619 159 630 q 123 608 138 608 l 98 608 q 72 619 83 608 q 62 646 62 630 l 62 926 z "},"(":{"ha":309,"x_min":57,"x_max":303,"o":"m 264 983 q 283 979 275 983 q 297 966 292 974 q 302 949 302 958 q 296 929 302 939 q 191 667 226 802 q 156 388 157 533 q 298 -165 156 95 q 303 -185 303 -175 q 298 -203 303 -195 q 285 -216 294 -211 q 265 -220 276 -220 l 240 -220 q 221 -214 232 -220 q 208 -200 211 -208 l 208 -201 q 57 388 57 73 q 206 965 58 693 q 221 978 210 972 q 239 983 231 983 l 264 983 z "},")":{"ha":309,"x_min":-11,"x_max":235,"o":"m 28 -220 q 8 -216 17 -220 q -5 -203 0 -211 q -9 -185 -9 -195 q -4 -165 -9 -175 q 100 98 66 -37 q 136 375 135 232 q 100 661 135 524 q -5 929 66 799 q -11 949 -11 939 q -5 966 -10 958 q 8 979 -1 974 q 28 983 16 983 l 52 983 q 71 978 60 983 q 85 964 81 972 l 85 965 q 235 375 235 690 q 86 -201 233 68 l 86 -200 q 72 -214 82 -208 q 54 -220 62 -220 l 28 -220 z "},"*":{"ha":489,"x_min":13,"x_max":449,"o":"m 241 963 q 268 952 257 963 q 279 926 279 941 l 279 803 q 306 811 292 806 q 332 820 319 815 q 363 831 348 825 q 395 841 379 836 l 395 840 q 426 838 412 846 q 442 810 439 829 q 445 800 444 805 q 448 789 446 794 q 442 763 449 775 q 422 747 435 751 l 310 709 q 343 665 328 685 q 376 623 358 646 q 379 619 377 621 q 382 614 381 616 q 389 592 389 603 q 386 576 389 584 q 374 562 382 568 q 364 555 369 559 q 353 548 359 551 q 326 542 341 540 q 302 555 311 544 l 228 652 q 210 630 218 641 q 193 609 202 619 q 173 584 183 596 q 153 559 163 572 q 125 545 141 545 q 100 554 113 545 q 91 563 96 558 q 80 571 85 567 q 71 584 74 576 q 68 598 68 591 q 77 623 68 610 l 151 710 q 125 719 137 715 q 100 727 114 722 l 41 747 q 20 765 26 752 q 17 793 13 778 l 17 792 q 21 804 18 798 q 24 816 23 810 q 43 838 28 831 q 71 840 57 845 l 180 802 l 180 926 q 190 952 180 941 q 216 963 201 963 l 241 963 z "},"+":{"ha":833,"x_min":43,"x_max":745,"o":"m 345 667 q 356 693 345 682 q 382 703 367 703 l 408 703 q 434 693 423 703 q 444 667 444 682 l 444 402 l 709 402 q 735 391 724 402 q 745 365 745 380 l 745 339 q 735 313 745 323 q 709 303 724 303 l 444 303 l 444 37 q 434 11 444 22 q 408 0 423 0 l 382 0 q 356 11 367 0 q 345 37 345 22 l 345 303 l 81 303 q 55 313 66 303 q 43 339 43 323 l 43 365 q 55 391 43 380 q 81 402 66 402 l 345 402 l 345 667 z "},",":{"ha":386,"x_min":102,"x_max":232,"o":"m 195 197 q 221 186 210 197 q 231 159 231 175 l 231 37 q 161 -142 232 -87 q 138 -150 150 -150 q 114 -139 125 -150 q 102 -111 102 -129 l 102 -87 q 106 -72 102 -81 q 115 -60 111 -63 l 114 -60 q 127 -33 123 -52 q 133 37 133 -9 l 133 159 q 143 186 133 175 q 170 197 154 197 l 195 197 z "},"-":{"ha":463,"x_min":73,"x_max":365,"o":"m 73 382 q 84 409 73 399 q 111 420 95 420 l 328 420 q 354 409 344 420 q 365 382 365 399 l 365 358 q 354 332 365 342 q 328 321 344 321 l 111 321 q 84 332 95 321 q 73 358 73 342 l 73 382 z "},".":{"ha":386,"x_min":134,"x_max":233,"o":"m 233 37 q 222 11 233 22 q 195 0 211 0 l 170 0 q 144 11 155 0 q 134 37 134 22 l 134 159 q 144 186 134 175 q 170 197 155 197 l 195 197 q 222 186 211 197 q 233 159 233 175 l 233 37 z "},"/":{"ha":463,"x_min":-34,"x_max":475,"o":"m 3 -21 q -15 -16 -7 -21 q -27 -4 -22 -12 q -33 12 -32 3 q -31 31 -34 21 q 173 496 68 259 q 376 962 277 734 q 390 977 380 970 q 410 983 400 983 l 435 983 q 465 967 456 983 q 469 932 475 951 q 266 467 370 704 q 62 1 161 229 q 48 -14 58 -7 q 28 -21 37 -21 l 3 -21 z "},":":{"ha":386,"x_min":134,"x_max":233,"o":"m 170 0 q 144 11 155 0 q 134 37 134 22 l 134 159 q 144 186 134 175 q 170 197 155 197 l 195 197 q 222 186 211 197 q 233 159 233 175 l 233 37 q 222 11 233 22 q 195 0 211 0 l 170 0 m 170 517 q 144 528 155 517 q 134 555 134 539 l 134 677 q 144 703 134 692 q 170 714 155 714 l 195 714 q 222 703 211 714 q 233 677 233 692 l 233 555 q 222 528 233 539 q 195 517 211 517 l 170 517 z "},";":{"ha":386,"x_min":102,"x_max":232,"o":"m 231 37 q 161 -142 232 -87 q 138 -150 150 -150 q 114 -139 125 -150 q 102 -111 102 -129 l 102 -87 q 106 -72 102 -81 q 115 -60 111 -63 q 127 -33 123 -50 q 133 37 133 -9 l 133 159 q 143 186 133 175 q 170 197 154 197 l 195 197 q 221 186 210 197 q 231 159 231 175 l 231 37 m 170 517 q 143 528 154 517 q 133 555 133 539 l 133 677 q 143 703 133 692 q 170 714 154 714 l 195 714 q 221 703 210 714 q 231 677 231 692 l 231 555 q 221 528 231 539 q 195 517 210 517 l 170 517 z "},"<":{"ha":833,"x_min":41,"x_max":749,"o":"m 62 304 q 48 318 55 307 q 41 338 41 329 l 41 368 q 48 386 41 375 q 62 401 54 396 l 695 710 q 715 714 705 715 q 732 709 724 714 q 744 696 739 705 q 749 677 749 688 l 749 651 q 742 632 749 642 q 727 618 735 622 q 456 485 590 551 q 185 353 323 420 q 456 220 321 286 q 727 87 591 153 q 742 72 735 83 q 749 54 749 62 l 749 27 q 744 8 749 16 q 732 -5 739 -1 q 715 -11 724 -10 q 695 -6 705 -11 l 62 304 z "},"=":{"ha":833,"x_min":43,"x_max":745,"o":"m 81 423 q 55 434 66 423 q 43 460 43 444 l 43 485 q 55 511 43 500 q 81 522 66 522 l 709 522 q 735 511 724 522 q 745 485 745 500 l 745 460 q 735 434 745 444 q 709 423 724 423 l 81 423 m 81 182 q 55 192 66 182 q 43 219 43 203 l 43 243 q 55 270 43 260 q 81 281 66 281 l 709 281 q 735 270 724 281 q 745 243 745 260 l 745 219 q 735 192 745 203 q 709 182 724 182 l 81 182 z "},">":{"ha":833,"x_min":41,"x_max":749,"o":"m 604 353 q 445 431 524 391 q 286 509 366 470 q 174 563 231 535 q 62 618 117 591 q 48 632 55 621 q 41 651 41 642 l 41 677 q 46 696 41 688 q 58 709 51 705 q 75 714 66 714 q 95 710 85 715 l 727 401 q 742 386 735 396 q 749 368 749 375 l 749 338 q 742 318 749 329 q 727 304 735 308 q 411 149 572 228 q 95 -6 250 70 q 75 -11 85 -11 q 58 -5 66 -10 q 46 8 51 -1 q 41 27 41 16 l 41 54 q 48 72 41 61 q 62 87 55 83 l 604 353 z "},"?":{"ha":694,"x_min":22,"x_max":612,"o":"m 61 614 q 35 624 46 614 q 24 650 24 635 q 101 889 22 796 q 331 983 182 983 q 529 922 448 983 q 612 740 612 857 q 598 646 612 689 q 562 576 583 607 q 541 549 552 562 q 519 526 530 536 q 514 522 517 524 q 510 518 511 519 q 496 505 503 511 q 484 494 490 499 l 481 492 q 480 490 481 491 q 478 488 479 489 q 426 435 448 461 q 393 386 404 410 q 368 264 368 341 q 357 238 368 248 q 331 227 347 227 l 306 227 q 280 238 291 227 q 269 263 269 248 q 276 348 269 309 q 300 420 283 387 l 300 419 q 341 486 315 452 q 402 553 368 520 l 406 557 l 433 581 q 451 597 441 587 q 469 618 460 606 q 487 642 479 629 q 501 671 496 656 l 501 671 q 510 702 507 685 q 515 739 513 719 q 501 801 513 774 q 468 846 489 828 q 408 875 443 865 q 331 885 372 885 q 174 823 226 884 q 123 652 119 759 q 113 625 123 635 q 86 614 102 614 l 61 614 m 306 0 q 280 11 290 0 q 269 37 269 22 l 269 159 q 280 186 269 175 q 306 197 290 197 l 331 197 q 357 186 347 197 q 368 159 368 175 l 368 37 q 357 11 368 22 q 331 0 347 0 l 306 0 z "},"@":{"ha":1111,"x_min":63,"x_max":991,"o":"m 686 606 q 668 641 678 628 q 642 661 657 653 l 642 661 q 560 680 604 680 q 473 655 512 680 l 474 655 q 435 622 454 641 q 399 581 416 603 q 350 482 367 532 q 332 381 332 432 q 363 298 332 331 q 444 263 396 263 q 530 288 486 262 q 568 324 550 300 q 586 354 578 337 q 602 389 594 371 l 686 606 m 691 745 q 712 731 703 738 q 729 717 721 724 q 731 723 730 720 q 733 730 732 726 q 747 747 737 739 q 768 755 758 755 l 793 755 q 824 739 814 755 q 828 704 835 724 q 794 614 811 659 q 759 525 777 570 q 738 469 748 497 q 716 414 727 441 l 716 414 q 703 379 710 397 q 690 345 696 362 q 673 269 671 299 q 686 263 673 263 q 752 283 719 264 q 818 343 785 302 q 891 550 888 422 q 867 676 890 620 q 798 775 843 732 q 687 839 750 817 q 551 861 625 861 q 396 832 465 860 q 273 748 328 804 q 161 477 163 641 q 278 184 165 281 q 550 84 390 84 q 649 98 603 84 l 649 99 q 697 118 674 108 q 741 138 720 127 q 783 165 763 151 q 819 195 802 180 q 880 265 854 228 q 684 164 791 164 q 637 172 659 164 q 601 197 616 180 q 590 209 595 200 q 567 194 578 200 q 543 183 556 189 l 543 183 q 492 168 518 173 q 439 164 465 163 q 292 230 351 164 q 290 232 290 232 q 247 300 261 262 q 233 381 233 337 q 255 515 233 451 q 321 642 277 580 q 427 739 367 703 q 565 779 490 777 q 691 746 635 779 l 691 745 m 884 269 q 898 277 890 274 q 911 281 906 281 l 940 281 q 960 275 951 281 q 972 262 968 270 q 977 244 977 254 q 970 224 977 234 q 887 125 932 169 q 788 51 841 81 q 675 3 735 20 q 550 -16 615 -14 q 220 103 364 -16 q 63 477 66 223 q 102 670 64 582 q 207 824 140 758 q 362 924 276 890 q 549 960 448 959 q 861 850 736 959 q 991 549 987 742 q 964 400 989 467 q 894 281 939 333 l 894 281 l 884 269 z "},"A":{"ha":799,"x_min":-39,"x_max":810,"o":"m 422 913 q 408 878 414 895 q 394 843 401 861 q 388 839 393 838 q 382 844 383 839 q 377 855 380 849 q 373 866 375 861 l 373 865 q 364 889 368 877 q 355 915 359 902 q 357 922 353 919 q 364 922 360 924 l 388 905 q 400 914 394 910 q 412 921 406 918 l 422 913 m 552 403 q 482 583 517 492 q 412 764 447 674 q 406 781 408 774 q 400 796 403 789 q 395 811 397 803 q 388 828 392 819 q 331 686 358 754 q 274 546 303 617 q 247 476 260 511 q 218 403 233 441 l 552 403 m 177 301 q 137 200 157 250 q 96 100 116 151 q 80 62 87 81 q 64 24 72 43 l 64 24 q 50 7 61 15 q 29 0 39 0 l -1 0 q -20 4 -12 0 q -33 16 -28 9 q -38 33 -37 24 q -35 53 -39 43 l 336 968 q 351 984 340 977 q 371 991 361 991 l 406 991 q 426 984 415 991 q 441 968 437 977 l 802 52 q 800 16 810 32 q 766 0 789 0 l 739 0 q 718 7 729 0 q 704 24 707 15 l 704 24 q 648 162 675 94 q 591 301 620 231 l 177 301 z "},"B":{"ha":848,"x_min":37,"x_max":795,"o":"m 140 102 l 467 102 q 632 149 570 102 q 693 285 692 193 q 675 368 692 334 q 631 422 659 403 q 556 453 596 441 q 471 465 515 465 l 140 465 l 140 102 m 38 878 q 38 889 38 884 q 37 901 37 895 q 43 946 37 928 q 69 975 49 964 q 127 989 89 985 q 230 993 165 993 l 265 993 q 289 992 277 993 q 314 992 300 992 q 386 991 347 991 q 471 991 425 991 q 584 975 532 991 q 677 928 636 959 q 743 843 720 894 q 766 725 766 792 q 749 633 766 675 q 703 557 733 591 q 682 537 692 546 q 659 520 671 528 q 689 502 675 512 q 717 479 704 491 q 774 396 753 445 q 795 286 794 347 q 768 163 794 218 q 696 72 743 109 q 588 19 649 37 q 455 0 527 0 l 77 0 q 49 11 60 0 q 38 38 38 22 l 38 878 m 471 566 q 611 608 554 566 q 651 656 637 627 q 665 726 665 685 q 651 798 665 768 q 614 848 638 829 q 551 879 588 868 q 471 890 515 890 q 354 890 405 890 q 264 892 302 891 q 222 893 244 893 q 187 894 201 894 q 159 893 169 894 q 145 890 149 892 q 140 885 140 888 q 140 876 140 882 l 140 566 l 471 566 z "},"C":{"ha":951,"x_min":12,"x_max":906,"o":"m 867 435 q 896 422 885 435 q 905 392 906 410 q 859 227 892 301 q 768 97 825 153 q 636 8 711 38 q 464 -22 560 -22 q 139 125 261 -19 l 140 124 q 44 286 76 196 q 12 488 12 376 q 119 837 12 678 l 119 836 q 481 1014 231 1009 q 657 982 583 1012 q 783 897 732 953 l 782 897 q 885 680 884 785 q 874 652 885 664 q 847 641 863 641 l 821 641 q 795 651 806 641 q 783 675 785 662 q 758 762 779 721 q 696 838 736 802 q 480 912 618 909 q 311 871 379 911 q 248 826 276 851 q 199 770 220 800 l 199 770 q 135 631 157 701 q 113 488 113 562 q 208 201 113 320 q 465 79 296 83 q 699 171 614 81 q 767 274 741 215 q 804 402 793 334 q 817 425 805 416 q 842 435 828 435 l 867 435 z "},"D":{"ha":900,"x_min":49,"x_max":836,"o":"m 49 893 q 50 945 49 924 q 63 976 52 965 q 103 992 75 987 q 182 996 130 996 q 206 996 194 996 q 233 996 218 996 q 256 995 244 995 q 281 994 268 994 q 302 994 292 994 q 324 994 313 994 q 365 992 342 993 q 408 991 387 992 q 481 986 445 991 q 557 969 517 981 q 631 935 595 956 q 696 888 667 913 q 754 820 729 859 q 798 734 780 782 q 836 495 835 637 q 798 270 834 365 q 690 115 761 175 q 368 0 553 0 l 87 0 q 60 11 71 0 q 49 38 49 22 l 49 893 m 151 102 l 374 102 q 514 126 451 102 q 629 198 577 150 q 707 319 681 245 q 734 496 732 393 q 732 555 734 526 q 726 610 730 583 q 718 655 723 634 q 705 695 713 675 l 705 694 q 672 762 692 732 q 631 813 652 791 q 581 848 608 833 q 526 873 554 864 q 465 886 498 882 q 400 890 433 890 q 318 890 355 890 q 252 891 281 890 q 218 892 233 892 q 191 892 203 892 q 168 891 176 892 q 156 891 159 891 q 151 889 152 890 q 151 886 151 888 l 151 102 z "},"E":{"ha":746,"x_min":47,"x_max":735,"o":"m 149 102 l 697 102 q 724 91 713 102 q 735 64 735 79 l 735 38 q 724 11 735 22 q 697 0 713 0 l 85 0 q 58 11 69 0 q 47 38 47 22 l 47 954 q 58 980 47 969 q 85 991 69 991 l 692 991 q 720 980 709 991 q 730 954 730 969 l 730 928 q 720 901 730 912 q 692 890 709 890 l 149 890 l 149 566 l 659 566 q 685 555 674 566 q 696 528 696 544 l 696 502 q 685 475 696 486 q 659 465 674 465 l 149 465 l 149 102 z "},"F":{"ha":668,"x_min":46,"x_max":686,"o":"m 148 566 l 597 566 q 624 555 613 566 q 635 528 635 544 l 635 502 q 624 475 635 486 q 597 465 613 465 l 148 465 l 148 38 q 137 11 148 22 q 110 0 125 0 l 84 0 q 57 11 68 0 q 46 38 46 22 l 46 954 q 57 980 46 969 q 84 991 68 991 l 648 991 q 675 980 664 991 q 686 954 686 969 l 686 928 q 675 901 686 912 q 648 890 664 890 l 148 890 l 148 566 z "},"G":{"ha":1003,"x_min":22,"x_max":924,"o":"m 494 79 q 725 169 631 81 l 725 170 q 819 393 816 256 l 819 392 q 812 403 818 403 l 503 403 q 475 414 486 403 q 464 441 464 425 l 464 467 q 475 493 464 482 q 503 505 486 505 l 814 505 q 868 495 847 505 q 902 468 889 486 q 919 427 914 451 q 924 372 924 402 q 899 249 924 315 q 490 -22 798 -18 q 288 19 377 -21 q 139 134 199 60 q 52 298 83 206 q 22 496 22 391 q 146 861 22 717 q 293 974 208 935 q 490 1014 378 1013 q 907 674 842 1007 q 899 643 910 656 q 869 629 888 629 l 844 629 q 820 638 830 629 q 806 660 809 648 q 766 764 793 719 q 697 841 738 810 q 603 890 656 873 q 489 912 551 908 q 335 880 402 910 q 221 792 268 850 q 123 496 123 673 q 218 201 123 318 l 217 202 q 271 151 245 172 q 333 114 299 130 q 407 88 368 96 q 494 79 447 79 z "},"H":{"ha":900,"x_min":48,"x_max":817,"o":"m 150 465 l 150 38 q 139 11 150 22 q 112 0 129 0 l 87 0 q 59 11 71 0 q 48 38 48 22 l 48 954 q 59 980 48 969 q 87 991 71 991 l 112 991 q 139 980 129 991 q 150 954 150 969 l 150 566 l 715 566 l 715 954 q 726 980 715 969 q 753 991 737 991 l 779 991 q 806 980 795 991 q 817 954 817 969 l 817 38 q 806 11 817 22 q 779 0 795 0 l 753 0 q 726 11 737 0 q 715 38 715 22 l 715 465 l 150 465 z "},"I":{"ha":178,"x_min":35,"x_max":136,"o":"m 35 954 q 46 980 35 969 q 73 991 57 991 l 98 991 q 125 980 115 991 q 136 954 136 969 l 136 38 q 125 11 136 22 q 98 0 115 0 l 73 0 q 46 11 57 0 q 35 38 35 22 l 35 954 z "},"J":{"ha":643,"x_min":-4,"x_max":567,"o":"m 465 954 q 476 980 465 969 q 503 991 487 991 l 529 991 q 556 980 545 991 q 567 954 567 969 l 567 276 q 551 160 567 213 q 503 66 534 108 q 411 2 468 25 q 278 -22 355 -22 q 153 1 208 -22 q 63 64 98 23 q 13 154 29 103 q -3 267 -4 205 l -3 322 q 7 349 -3 338 q 34 360 18 360 l 60 360 q 87 349 76 360 q 98 322 98 338 l 98 267 q 278 79 100 79 q 419 124 372 79 q 465 296 465 169 l 465 954 z "},"K":{"ha":823,"x_min":49,"x_max":825,"o":"m 151 346 l 151 38 q 140 11 151 22 q 113 0 129 0 l 87 0 q 60 11 71 0 q 49 38 49 22 l 49 954 q 60 980 49 969 q 87 991 71 991 l 113 991 q 140 980 129 991 q 151 954 151 969 l 151 481 q 305 617 228 549 q 461 755 382 686 q 597 874 527 812 q 732 991 667 935 l 786 991 q 814 980 804 991 q 825 954 825 968 q 811 924 825 937 l 392 556 q 476 420 434 484 q 566 297 518 355 q 671 188 614 239 q 799 89 728 136 q 811 73 806 84 q 817 54 817 62 l 814 34 q 808 15 813 23 q 794 3 802 7 q 776 0 786 -1 q 757 5 766 0 q 612 106 676 51 q 496 224 549 162 q 399 353 444 286 q 313 490 355 420 l 151 346 z "},"L":{"ha":668,"x_min":46,"x_max":682,"o":"m 644 102 q 671 91 660 102 q 682 64 682 79 l 682 38 q 671 11 682 22 q 644 0 660 0 l 84 0 q 57 11 68 0 q 46 38 46 22 l 46 954 q 57 980 46 969 q 84 991 68 991 l 109 991 q 137 980 125 991 q 148 954 148 969 l 148 102 l 644 102 z "},"M":{"ha":1083,"x_min":52,"x_max":989,"o":"m 132 991 q 152 984 141 991 q 167 968 163 977 q 344 566 256 767 q 521 163 432 366 q 698 566 610 366 q 875 968 786 766 q 889 984 879 977 q 909 991 900 991 l 951 991 q 979 980 968 991 q 989 954 989 969 l 989 38 q 979 11 989 22 q 951 0 968 0 l 926 0 q 899 11 910 0 q 888 38 888 22 l 888 747 q 839 635 864 691 q 790 524 814 580 q 736 400 764 464 q 680 273 708 337 q 624 146 652 210 q 570 23 596 83 q 555 7 566 14 q 535 0 544 0 l 507 0 q 486 7 497 0 q 472 23 475 14 q 313 384 392 205 q 154 745 234 562 l 154 38 q 143 11 154 22 q 116 0 132 0 l 90 0 q 63 11 74 0 q 52 38 52 22 l 52 954 q 63 980 52 969 q 90 991 74 991 l 132 991 z "},"N":{"ha":900,"x_min":48,"x_max":817,"o":"m 48 954 q 59 980 48 969 q 87 991 71 991 l 125 991 q 141 986 131 991 q 156 975 151 981 q 435 582 294 782 q 715 186 577 381 l 715 954 q 726 980 715 969 q 753 991 737 991 l 779 991 q 806 980 795 991 q 817 954 817 969 l 817 38 q 806 11 817 22 q 779 0 795 0 l 740 0 q 723 5 733 0 q 709 17 712 10 l 709 16 q 569 215 638 117 q 430 410 499 313 q 291 606 361 508 q 150 805 221 704 l 150 38 q 139 11 150 22 q 112 0 129 0 l 87 0 q 59 11 71 0 q 48 38 48 22 l 48 954 z "},"O":{"ha":1002,"x_min":22,"x_max":942,"o":"m 222 799 q 151 666 176 741 q 123 496 125 591 q 151 326 125 401 q 222 193 176 251 q 481 79 313 81 q 631 108 566 80 q 742 194 695 136 q 815 327 791 252 q 840 496 839 401 q 743 799 837 684 l 743 798 q 630 881 696 851 q 481 912 564 911 q 333 882 397 911 q 222 799 269 854 m 22 496 q 52 694 22 604 q 139 857 81 785 q 481 1014 258 1011 q 681 973 595 1013 q 827 858 767 934 q 942 496 942 711 q 911 301 942 393 q 828 137 881 209 q 681 21 768 63 q 481 -22 593 -21 q 283 19 368 -21 q 140 136 198 59 q 22 496 22 282 z "},"P":{"ha":797,"x_min":47,"x_max":773,"o":"m 149 519 l 456 519 q 613 569 554 519 q 671 704 670 615 q 455 890 671 886 q 363 890 404 890 q 289 892 323 891 q 249 893 269 893 q 214 894 228 894 q 162 890 176 894 q 149 873 149 886 l 149 519 m 149 38 q 138 11 149 22 q 111 0 127 0 l 85 0 q 59 11 70 0 q 47 38 47 22 l 47 877 q 53 938 47 915 q 79 973 58 961 q 138 989 99 985 q 245 993 178 993 l 279 993 q 300 992 290 993 q 323 992 311 992 l 380 992 q 417 992 398 992 q 456 991 435 991 q 773 704 768 991 q 748 581 772 634 q 677 489 724 527 q 443 417 586 417 l 149 417 l 149 38 z "},"Q":{"ha":1002,"x_min":22,"x_max":956,"o":"m 720 172 q 840 496 838 286 q 814 666 839 590 q 743 799 789 742 l 743 798 q 630 881 696 851 q 482 912 564 911 q 223 799 314 909 q 123 496 128 684 q 223 193 128 309 q 482 79 313 81 q 604 100 548 79 q 703 155 661 120 l 720 172 m 755 65 q 481 -22 646 -21 q 283 19 368 -21 q 140 136 198 59 q 22 496 22 282 q 52 694 22 604 q 139 857 81 785 q 482 1014 258 1011 q 681 973 595 1013 q 827 858 767 934 q 942 496 942 711 q 912 299 942 389 q 825 136 883 208 q 848 120 838 127 q 871 104 859 113 q 904 82 888 93 q 937 59 921 71 q 953 35 949 50 q 947 7 956 20 l 935 -12 q 910 -27 926 -24 q 881 -22 895 -31 l 755 65 z "},"R":{"ha":848,"x_min":49,"x_max":831,"o":"m 151 531 l 454 531 q 614 578 550 531 q 677 722 677 623 q 467 890 683 886 l 151 890 l 151 531 m 151 38 q 140 11 151 22 q 113 0 129 0 l 87 0 q 60 11 71 0 q 49 38 49 22 l 49 954 q 60 980 49 969 q 87 991 71 991 l 461 991 q 779 719 777 991 q 657 486 779 559 q 698 457 681 474 q 727 419 715 440 q 756 325 745 384 q 770 188 767 265 l 770 189 q 772 124 773 144 q 775 105 771 104 q 794 109 785 110 q 812 104 804 109 q 826 91 821 100 q 831 71 831 82 l 829 40 q 821 18 829 28 q 802 3 813 7 q 787 0 794 1 q 772 -1 781 -1 q 700 46 725 -1 q 670 178 674 93 q 657 306 667 254 q 629 382 646 359 q 568 418 610 407 q 457 429 525 429 l 151 429 l 151 38 z "},"S":{"ha":848,"x_min":22,"x_max":778,"o":"m 696 660 q 670 670 682 660 q 659 696 659 681 q 637 797 656 755 q 586 864 618 840 q 504 900 551 888 q 399 912 456 913 q 308 902 351 913 q 226 872 265 892 q 172 821 193 854 q 156 785 161 806 q 151 739 151 764 q 155 696 151 715 q 170 665 160 677 q 229 616 193 635 l 228 616 q 271 598 248 606 q 322 585 294 591 q 363 574 342 579 q 406 564 384 569 l 405 564 q 420 559 412 562 q 435 555 427 557 l 435 555 q 500 540 468 548 q 562 525 533 532 q 617 504 589 517 q 669 478 645 492 q 714 443 693 464 q 750 396 734 422 q 771 336 765 370 q 778 262 778 303 q 746 132 777 187 q 657 42 715 77 q 545 -6 605 10 q 418 -22 485 -22 q 262 0 333 -22 q 136 64 191 22 q 54 180 85 109 q 22 342 22 251 q 33 369 22 358 q 60 380 43 380 l 85 380 q 112 369 101 380 q 123 342 123 357 q 201 142 125 198 q 296 95 242 111 q 418 79 349 79 q 513 92 467 79 q 601 127 560 105 q 655 183 636 149 q 676 264 675 217 q 654 353 676 321 q 628 381 643 368 q 591 404 612 394 q 546 422 570 414 q 496 436 522 431 q 441 450 468 444 q 387 461 415 456 q 372 464 379 463 q 359 467 366 466 q 329 474 343 471 q 300 482 315 478 q 287 486 293 484 q 274 490 280 488 q 166 532 214 505 q 118 567 139 547 q 83 611 98 586 l 83 610 q 49 739 49 661 q 58 814 49 781 q 83 873 66 848 l 83 873 q 170 959 115 925 q 282 1003 222 990 q 340 1011 311 1008 q 399 1014 369 1014 q 648 945 550 1015 q 727 845 699 907 q 760 700 755 783 q 749 672 760 684 q 722 660 738 660 l 696 660 z "},"T":{"ha":694,"x_min":-47,"x_max":714,"o":"m -8 890 q -36 901 -25 890 q -47 928 -47 912 l -47 954 q -36 980 -47 969 q -8 991 -25 991 l 677 991 q 703 980 692 991 q 714 954 714 969 l 714 928 q 703 901 714 912 q 677 890 692 890 l 385 890 l 385 38 q 374 11 385 22 q 346 0 363 0 l 321 0 q 294 11 304 0 q 283 38 283 22 l 283 890 l -8 890 z "},"U":{"ha":878,"x_min":48,"x_max":796,"o":"m 694 954 q 705 980 694 969 q 733 991 716 991 l 758 991 q 785 980 774 991 q 796 954 796 969 l 796 378 q 422 -22 791 -22 q 48 379 52 -22 l 48 954 q 59 980 48 969 q 87 991 70 991 l 112 991 q 139 980 128 991 q 150 954 150 969 l 150 379 q 168 253 149 308 q 221 161 186 199 q 307 103 256 124 q 422 79 358 83 q 535 103 485 83 q 621 161 586 124 q 675 253 656 199 q 694 379 694 308 l 694 954 z "},"V":{"ha":747,"x_min":-50,"x_max":766,"o":"m 16 991 q 38 984 26 991 q 52 967 49 976 l 52 968 q 130 768 92 867 q 208 571 169 669 q 285 374 246 473 q 363 174 323 275 q 515 571 439 373 q 666 968 590 768 q 681 984 670 977 q 702 991 692 991 l 728 991 q 746 987 738 991 q 759 976 754 983 q 765 959 764 968 q 763 939 766 949 l 414 24 l 414 25 q 400 7 411 15 q 378 0 389 0 l 351 0 q 329 7 340 0 q 315 24 318 15 l -44 939 q -40 975 -50 959 q -9 991 -31 991 l 16 991 z "},"W":{"ha":1208,"x_min":-32,"x_max":1194,"o":"m 600 991 q 623 983 612 991 q 637 964 633 975 q 753 583 694 776 q 869 200 811 390 q 979 583 924 392 q 1089 964 1034 773 q 1104 983 1093 975 q 1126 991 1115 991 l 1152 991 q 1182 977 1171 991 q 1188 943 1194 962 l 922 27 q 908 8 919 17 q 886 0 897 0 l 852 0 q 829 8 840 0 q 814 26 818 16 l 581 792 q 466 410 523 599 q 352 27 410 220 q 337 8 349 16 q 316 0 326 0 l 281 0 q 258 8 269 0 q 244 27 248 16 l -26 943 q -21 977 -32 962 q 11 991 -9 991 l 37 991 q 59 983 49 991 q 73 964 70 975 l 297 202 q 352 386 325 294 q 408 571 380 478 q 467 768 438 670 q 526 964 496 865 q 540 983 529 975 q 563 991 551 991 l 600 991 z "},"X":{"ha":722,"x_min":-59,"x_max":753,"o":"m 637 976 q 651 986 642 981 q 667 991 661 991 l 700 991 q 728 981 718 991 q 739 956 739 970 q 730 930 739 943 q 653 828 693 881 q 572 720 612 774 q 491 612 531 666 q 414 509 451 559 q 495 398 455 453 q 578 287 536 344 q 662 174 621 230 q 745 61 704 117 q 753 37 753 50 q 743 11 753 22 q 715 0 733 0 l 684 0 q 667 5 677 0 q 652 16 656 10 l 349 425 q 306 368 327 397 q 262 311 284 338 q 153 163 210 239 q 42 16 96 87 q 28 5 38 10 q 11 0 18 0 l -20 0 q -49 11 -39 0 q -59 37 -59 22 q -51 61 -59 50 l 285 509 q 126 720 205 615 q -33 930 47 825 q -41 955 -41 941 q -30 980 -41 969 q -1 991 -20 991 l 32 991 q 48 986 38 991 q 62 976 58 981 l 349 593 l 637 976 z "},"Y":{"ha":747,"x_min":-62,"x_max":781,"o":"m 681 975 l 680 975 q 694 986 684 981 q 711 991 704 991 l 743 991 q 771 980 760 991 q 781 955 781 969 q 780 943 781 949 q 774 931 778 937 l 410 412 l 410 38 q 399 11 410 22 q 372 0 388 0 l 347 0 q 319 11 330 0 q 308 38 308 22 l 308 412 q 126 672 217 543 q -55 931 36 801 q -62 955 -62 943 q -52 980 -62 969 q -24 991 -41 991 l 7 991 q 25 986 15 991 q 39 975 35 981 l 359 517 l 681 975 z "},"Z":{"ha":694,"x_min":-50,"x_max":702,"o":"m 664 102 q 691 91 680 102 q 702 64 702 79 l 702 38 q 691 11 702 22 q 664 0 680 0 l -11 0 q -39 11 -28 0 q -50 38 -50 22 l -50 85 l 552 890 l 24 890 q -3 901 8 890 q -14 928 -14 912 l -14 954 q -3 980 -14 969 q 24 991 8 991 l 654 991 q 681 980 671 991 q 692 954 692 969 l 692 907 l 90 102 l 664 102 z "},"[":{"ha":309,"x_min":94,"x_max":308,"o":"m 271 983 q 297 973 287 983 q 308 947 308 962 l 308 922 q 297 896 308 906 q 271 885 287 885 l 193 885 l 193 -121 l 271 -121 q 297 -132 287 -121 q 308 -158 308 -142 l 308 -183 q 297 -210 308 -199 q 271 -220 287 -220 l 130 -220 q 104 -210 115 -220 q 94 -183 94 -199 l 94 947 q 104 973 94 962 q 130 983 115 983 l 271 983 z "},"\\":{"ha":463,"x_min":-37,"x_max":471,"o":"m 410 -21 q 390 -14 401 -21 q 376 1 380 -7 l -31 932 q -27 967 -37 951 q 3 983 -18 983 l 28 983 q 48 977 38 983 q 62 962 58 970 q 266 496 161 734 q 469 31 370 259 q 471 12 471 21 q 465 -4 470 3 q 453 -16 460 -12 q 435 -21 445 -21 l 410 -21 z "},"]":{"ha":309,"x_min":-16,"x_max":199,"o":"m 22 -220 q -5 -210 5 -220 q -16 -183 -16 -199 l -16 -158 q -5 -132 -16 -142 q 22 -121 5 -121 l 100 -121 l 100 885 l 22 885 q -5 896 5 885 q -16 922 -16 906 l -16 947 q -5 973 -16 962 q 22 983 5 983 l 162 983 q 188 973 178 983 q 199 947 199 962 l 199 -183 q 188 -210 199 -199 q 162 -220 178 -220 l 22 -220 z "},"^":{"ha":833,"x_min":56,"x_max":733,"o":"m 728 336 q 733 317 733 326 q 728 299 732 307 q 714 287 723 292 q 695 283 706 283 l 670 283 q 651 289 661 283 q 637 303 640 296 l 637 302 q 575 422 606 363 q 515 539 545 481 q 455 656 486 597 q 395 776 425 715 q 335 659 364 716 q 277 545 306 602 q 216 426 246 486 q 153 302 186 366 q 138 289 149 295 q 120 283 128 283 l 95 283 q 76 287 84 283 q 62 299 67 292 q 57 317 58 307 q 62 336 56 326 l 349 901 l 349 901 q 363 915 353 908 q 382 921 374 921 l 408 921 q 426 915 416 921 q 441 901 436 909 l 728 336 z "},"_":{"ha":694,"x_min":-19,"x_max":677,"o":"m 18 -156 q -8 -145 2 -156 q -19 -119 -19 -134 l -19 -56 q -8 -30 -19 -41 q 18 -19 2 -19 l 640 -19 q 667 -30 656 -19 q 677 -56 677 -41 l 677 -119 q 667 -145 677 -134 q 640 -156 656 -156 l 18 -156 z "},"`":{"ha":180,"x_min":-83,"x_max":186,"o":"m -71 921 q -80 934 -77 927 q -83 947 -83 941 q -73 972 -83 962 q -45 983 -62 983 l -8 983 q 7 979 -3 983 q 20 972 16 975 l 176 792 q 186 767 186 779 q 176 742 186 753 q 148 731 165 731 l 129 731 q 115 734 123 731 q 102 741 106 738 l -71 921 z "},"b":{"ha":746,"x_min":50,"x_max":682,"o":"m 151 355 q 211 162 151 241 q 372 84 267 85 q 528 161 476 85 q 569 250 556 201 q 583 355 583 298 q 568 457 583 408 q 530 549 554 507 l 531 549 q 467 607 507 587 q 373 629 427 627 q 283 607 323 626 q 214 553 243 587 q 168 469 184 518 q 151 355 152 419 m 151 643 q 245 705 189 683 q 372 729 302 727 q 508 699 450 728 q 604 614 566 669 q 663 497 644 562 q 682 355 682 432 q 602 95 682 197 q 503 14 560 42 q 372 -16 446 -14 q 271 2 317 -15 q 185 50 224 19 q 121 118 149 79 q 79 204 94 157 q 65 263 71 229 q 56 337 59 298 q 51 417 52 376 q 50 494 50 457 q 50 557 50 529 q 52 604 51 586 l 52 926 q 62 952 52 941 q 89 963 73 963 l 113 963 q 140 952 129 963 q 151 926 151 941 l 151 643 z "},"c":{"ha":694,"x_min":19,"x_max":641,"o":"m 602 292 q 630 279 619 292 q 639 250 641 267 q 340 -16 601 -9 q 203 14 263 -14 q 102 94 143 43 q 41 208 62 144 q 19 343 19 271 q 39 488 19 420 q 100 610 60 555 q 205 697 141 666 q 355 729 269 728 q 538 668 458 729 q 633 487 616 603 q 624 458 635 471 q 597 446 613 446 l 572 446 q 548 455 559 446 q 535 477 538 464 q 512 544 529 515 q 474 592 496 574 q 355 629 425 629 q 295 623 323 629 q 245 606 267 617 q 204 577 223 593 q 174 543 185 560 q 132 448 147 498 q 118 343 117 397 q 176 159 118 234 q 245 103 205 121 q 340 84 286 85 q 479 131 425 84 l 479 131 q 540 258 530 176 q 552 282 541 272 q 576 292 563 292 l 602 292 z "},"d":{"ha":746,"x_min":42,"x_max":673,"o":"m 512 162 q 557 251 543 202 q 573 355 572 300 q 553 465 570 416 q 507 550 536 515 q 438 606 478 585 q 351 629 399 626 q 257 607 298 627 q 193 549 217 586 q 154 458 168 507 q 141 355 141 410 q 195 161 141 239 q 351 84 245 85 q 444 104 404 85 q 512 162 484 123 m 351 729 q 480 707 427 727 q 573 643 534 688 l 573 926 q 584 952 573 941 q 610 963 595 963 l 635 963 q 662 952 651 963 q 672 926 672 941 l 672 593 q 672 582 672 588 q 673 569 673 576 l 673 536 q 673 514 673 525 q 673 492 673 504 q 672 414 673 454 q 668 334 671 373 q 660 262 665 296 q 645 203 654 228 l 645 204 q 539 50 613 109 q 453 2 500 19 q 351 -16 406 -15 q 221 15 278 -14 q 123 95 163 43 q 63 211 84 145 q 42 355 42 277 q 61 496 42 432 q 119 614 80 561 q 216 699 158 669 q 351 729 274 728 z "},"e":{"ha":694,"x_min":10,"x_max":647,"o":"m 546 414 q 529 493 542 456 q 492 559 515 530 q 425 612 465 595 q 331 629 385 629 q 250 612 288 629 q 182 564 212 595 q 139 499 156 536 q 114 414 121 462 l 546 414 m 113 315 q 129 227 117 267 q 163 156 142 186 q 228 102 187 119 q 326 84 269 85 q 468 131 415 85 q 541 267 521 177 q 553 288 543 279 q 576 296 564 296 l 602 296 q 630 284 618 296 q 639 254 641 271 q 538 57 621 129 q 444 3 496 22 q 329 -16 392 -15 q 87 96 163 -14 q 12 357 10 200 q 110 630 15 536 q 329 729 202 729 q 475 697 413 728 q 576 610 537 666 q 629 500 611 559 q 647 375 647 441 q 647 362 647 370 q 646 349 647 354 q 634 325 645 335 q 610 315 623 315 l 113 315 z "},"f":{"ha":283,"x_min":83,"x_max":336,"o":"m 83 819 q 100 901 83 869 q 149 945 117 932 q 246 963 195 963 q 278 961 263 962 q 305 957 294 960 q 328 944 319 954 q 336 921 336 934 l 336 896 q 324 868 336 878 q 294 859 311 857 q 267 863 279 861 q 240 864 254 864 q 190 853 199 864 q 182 810 181 844 l 182 665 l 282 665 q 309 655 298 665 q 319 628 319 644 l 319 604 q 309 577 319 588 q 282 566 298 566 l 182 566 l 182 37 q 171 11 182 22 q 144 0 160 0 l 120 0 q 93 11 104 0 q 83 37 83 22 l 83 819 z "},"g":{"ha":721,"x_min":15,"x_max":638,"o":"m 534 378 q 480 556 535 481 q 417 610 455 593 q 327 629 380 628 q 235 612 274 629 q 171 559 197 595 q 114 378 114 488 q 169 201 114 270 q 318 134 219 135 q 410 151 371 134 q 478 203 450 168 q 534 378 534 273 m 330 -136 q 484 -88 433 -137 q 536 59 534 -39 l 536 119 q 498 90 517 102 q 412 49 458 64 q 319 35 366 35 q 187 63 244 35 q 91 141 130 90 q 34 249 54 190 q 15 378 15 309 q 35 511 15 450 q 94 623 55 572 q 328 729 175 728 q 426 712 379 728 q 509 668 472 696 q 574 598 545 637 q 614 514 603 558 q 633 415 629 469 q 638 304 638 361 q 636 203 638 252 q 636 188 636 197 q 635 172 635 178 q 634 136 635 155 q 634 101 634 118 q 634 80 634 91 q 635 58 634 69 q 331 -235 630 -235 l 216 -235 q 190 -224 200 -235 q 179 -198 179 -214 l 179 -174 q 190 -148 179 -158 q 216 -137 200 -137 l 330 -136 z "},"h":{"ha":694,"x_min":50,"x_max":609,"o":"m 50 926 q 60 952 50 941 q 86 963 71 963 l 112 963 q 138 952 127 963 q 149 926 149 941 l 149 654 q 155 660 152 658 q 161 665 158 662 q 165 668 163 667 l 169 672 q 345 729 240 728 q 534 660 462 729 q 590 576 571 625 q 609 461 608 526 l 609 37 q 598 11 609 22 q 572 0 587 0 l 547 0 q 520 11 531 0 q 509 37 509 22 l 509 458 q 498 537 509 505 q 464 589 487 570 q 345 629 416 629 q 261 610 298 628 q 201 565 224 593 q 163 488 177 530 q 149 399 149 446 l 149 37 q 138 11 149 22 q 112 0 127 0 l 86 0 q 60 11 71 0 q 50 37 50 22 l 50 926 z "},"i":{"ha":180,"x_min":36,"x_max":135,"o":"m 135 37 q 124 11 135 22 q 98 0 114 0 l 73 0 q 47 11 58 0 q 36 37 36 22 l 36 677 q 47 703 36 692 q 73 714 58 714 l 98 714 q 124 703 114 714 q 135 677 135 692 l 135 37 m 135 800 q 124 773 135 784 q 98 763 114 763 l 73 763 q 47 773 58 763 q 36 800 36 784 l 36 926 q 47 952 36 941 q 73 963 58 963 l 98 963 q 124 952 114 963 q 135 926 135 941 l 135 800 z "},"j":{"ha":180,"x_min":-97,"x_max":132,"o":"m 132 -56 q 116 -144 132 -109 q 73 -195 101 -179 q 44 -208 60 -202 q 11 -215 28 -213 q -5 -216 3 -216 q -22 -216 -14 -216 q -40 -218 -32 -217 q -55 -220 -47 -218 q -85 -212 -73 -222 q -97 -183 -97 -201 l -97 -158 q -86 -132 -97 -142 q -59 -121 -75 -121 q -8 -120 -28 -123 q 23 -111 12 -117 l 21 -112 q 33 -47 33 -102 l 33 677 q 43 703 33 692 q 69 714 54 714 l 95 714 q 121 703 111 714 q 132 677 132 692 l 132 -56 m 132 800 q 121 773 132 784 q 95 763 111 763 l 69 763 q 43 773 54 763 q 33 800 33 784 l 33 926 q 43 952 33 941 q 69 963 54 963 l 95 963 q 121 952 111 963 q 132 926 132 941 l 132 800 z "},"k":{"ha":616,"x_min":52,"x_max":683,"o":"m 151 261 l 151 37 q 140 11 151 22 q 113 0 129 0 l 89 0 q 62 11 73 0 q 52 37 52 22 l 52 926 q 62 952 52 941 q 89 963 73 963 l 113 963 q 140 952 129 963 q 151 926 151 941 l 151 388 q 258 477 205 433 q 365 566 311 522 q 453 640 409 603 q 542 714 498 677 l 591 714 q 619 703 609 714 q 629 678 629 692 q 614 649 629 662 q 479 535 547 593 q 343 422 411 478 q 404 325 369 370 q 480 239 438 279 q 569 162 522 199 q 667 92 616 125 q 678 78 673 88 q 683 60 683 67 l 682 37 q 677 17 682 26 q 664 4 672 9 q 647 -1 656 -1 q 627 4 637 -1 q 408 165 499 73 q 266 357 317 256 l 151 261 z "},"l":{"ha":180,"x_min":36,"x_max":135,"o":"m 36 926 q 47 952 36 941 q 73 963 58 963 l 98 963 q 124 952 114 963 q 135 926 135 941 l 135 37 q 124 11 135 22 q 98 0 114 0 l 73 0 q 47 11 58 0 q 36 37 36 22 l 36 926 z "},"m":{"ha":1080,"x_min":60,"x_max":966,"o":"m 60 677 q 70 703 60 692 q 97 714 81 714 l 121 714 q 148 703 137 714 q 159 677 159 692 l 159 657 q 166 664 163 661 q 174 671 170 667 l 174 670 q 328 729 239 728 q 524 629 465 728 q 548 657 534 644 q 576 681 561 669 q 724 729 642 728 q 916 649 858 728 q 965 458 966 576 l 965 37 q 955 11 965 22 q 928 0 944 0 l 903 0 q 877 11 888 0 q 866 37 866 22 l 866 458 q 859 533 867 500 q 836 589 851 566 q 794 619 821 610 q 725 629 766 629 q 657 616 686 629 q 608 577 628 604 q 562 443 564 521 l 562 37 q 551 11 562 22 q 525 0 541 0 l 499 0 q 473 11 484 0 q 463 37 463 22 l 463 448 q 435 585 465 530 l 436 585 q 399 617 422 604 q 329 629 374 629 q 261 610 292 628 q 208 566 229 592 l 208 566 q 172 489 185 532 q 159 399 159 446 l 159 37 q 148 11 159 22 q 121 0 137 0 l 97 0 q 70 11 81 0 q 60 37 60 22 l 60 677 z "},"n":{"ha":694,"x_min":50,"x_max":609,"o":"m 50 677 q 60 703 50 692 q 86 714 71 714 l 112 714 q 138 703 127 714 q 149 677 149 692 l 149 654 q 155 660 152 658 q 161 665 158 662 q 165 668 163 667 l 169 672 q 345 729 240 728 q 534 660 462 729 q 590 576 571 625 q 609 461 608 526 l 609 37 q 598 11 609 22 q 572 0 587 0 l 547 0 q 520 11 531 0 q 509 37 509 22 l 509 458 q 498 537 509 505 q 464 589 487 570 q 345 629 416 629 q 261 610 298 628 q 201 565 224 593 q 163 488 177 530 q 149 399 149 446 l 149 37 q 138 11 149 22 q 112 0 127 0 l 86 0 q 60 11 71 0 q 50 37 50 22 l 50 677 z "},"o":{"ha":721,"x_min":16,"x_max":667,"o":"m 16 357 q 37 495 16 431 q 98 613 58 559 q 342 729 182 726 q 586 613 501 726 q 646 495 626 559 q 667 357 667 431 q 586 102 667 211 q 340 -16 502 -12 q 202 16 262 -14 q 98 102 141 45 q 38 220 60 155 q 16 357 16 286 m 115 357 q 176 163 115 244 q 245 105 205 124 q 341 84 286 85 q 509 163 453 87 q 568 357 568 243 q 509 551 568 469 q 342 629 454 626 q 176 551 231 627 q 115 357 115 467 z "},"p":{"ha":746,"x_min":52,"x_max":684,"o":"m 213 553 q 168 465 183 515 q 153 361 153 416 q 173 250 155 299 q 219 165 190 201 q 287 110 248 130 q 375 86 327 90 q 469 107 429 87 q 532 166 509 127 q 585 360 585 252 q 530 553 585 475 q 465 612 504 593 q 374 631 427 631 q 281 612 321 631 q 213 553 241 593 m 374 -14 q 245 8 299 -12 q 153 72 191 27 l 153 -210 q 142 -237 153 -227 q 115 -248 131 -248 l 91 -248 q 64 -237 75 -248 q 54 -210 54 -227 l 54 123 q 53 133 54 127 q 53 146 53 139 l 53 180 q 53 201 53 191 q 52 224 52 212 q 53 301 52 261 q 57 380 54 342 q 66 453 60 419 q 81 511 71 487 l 81 511 q 186 665 113 606 q 272 713 225 696 q 374 731 319 730 q 505 701 447 730 q 603 621 562 672 q 663 504 642 570 q 684 360 684 438 q 665 219 684 283 q 607 102 646 155 q 510 17 568 46 q 374 -14 452 -12 z "},"q":{"ha":746,"x_min":16,"x_max":647,"o":"m 514 666 q 515 665 515 665 q 515 664 515 665 q 532 650 525 656 q 547 635 540 644 l 547 677 q 558 703 547 692 q 585 714 569 714 l 610 714 q 636 703 625 714 q 647 677 647 692 l 647 -183 q 636 -210 647 -199 q 610 -220 625 -220 l 585 -220 q 558 -210 569 -220 q 547 -183 547 -199 l 547 71 q 452 9 509 32 q 326 -16 396 -14 q 193 17 252 -14 q 94 102 135 47 q 36 219 56 153 q 16 358 16 284 q 36 505 16 438 q 97 622 57 571 q 196 700 138 672 q 326 729 254 728 q 514 666 439 728 m 547 359 q 543 411 547 385 q 530 463 538 437 q 511 511 522 488 q 488 553 500 534 q 418 607 459 587 q 326 629 376 627 q 235 608 275 628 q 170 553 196 588 q 130 464 145 514 q 114 358 114 413 q 168 167 114 250 q 325 84 216 88 q 415 106 375 87 q 485 160 456 125 q 529 244 513 195 q 547 359 545 294 z "},"r":{"ha":359,"x_min":43,"x_max":396,"o":"m 142 37 q 132 11 142 22 q 105 0 121 0 l 81 0 q 54 11 64 0 q 43 37 43 22 l 43 677 q 54 703 43 692 q 81 714 64 714 l 105 714 q 132 703 121 714 q 142 677 142 692 l 142 654 q 152 662 147 659 q 162 671 157 665 q 359 729 233 732 q 386 718 375 728 q 396 692 396 707 l 396 667 q 385 640 396 651 q 358 629 374 629 q 262 615 302 631 q 197 567 222 600 q 142 399 142 494 l 142 37 z "},"s":{"ha":643,"x_min":16,"x_max":581,"o":"m 502 450 q 476 461 487 450 q 465 487 465 473 q 422 596 463 566 q 295 629 376 629 q 243 626 265 629 q 205 617 220 623 q 162 586 176 604 q 145 553 147 567 q 140 531 140 534 q 153 481 140 497 q 186 454 165 460 q 255 433 215 444 q 346 409 294 421 q 385 399 365 404 q 422 388 404 394 q 462 374 442 382 q 498 355 481 366 l 498 355 q 559 294 537 332 q 581 199 581 255 q 556 100 580 142 q 489 31 533 58 q 406 -4 450 7 q 312 -16 363 -16 q 16 256 18 -16 q 27 282 16 271 q 54 293 37 293 l 78 293 q 104 282 93 293 q 115 256 115 272 q 165 126 117 170 q 312 84 214 83 q 374 92 345 84 q 433 115 404 99 q 482 199 479 139 q 479 226 482 214 q 472 245 477 237 q 433 276 460 264 q 404 290 420 283 q 370 302 388 296 q 352 307 360 304 q 334 312 343 309 q 322 313 328 313 q 312 315 317 314 q 301 317 307 317 q 291 319 296 317 q 210 341 250 329 q 141 366 170 353 q 67 427 92 385 q 41 531 41 468 q 102 665 41 604 q 183 713 135 694 q 234 725 206 722 q 295 729 262 729 q 490 667 422 730 q 564 488 558 604 q 552 462 562 474 q 526 450 541 450 l 502 450 z "},"t":{"ha":335,"x_min":-35,"x_max":326,"o":"m 182 615 l 182 162 q 193 109 183 115 q 212 101 201 103 q 231 99 220 99 q 276 101 268 99 l 275 101 q 309 96 295 106 q 323 66 323 85 l 323 41 q 312 14 323 25 q 286 3 301 3 q 279 3 282 3 q 270 3 275 3 l 271 3 q 252 1 263 1 q 224 0 240 0 q 130 31 168 0 q 107 61 117 47 q 94 90 98 76 q 83 157 83 120 l 83 615 l 2 615 q -24 626 -14 615 q -35 652 -35 636 l -35 677 q -24 703 -35 692 q 2 714 -14 714 l 83 714 l 83 865 q 89 884 83 873 q 102 899 94 894 l 127 911 q 147 916 137 916 q 164 911 157 916 q 177 898 172 907 q 182 878 182 890 l 182 714 l 290 714 q 316 703 305 714 q 326 677 326 692 l 326 652 q 316 626 326 636 q 290 615 305 615 l 182 615 z "},"u":{"ha":694,"x_min":51,"x_max":652,"o":"m 573 714 q 599 703 589 714 q 610 677 610 692 l 610 246 q 609 221 610 233 q 609 197 609 209 l 609 127 q 609 109 609 113 q 606 104 608 105 l 609 104 q 612 105 610 104 q 615 105 614 105 q 641 95 631 105 q 652 68 652 84 l 652 37 q 641 11 652 22 q 615 0 631 0 q 609 0 612 0 q 604 -1 606 -1 l 595 -1 q 556 2 572 -1 q 531 11 541 4 q 516 28 522 17 q 509 56 511 39 q 501 50 505 53 q 493 43 497 47 q 413 1 458 16 q 315 -16 368 -15 q 212 4 260 -15 q 127 56 164 22 q 71 140 90 91 q 51 252 51 189 l 51 677 q 61 703 51 692 q 87 714 72 714 l 113 714 q 139 703 128 714 q 150 677 150 692 l 150 256 q 197 125 151 163 q 315 84 244 84 q 399 101 363 85 q 459 152 435 117 q 511 315 511 218 l 511 677 q 522 703 511 692 q 548 714 532 714 l 573 714 z "},"v":{"ha":565,"x_min":-41,"x_max":574,"o":"m 30 714 q 50 707 39 714 q 64 692 60 700 l 277 161 q 376 426 326 294 q 475 690 425 557 q 489 706 478 698 q 509 714 499 714 l 536 714 q 554 710 547 714 q 567 699 562 706 q 573 683 572 692 q 571 663 574 673 l 330 23 l 330 24 q 315 7 326 14 q 295 0 304 0 l 263 0 q 244 7 254 0 q 229 22 233 14 l -35 663 q -31 698 -41 682 q -1 714 -20 714 l 30 714 z "},"w":{"ha":951,"x_min":-24,"x_max":928,"o":"m 469 714 q 489 706 479 714 q 504 688 500 698 l 667 183 q 747 435 707 310 q 826 688 787 561 q 841 706 829 698 q 862 714 852 714 l 887 714 q 917 700 907 714 q 923 666 928 685 q 820 346 873 509 q 718 26 768 182 q 704 8 715 16 q 682 0 693 0 l 650 0 q 629 8 640 0 q 614 25 618 16 l 450 534 q 417 435 433 484 q 385 335 401 385 l 385 335 q 334 180 359 257 q 284 26 309 103 q 270 8 281 16 q 248 0 259 0 l 213 0 q 192 8 203 0 q 178 26 181 16 q 78 346 129 184 q -21 666 28 507 q -22 684 -24 675 q -15 700 -20 693 q -2 710 -10 706 q 15 714 5 714 l 39 714 q 61 706 50 714 q 75 688 72 698 q 115 561 96 624 q 154 436 134 498 q 193 311 174 374 q 233 183 212 248 q 314 435 273 310 q 395 688 354 560 q 409 706 398 697 q 430 714 420 714 l 469 714 z "},"x":{"ha":565,"x_min":-42,"x_max":578,"o":"m 458 699 q 472 709 463 705 q 488 714 482 714 l 517 714 q 545 703 534 714 q 555 678 555 692 q 553 666 555 673 q 547 655 550 660 q 438 512 493 584 q 330 369 383 439 q 339 356 334 363 q 349 343 345 349 q 459 202 404 273 q 570 60 515 131 q 578 37 578 50 q 567 11 578 22 q 540 0 557 0 l 509 0 q 492 5 502 0 q 479 14 482 9 l 267 288 q 184 180 229 238 q 98 68 140 123 q 77 41 87 55 q 56 14 66 27 q 42 5 52 9 q 26 0 33 0 l -4 0 q -32 11 -22 0 q -42 36 -42 22 q -40 48 -42 42 q -34 60 -38 55 q 86 214 26 138 q 206 369 145 291 q 160 429 184 399 q 115 490 137 459 q 52 572 83 531 q -10 655 20 614 q -19 679 -19 667 q -8 703 -19 692 q 19 714 2 714 l 52 714 q 68 709 58 714 q 81 699 78 705 l 267 449 l 458 699 z "},"y":{"ha":565,"x_min":-38,"x_max":574,"o":"m 475 691 q 489 707 478 700 q 510 714 500 714 l 536 714 q 554 710 547 714 q 567 699 562 706 q 573 683 572 692 q 571 663 574 673 l 276 -107 q 186 -207 245 -185 q 71 -220 136 -221 q 45 -209 55 -220 q 35 -183 35 -199 l 35 -158 q 45 -132 35 -142 q 72 -121 56 -121 q 77 -122 75 -121 q 82 -122 79 -122 l 92 -122 q 152 -113 132 -122 q 170 -94 161 -107 q 187 -62 179 -81 q 198 -32 193 -47 q 210 -3 204 -18 q 219 19 215 9 q 227 43 222 30 q 162 196 195 120 q 97 351 130 273 q 31 506 64 429 q -35 662 -1 584 q -37 681 -38 671 q -31 697 -35 690 q -18 709 -26 705 q -1 714 -10 714 l 26 714 q 46 707 36 714 q 60 692 56 700 l 279 171 l 475 691 z "},"z":{"ha":565,"x_min":-16,"x_max":551,"o":"m 515 99 q 541 89 530 99 q 551 62 551 78 l 551 37 q 541 11 551 22 q 515 0 530 0 l 20 0 q -6 11 5 0 q -16 37 -16 22 l -16 81 l 394 615 l 54 615 q 28 626 39 615 q 18 652 18 636 l 18 677 q 28 703 18 692 q 54 714 39 714 l 495 714 q 521 703 511 714 q 532 677 532 692 l 532 633 l 121 99 l 515 99 z "},"{":{"ha":463,"x_min":81,"x_max":398,"o":"m 299 -220 q 172 -44 166 -220 l 172 158 q 169 222 172 193 q 157 274 165 251 l 158 274 q 98 342 142 315 q 87 356 92 346 q 81 374 81 366 l 81 398 q 90 420 81 410 q 110 435 98 431 q 128 446 121 438 q 140 463 134 453 q 151 483 146 473 q 166 540 161 509 q 172 606 172 571 l 172 810 q 299 983 166 984 l 361 983 q 388 973 377 983 q 398 947 398 962 l 398 922 q 388 896 398 906 q 361 885 377 885 l 302 885 q 291 883 296 885 q 282 877 286 880 q 273 843 277 865 q 270 789 270 820 l 270 585 q 248 455 270 522 q 233 422 241 437 q 218 397 225 408 q 212 388 212 389 q 207 381 210 384 q 227 355 218 370 q 244 321 236 340 q 270 178 270 258 l 270 -22 q 274 -79 270 -57 q 283 -113 277 -102 q 300 -121 288 -123 l 361 -121 q 388 -132 377 -121 q 398 -158 398 -142 l 398 -183 q 388 -210 398 -199 q 361 -220 377 -220 l 299 -220 z "},"|":{"ha":309,"x_min":96,"x_max":196,"o":"m 134 -267 q 107 -256 118 -267 q 96 -229 96 -245 l 96 1016 q 107 1042 96 1031 q 134 1053 118 1053 l 159 1053 q 185 1042 174 1053 q 196 1016 196 1031 l 196 -229 q 185 -256 196 -245 q 159 -267 174 -267 l 134 -267 z "},"}":{"ha":463,"x_min":40,"x_max":357,"o":"m 139 983 q 245 929 211 983 q 267 809 267 888 l 267 606 q 283 490 266 536 q 339 422 296 450 q 351 408 345 417 q 357 391 357 398 l 357 366 q 348 343 357 354 q 327 330 340 332 q 290 282 307 326 q 267 158 267 230 l 267 -47 q 261 -118 267 -87 q 243 -168 255 -149 q 139 -220 212 -220 l 77 -220 q 51 -210 61 -220 q 40 -183 40 -199 l 40 -158 q 51 -132 40 -142 q 77 -121 61 -121 l 136 -121 q 150 -118 144 -121 q 158 -111 155 -115 q 168 -24 168 -87 l 168 178 q 193 312 168 247 q 208 343 199 329 q 225 372 216 358 q 233 382 229 378 q 213 411 223 395 q 195 443 203 427 q 175 510 182 473 q 168 585 168 547 l 168 787 q 164 843 168 820 q 157 877 161 865 q 149 883 154 880 q 136 885 143 886 l 77 885 q 51 896 61 885 q 40 922 40 906 l 40 947 q 51 973 40 962 q 77 983 61 983 l 139 983 z "},"~":{"ha":833,"x_min":77,"x_max":714,"o":"m 682 440 q 708 418 701 435 q 705 385 714 402 q 677 344 694 366 q 645 307 661 323 q 595 273 623 285 q 537 260 568 260 q 465 277 500 260 l 465 277 q 449 283 457 281 q 435 290 441 286 q 418 297 427 293 q 400 304 410 300 q 391 308 396 305 q 382 312 387 310 q 359 323 370 317 q 335 334 347 328 q 263 346 304 345 q 240 342 252 346 q 218 329 228 338 q 196 306 206 319 q 176 274 185 292 q 156 258 170 264 q 132 256 143 253 l 132 256 q 119 260 126 258 q 106 264 112 262 q 83 286 89 269 q 85 317 77 302 q 152 404 113 367 q 263 445 200 445 q 348 431 300 446 q 387 416 368 424 q 425 400 407 408 q 463 384 444 391 q 499 371 481 377 q 538 359 522 359 q 557 364 548 360 q 574 377 567 368 q 596 402 586 389 q 615 430 607 415 q 634 446 621 441 q 658 446 647 450 l 658 447 l 682 440 z "},"":{"ha":772,"x_min":-22,"x_max":763,"o":"m 763 128 q 759 114 763 123 q 751 102 755 105 q 621 11 692 40 q 465 -18 549 -18 q 316 9 383 -18 q 199 83 250 36 q 114 195 148 131 q 65 335 80 260 l 20 335 q -11 350 -1 335 q -14 385 -22 365 l -6 406 l -7 406 q 7 423 -3 415 q 28 431 18 431 l 56 431 l 56 461 q 55 468 56 467 q 56 481 54 469 l 20 481 q -12 496 -1 481 q -14 531 -22 511 l -6 552 l -6 551 q 8 568 -3 560 q 28 576 18 576 l 66 576 q 114 720 80 653 q 199 835 147 786 q 320 911 251 884 q 473 939 389 939 q 609 917 548 939 q 728 849 670 895 q 741 827 738 842 q 738 802 744 813 l 738 803 q 732 793 735 798 q 726 783 729 788 q 712 767 721 772 q 694 762 703 762 q 671 770 682 762 q 622 803 646 789 q 576 825 599 816 q 472 842 532 842 q 359 822 410 842 q 269 766 308 802 q 204 682 231 730 q 167 576 178 633 l 629 576 q 649 571 640 576 q 662 558 657 566 q 667 540 667 550 q 662 520 667 530 l 662 521 q 656 511 659 516 q 650 500 653 506 q 636 487 646 493 q 618 481 626 481 l 155 481 l 155 444 q 154 439 155 441 q 155 431 154 437 l 592 431 q 612 426 603 431 q 625 413 621 421 q 630 395 629 405 q 625 375 630 385 l 625 376 q 619 366 622 371 q 613 355 616 360 q 599 341 609 347 q 581 335 589 335 l 169 335 q 209 234 182 281 q 273 153 235 187 q 360 98 311 118 q 468 78 409 78 q 595 106 536 78 q 698 185 653 134 q 711 196 703 193 q 727 199 720 199 q 752 189 741 199 q 763 161 763 179 l 763 128 z "},"":{"ha":232,"x_min":28,"x_max":158,"o":"m 121 197 q 147 186 136 197 q 157 159 157 175 l 157 37 q 141 -72 158 -27 q 85 -142 123 -116 q 74 -148 80 -146 q 63 -149 68 -149 q 38 -139 49 -149 q 28 -111 28 -128 l 28 -87 q 32 -73 28 -81 q 39 -60 35 -64 q 53 -33 50 -51 q 59 37 59 -9 l 59 159 q 70 186 59 175 q 96 197 80 197 l 121 197 z "},"":{"ha":772,"x_min":-5,"x_max":665,"o":"m 290 -38 q 281 -70 287 -54 q 268 -102 275 -86 q 252 -133 260 -118 q 235 -159 243 -147 q 175 -204 210 -188 q 96 -220 140 -220 q 26 -212 58 -220 q 3 -195 11 -208 q -2 -168 -5 -182 l 4 -142 q 21 -119 7 -127 q 50 -115 35 -110 q 92 -121 71 -121 q 131 -115 114 -121 q 158 -96 148 -109 l 157 -96 q 191 -19 182 -69 l 304 556 q 307 569 305 562 q 309 581 308 575 q 324 660 317 621 q 340 738 332 699 q 349 781 345 760 q 357 824 353 802 q 426 945 376 906 q 558 983 475 984 q 598 982 579 983 q 635 975 617 980 q 656 959 648 972 q 663 932 665 946 q 660 920 661 926 q 658 909 659 914 q 642 884 655 893 q 614 878 629 876 q 586 883 601 882 q 555 885 571 884 q 492 870 515 885 l 490 868 q 455 795 468 850 q 445 743 449 766 q 435 699 440 720 q 427 658 431 677 q 418 611 423 640 l 531 611 q 559 598 549 611 q 568 568 570 585 l 562 543 l 562 543 q 549 521 560 530 q 526 512 538 512 l 398 512 l 290 -38 z "},"":{"ha":386,"x_min":33,"x_max":290,"o":"m 251 197 q 278 186 267 197 q 288 159 288 175 l 288 37 q 216 -142 290 -92 q 194 -149 206 -149 q 169 -139 180 -149 q 159 -111 159 -128 l 159 -87 q 163 -72 159 -81 q 170 -60 167 -63 q 178 -48 175 -55 q 184 -33 182 -41 q 189 37 189 -7 l 189 159 q 200 186 189 175 q 227 197 211 197 l 251 197 m 127 197 q 154 186 143 197 q 165 159 165 175 l 165 37 q 93 -142 165 -90 q 70 -149 83 -149 q 44 -139 56 -149 q 33 -111 33 -128 l 33 -87 q 38 -72 33 -81 q 45 -60 42 -63 q 60 -34 55 -51 q 64 -2 62 -20 q 65 37 65 16 l 65 159 q 76 186 65 175 q 102 197 87 197 l 127 197 z "},"":{"ha":1389,"x_min":195,"x_max":1122,"o":"m 293 37 q 282 11 293 22 q 256 0 272 0 l 231 0 q 205 11 216 0 q 195 37 195 22 l 195 159 q 205 186 195 175 q 231 197 216 197 l 256 197 q 282 186 272 197 q 293 159 293 175 l 293 37 m 707 37 q 696 11 707 22 q 671 0 686 0 l 645 0 q 619 11 629 0 q 608 37 608 22 l 608 159 q 619 186 608 175 q 645 197 629 197 l 671 197 q 696 186 686 197 q 707 159 707 175 l 707 37 m 1122 37 q 1111 11 1122 22 q 1085 0 1101 0 l 1060 0 q 1034 11 1044 0 q 1023 37 1023 22 l 1023 159 q 1034 186 1023 175 q 1060 197 1044 197 l 1085 197 q 1111 186 1101 197 q 1122 159 1122 175 l 1122 37 z "},"":{"ha":772,"x_min":58,"x_max":674,"o":"m 379 963 q 405 952 395 963 q 416 926 416 941 l 416 661 l 637 661 q 664 650 653 661 q 674 624 674 640 l 674 599 q 664 572 674 583 q 637 562 653 562 l 416 562 l 416 -137 q 405 -164 416 -153 q 379 -174 395 -174 l 353 -174 q 327 -164 338 -174 q 316 -137 316 -153 l 316 562 l 95 562 q 68 572 79 562 q 58 599 58 583 l 58 624 q 68 650 58 640 q 95 661 79 661 l 316 661 l 316 926 q 327 952 316 941 q 353 963 338 963 l 379 963 z "},"":{"ha":772,"x_min":58,"x_max":674,"o":"m 95 71 q 68 82 79 71 q 58 109 58 93 l 58 133 q 68 160 58 149 q 95 170 79 170 l 316 170 l 316 619 l 95 619 q 68 630 79 619 q 58 656 58 640 l 58 681 q 68 707 58 696 q 95 718 79 718 l 316 718 l 316 926 q 327 952 316 941 q 353 963 338 963 l 379 963 q 405 952 395 963 q 416 926 416 941 l 416 718 l 637 718 q 664 707 653 718 q 674 681 674 696 l 674 656 q 664 630 674 640 q 637 619 653 619 l 416 619 l 416 170 l 637 170 q 664 160 653 170 q 674 133 674 149 l 674 109 q 664 82 674 93 q 637 71 653 71 l 416 71 l 416 -137 q 405 -164 416 -153 q 379 -174 395 -174 l 353 -174 q 327 -164 338 -174 q 316 -137 316 -153 l 316 71 l 95 71 z "},"":{"ha":180,"x_min":-103,"x_max":275,"o":"m 211 736 q 196 741 205 736 q 183 750 186 745 q 133 809 157 781 q 83 869 109 838 q 62 842 72 855 q 41 815 52 829 q 15 783 28 800 q -11 750 1 766 q -24 741 -14 746 q -41 736 -35 736 l -65 736 q -93 748 -83 736 q -103 772 -103 759 q -94 797 -103 785 l 47 970 q 61 979 52 974 q 76 983 71 983 l 94 983 q 101 982 97 983 q 110 979 105 981 q 118 975 114 977 q 123 970 121 972 l 265 798 q 275 772 275 785 q 264 748 275 759 q 237 736 254 736 l 211 736 z "},"":{"ha":1440,"x_min":26,"x_max":1339,"o":"m 26 683 q 85 863 26 798 l 85 862 q 252 935 146 935 q 352 916 308 935 q 426 862 395 897 q 468 783 454 827 q 482 684 482 738 q 467 590 482 634 q 426 512 452 547 q 351 457 395 477 q 252 436 307 437 q 152 457 195 437 q 79 515 109 477 q 40 592 53 550 q 26 683 26 634 m 125 683 q 158 576 125 619 q 253 535 189 535 q 350 576 317 535 q 375 624 366 597 q 384 683 384 650 q 375 749 384 720 q 351 798 366 778 q 311 825 336 815 q 253 837 286 836 q 157 798 185 836 q 133 748 142 777 q 125 683 125 720 m 434 233 q 450 333 434 287 q 493 412 466 379 q 527 440 508 427 q 568 464 547 454 q 613 479 589 473 q 660 485 636 485 q 761 466 718 484 q 834 411 804 447 q 890 234 890 341 q 876 140 890 183 q 834 62 861 97 q 759 6 804 26 q 660 -16 715 -15 q 560 7 604 -14 q 488 64 517 28 q 449 143 464 100 q 434 233 434 186 m 534 233 q 566 125 534 166 q 660 84 594 85 q 718 95 693 85 q 758 126 742 104 q 783 174 775 147 q 791 233 791 200 q 783 298 791 269 q 760 347 774 327 q 719 376 744 367 q 660 386 694 385 q 603 375 627 385 q 566 347 579 366 q 542 297 550 326 q 534 233 534 269 m 882 233 q 898 333 882 287 q 941 412 913 379 q 1016 463 971 442 q 1108 485 1060 484 q 1210 466 1166 484 q 1282 411 1253 447 q 1339 234 1339 342 q 1324 141 1339 184 q 1282 62 1309 97 q 1207 6 1252 26 q 1108 -16 1163 -15 q 936 64 994 -12 q 882 233 882 136 m 981 233 q 1014 125 981 167 q 1109 84 1044 85 q 1166 95 1142 85 q 1206 126 1190 104 q 1240 233 1240 170 q 1208 348 1240 306 l 1208 347 q 1108 386 1175 385 q 1013 347 1042 384 q 990 297 998 326 q 981 233 981 269 m 709 946 q 724 957 714 951 q 741 963 733 963 l 769 963 q 788 958 780 963 q 801 944 797 952 q 806 926 806 936 q 800 906 806 916 q 653 675 728 793 q 504 440 578 558 q 354 205 429 322 q 208 -26 279 87 q 193 -37 203 -32 q 176 -43 183 -43 l 148 -43 q 128 -37 136 -43 q 115 -24 119 -32 q 111 -5 111 -16 q 117 14 111 5 l 709 946 z "},"":{"ha":848,"x_min":22,"x_max":778,"o":"m 696 660 q 670 670 682 660 q 659 696 659 681 q 637 797 656 755 q 586 864 618 840 q 504 900 551 888 q 399 912 456 913 q 308 902 351 913 q 226 872 265 892 q 172 821 193 854 q 156 785 161 806 q 151 739 151 764 q 155 696 151 715 q 170 665 160 677 q 229 616 193 635 l 228 616 q 271 598 248 606 q 322 585 294 591 q 363 574 342 579 q 406 564 384 569 l 405 564 q 420 559 412 562 q 435 555 427 557 l 435 555 q 500 540 468 548 q 562 525 533 532 q 617 504 589 517 q 669 478 645 492 q 714 443 693 464 q 750 396 734 422 q 771 336 765 370 q 778 262 778 303 q 746 132 777 187 q 657 42 715 77 q 545 -6 605 10 q 418 -22 485 -22 q 262 0 333 -22 q 136 64 191 22 q 54 180 85 109 q 22 342 22 251 q 33 369 22 358 q 60 380 43 380 l 85 380 q 112 369 101 380 q 123 342 123 357 q 201 142 125 198 q 296 95 242 111 q 418 79 349 79 q 513 92 467 79 q 601 127 560 105 q 655 183 636 149 q 676 264 675 217 q 654 353 676 321 q 628 381 643 368 q 591 404 612 394 q 546 422 570 414 q 496 436 522 431 q 441 450 468 444 q 387 461 415 456 q 372 464 379 463 q 359 467 366 466 q 329 474 343 471 q 300 482 315 478 q 287 486 293 484 q 274 490 280 488 q 166 532 214 505 q 118 567 139 547 q 83 611 98 586 l 83 610 q 49 739 49 661 q 58 814 49 781 q 83 873 66 848 l 83 873 q 170 959 115 925 q 282 1003 222 990 q 340 1011 311 1008 q 399 1014 369 1014 q 648 945 550 1015 q 727 845 699 907 q 760 700 755 783 q 749 672 760 684 q 722 660 738 660 l 696 660 m 285 1270 q 301 1266 290 1270 q 315 1257 311 1261 l 417 1135 q 429 1149 422 1142 q 441 1164 435 1157 q 478 1210 459 1186 q 515 1256 497 1234 q 528 1265 518 1261 q 545 1270 538 1270 l 570 1270 q 598 1259 588 1270 q 609 1234 609 1249 q 600 1209 609 1220 l 454 1030 l 454 1031 q 449 1025 453 1028 q 441 1021 446 1023 q 432 1017 436 1019 q 425 1016 427 1016 l 406 1016 q 389 1020 399 1016 q 376 1029 379 1025 l 229 1208 q 220 1233 220 1221 q 231 1259 220 1248 q 260 1270 242 1270 l 285 1270 z "},"":{"ha":359,"x_min":54,"x_max":256,"o":"m 54 348 l 54 392 l 189 576 q 203 587 195 583 q 219 591 212 591 q 244 581 233 591 q 256 553 256 571 l 256 498 l 161 371 q 191 329 176 350 q 222 288 207 308 q 239 265 231 276 q 256 243 248 254 l 256 188 q 244 160 256 170 q 219 150 233 150 q 203 154 212 150 q 189 165 195 159 l 54 348 z "},"":{"ha":1415,"x_min":31,"x_max":1337,"o":"m 1238 566 q 1265 555 1254 566 q 1276 528 1276 544 l 1276 502 q 1265 475 1276 486 q 1238 465 1254 465 l 807 465 l 807 102 l 1299 102 q 1326 91 1315 102 q 1337 64 1337 79 l 1337 38 q 1326 11 1337 22 q 1299 0 1315 0 l 743 0 q 716 11 726 0 q 705 38 705 22 l 705 43 q 602 -6 656 10 q 490 -22 548 -23 q 293 19 379 -20 q 148 134 208 59 q 61 297 91 207 q 31 491 31 388 q 60 687 31 595 q 146 854 90 778 q 292 970 205 928 q 490 1014 378 1012 q 705 952 612 1015 l 705 954 q 716 980 705 969 q 743 991 726 991 l 1299 991 q 1326 980 1315 991 q 1337 954 1337 969 l 1337 928 q 1326 901 1337 912 q 1299 890 1315 890 l 807 890 l 807 566 l 1238 566 m 705 822 q 607 890 661 867 q 491 912 553 913 q 233 800 326 911 q 132 491 136 685 q 159 325 134 398 q 231 194 184 251 q 342 108 277 136 q 491 79 406 80 q 547 87 515 79 q 578 95 564 90 q 607 106 593 100 q 658 133 633 116 q 705 173 682 149 l 705 822 z "},"":{"ha":232,"x_min":60,"x_max":191,"o":"m 98 608 q 71 619 82 608 q 60 646 60 630 l 60 793 q 65 855 60 827 q 77 900 69 882 q 101 934 85 918 q 138 959 117 949 q 157 961 147 962 q 174 955 166 960 q 186 943 181 950 q 191 926 191 935 l 191 901 q 185 884 191 894 q 174 869 180 873 q 163 843 168 863 q 159 793 159 824 l 159 646 q 149 619 159 630 q 122 608 138 608 l 98 608 z "},"":{"ha":232,"x_min":29,"x_max":159,"o":"m 122 963 q 148 952 138 963 q 159 926 159 941 l 159 779 q 155 717 159 743 q 144 674 152 691 q 82 612 127 634 q 63 609 73 608 q 46 614 54 609 q 34 627 39 618 q 29 646 29 635 l 29 670 q 35 688 29 677 q 48 703 41 699 q 56 717 53 705 l 56 716 q 59 744 58 728 q 60 779 60 760 l 60 926 q 71 952 60 941 q 98 963 82 963 l 122 963 z "},"":{"ha":386,"x_min":77,"x_max":332,"o":"m 115 608 q 88 619 98 608 q 77 646 77 630 l 77 793 q 82 857 77 829 q 94 903 86 884 q 118 935 103 921 q 155 959 133 949 q 175 963 165 964 q 191 958 184 962 q 203 944 199 953 q 208 926 208 936 l 208 901 q 202 884 208 894 q 191 869 196 873 q 180 843 184 863 q 176 793 176 824 l 176 646 q 165 619 176 630 q 139 608 155 608 l 115 608 m 239 608 q 213 619 223 608 q 202 646 202 630 l 202 793 q 218 900 202 866 q 279 959 237 939 q 299 963 290 964 q 316 958 309 962 q 328 944 323 953 q 332 926 332 936 l 332 901 q 327 883 332 893 q 315 869 321 873 l 315 870 q 300 793 300 861 l 300 646 q 290 619 300 630 q 264 608 279 608 l 239 608 z "},"":{"ha":386,"x_min":33,"x_max":288,"o":"m 251 963 q 278 952 267 963 q 288 926 288 941 l 288 779 q 274 674 288 711 q 212 613 256 635 q 193 608 202 608 q 175 612 183 608 q 163 626 168 617 q 159 646 159 634 l 159 670 q 164 688 159 677 q 175 702 170 698 q 185 715 182 705 q 188 743 186 727 q 189 779 189 760 l 189 926 q 200 952 189 941 q 227 963 211 963 l 251 963 m 127 963 q 154 952 143 963 q 165 926 165 941 l 165 779 q 150 674 165 709 q 125 639 140 655 q 87 612 110 623 q 67 609 77 608 q 50 614 58 609 q 38 627 43 618 q 33 646 33 635 l 33 670 q 40 688 33 677 q 53 703 46 699 q 62 717 58 706 l 61 716 q 64 744 62 728 q 65 779 65 760 l 65 926 q 76 952 65 941 q 102 963 86 963 l 127 963 z "},"":{"ha":694,"x_min":71,"x_max":589,"o":"m 71 481 q 92 583 71 536 q 148 666 112 630 q 230 720 184 701 q 329 740 275 739 q 513 665 441 739 q 589 481 587 591 q 513 299 587 373 q 329 222 440 222 q 229 242 274 222 q 147 299 183 262 q 90 381 109 336 q 71 481 71 426 z "},"":{"ha":694,"x_min":-19,"x_max":677,"o":"m -19 382 q -8 409 -19 399 q 18 420 2 420 l 640 420 q 667 409 656 420 q 677 382 677 399 l 677 358 q 667 332 677 342 q 640 321 656 321 l 18 321 q -8 332 2 321 q -19 358 -19 342 l -19 382 z "},"":{"ha":1389,"x_min":161,"x_max":1156,"o":"m 1156 358 q 1145 332 1156 342 q 1119 321 1134 321 l 197 321 q 171 332 182 321 q 161 358 161 342 l 161 382 q 171 409 161 399 q 197 420 182 420 l 1119 420 q 1145 409 1134 420 q 1156 382 1156 399 l 1156 358 z "},"":{"ha":180,"x_min":-117,"x_max":286,"o":"m -79 749 q -105 761 -94 749 q -116 787 -117 772 q -81 876 -115 837 q 5 922 -45 920 q 64 907 34 922 q 90 894 81 899 q 106 883 99 888 l 108 882 q 127 869 119 875 q 145 859 136 864 q 157 851 153 853 q 164 850 161 850 q 180 857 175 850 q 188 880 188 867 q 198 907 188 897 q 224 918 209 918 l 250 918 q 276 907 265 918 q 286 880 286 897 q 259 793 286 834 q 164 751 224 751 q 102 768 132 751 q 82 780 93 773 q 60 795 71 787 q 56 798 58 796 q 53 800 54 799 q 41 809 46 805 q 28 818 36 813 q 7 823 20 822 q -7 814 -1 821 q -16 787 -16 801 q -27 760 -16 771 q -54 749 -38 749 l -79 749 z "},"":{"ha":1375,"x_min":100,"x_max":1177,"o":"m 286 864 l 136 864 q 110 874 121 864 q 100 901 100 885 l 100 926 q 110 952 100 941 q 136 963 121 963 l 535 963 q 561 952 551 963 q 572 926 572 941 l 572 901 q 561 874 572 885 q 535 864 551 864 l 385 864 l 385 412 q 375 386 385 397 q 348 375 364 375 l 323 375 q 297 386 308 375 q 286 412 286 397 l 286 864 m 615 926 q 626 952 615 941 q 652 963 636 963 l 694 963 q 714 956 703 963 q 728 940 725 949 q 812 741 771 838 q 896 543 853 644 q 925 612 910 578 q 954 681 940 646 q 1009 810 982 746 q 1063 940 1036 874 q 1078 956 1067 949 q 1097 963 1088 963 l 1139 963 q 1166 952 1156 963 q 1177 926 1177 941 l 1177 412 q 1166 386 1177 397 q 1139 375 1156 375 l 1116 375 q 1089 386 1099 375 q 1078 412 1078 397 l 1078 724 q 1010 561 1044 642 q 943 399 976 481 q 928 382 939 390 q 909 375 918 375 l 884 375 q 864 382 874 375 q 850 399 854 390 q 782 560 815 482 q 714 722 749 637 l 714 412 q 703 386 714 397 q 677 375 692 375 l 652 375 q 626 386 636 375 q 615 412 615 397 l 615 926 z "},"":{"ha":643,"x_min":16,"x_max":581,"o":"m 502 450 q 476 461 487 450 q 465 487 465 473 q 422 596 463 566 q 295 629 376 629 q 243 626 265 629 q 205 617 220 623 q 162 586 176 604 q 145 553 147 567 q 140 531 140 534 q 153 481 140 497 q 186 454 165 460 q 255 433 215 444 q 346 409 294 421 q 385 399 365 404 q 422 388 404 394 q 462 374 442 382 q 498 355 481 366 l 498 355 q 559 294 537 332 q 581 199 581 255 q 556 100 580 142 q 489 31 533 58 q 406 -4 450 7 q 312 -16 363 -16 q 16 256 18 -16 q 27 282 16 271 q 54 293 37 293 l 78 293 q 104 282 93 293 q 115 256 115 272 q 165 126 117 170 q 312 84 214 83 q 374 92 345 84 q 433 115 404 99 q 482 199 479 139 q 479 226 482 214 q 472 245 477 237 q 433 276 460 264 q 404 290 420 283 q 370 302 388 296 q 352 307 360 304 q 334 312 343 309 q 322 313 328 313 q 312 315 317 314 q 301 317 307 317 q 291 319 296 317 q 210 341 250 329 q 141 366 170 353 q 67 427 92 385 q 41 531 41 468 q 102 665 41 604 q 183 713 135 694 q 234 725 206 722 q 295 729 262 729 q 490 667 422 730 q 564 488 558 604 q 552 462 562 474 q 526 450 541 450 l 502 450 m 182 983 q 196 979 187 983 q 210 970 205 975 q 259 911 235 940 q 309 852 283 882 q 357 911 333 880 q 404 970 382 941 q 418 979 409 974 q 433 983 428 983 l 458 983 q 486 973 475 983 q 496 948 496 962 q 488 924 496 937 q 417 837 453 882 q 347 750 381 793 q 333 741 343 746 q 317 736 323 736 l 299 736 q 283 741 294 736 q 270 749 273 745 l 127 924 q 119 947 119 935 q 129 972 119 962 q 157 983 139 983 l 182 983 z "},"":{"ha":359,"x_min":85,"x_max":288,"o":"m 288 392 l 288 348 l 151 165 q 137 154 146 158 q 121 150 129 150 q 96 160 108 150 q 85 188 85 170 l 85 243 l 180 371 q 159 399 170 385 q 138 427 149 413 q 111 464 124 445 q 85 498 97 482 l 85 553 q 96 581 85 571 q 121 591 108 591 q 137 587 129 591 q 151 576 146 583 l 288 392 z "},"":{"ha":1236,"x_min":33,"x_max":1134,"o":"m 1034 414 q 987 561 1028 500 q 927 612 964 596 q 838 629 890 629 q 686 564 729 628 l 686 564 q 654 497 667 536 q 636 414 641 458 l 1034 414 m 535 357 q 523 463 535 413 q 489 553 511 513 q 334 629 445 626 q 184 553 226 626 q 134 357 133 469 q 147 254 133 305 q 183 165 161 203 l 182 165 q 210 132 194 148 q 244 106 226 117 q 334 84 279 84 q 428 107 387 85 q 491 161 468 128 l 490 161 q 524 249 513 199 q 535 357 536 298 m 635 315 q 695 146 642 203 q 837 84 748 90 q 915 97 880 85 q 969 133 950 109 q 1007 190 992 159 q 1027 258 1022 221 q 1040 280 1029 271 q 1063 290 1051 290 l 1089 290 q 1117 277 1107 290 q 1125 246 1127 264 q 1093 142 1116 189 q 1035 61 1070 95 q 836 -16 959 -15 q 584 121 652 -13 q 487 21 548 54 q 334 -16 425 -12 q 101 108 174 -12 l 102 108 q 35 356 33 215 q 51 488 33 424 q 99 606 68 552 q 194 696 135 664 q 334 729 254 728 q 442 710 393 728 q 528 659 492 691 q 559 625 545 643 q 585 587 573 606 q 635 655 604 623 q 836 729 706 724 q 972 699 915 728 q 1066 617 1029 671 q 1134 371 1134 515 l 1134 352 q 1123 326 1134 336 q 1097 315 1113 315 l 635 315 z "},"":{"ha":747,"x_min":-62,"x_max":781,"o":"m 681 975 l 680 975 q 694 986 684 981 q 711 991 704 991 l 743 991 q 771 980 760 991 q 781 955 781 969 q 780 943 781 949 q 774 931 778 937 l 410 412 l 410 38 q 399 11 410 22 q 372 0 388 0 l 347 0 q 319 11 330 0 q 308 38 308 22 l 308 412 q 126 672 217 543 q -55 931 36 801 q -62 955 -62 943 q -52 980 -62 969 q -24 991 -41 991 l 7 991 q 25 986 15 991 q 39 975 35 981 l 359 517 l 681 975 m 254 985 q 227 996 238 985 q 216 1023 216 1007 l 216 1126 q 227 1154 216 1143 q 254 1165 238 1165 l 279 1165 q 307 1154 296 1165 q 317 1126 317 1143 l 317 1023 q 307 996 317 1007 q 279 985 296 985 l 254 985 m 454 985 q 427 996 437 985 q 416 1023 416 1007 l 416 1126 q 427 1154 416 1143 q 454 1165 437 1165 l 479 1165 q 507 1154 496 1165 q 517 1126 517 1143 l 517 1023 q 507 996 517 1007 q 479 985 496 985 l 454 985 z "},"":{"ha":386,"x_min":0,"x_max":0,"o":""},"":{"ha":257,"x_min":73,"x_max":172,"o":"m 135 749 q 161 738 151 749 q 172 711 172 727 l 172 589 q 161 563 172 574 q 135 553 151 553 l 110 553 q 84 563 94 553 q 73 589 73 574 l 73 711 q 84 738 73 727 q 110 749 94 749 l 135 749 m 135 522 q 161 511 151 522 q 172 485 172 500 l 172 -183 q 161 -210 172 -199 q 135 -220 151 -220 l 110 -220 q 84 -210 94 -220 q 73 -183 73 -199 l 73 485 q 84 511 73 500 q 110 522 94 522 l 135 522 z "},"":{"ha":772,"x_min":57,"x_max":677,"o":"m 321 623 q 208 547 248 606 q 169 458 183 506 q 155 358 155 411 q 208 168 155 251 q 321 90 246 108 l 321 623 m 420 86 q 473 102 449 90 q 518 134 497 114 q 576 259 567 182 q 589 282 578 273 q 614 292 600 292 l 638 292 q 667 279 656 292 q 675 248 677 266 q 590 68 654 136 q 420 -12 526 1 l 420 -114 q 409 -140 420 -130 q 383 -151 399 -151 l 358 -151 q 332 -140 342 -151 q 321 -114 321 -130 l 321 -12 q 211 28 256 -2 q 130 109 165 58 q 76 225 96 161 q 57 358 57 288 q 130 606 57 496 q 321 724 197 704 l 321 800 q 332 826 321 816 q 358 837 342 837 l 383 837 q 409 826 399 837 q 420 800 420 816 l 420 726 q 573 667 507 718 q 637 590 614 635 q 669 487 661 545 q 660 458 671 471 q 632 446 650 446 l 608 446 q 585 455 595 446 q 571 477 574 464 q 511 589 557 555 q 420 626 473 618 l 420 86 z "},"":{"ha":772,"x_min":33,"x_max":734,"o":"m 389 528 q 415 517 405 528 q 426 491 426 507 l 426 467 q 415 440 426 451 q 389 430 405 430 l 258 430 q 275 365 270 397 q 278 297 279 332 q 266 215 277 254 q 237 140 256 176 l 247 140 q 321 128 281 140 l 334 125 q 357 118 345 121 q 384 107 368 114 q 490 78 442 79 q 571 100 538 78 q 612 131 591 113 q 654 170 632 148 q 680 181 665 181 q 707 170 694 181 l 722 153 q 731 140 728 147 q 734 125 734 132 q 731 113 734 119 q 725 102 728 106 q 668 45 696 69 q 612 7 639 22 q 490 -21 556 -21 q 454 -18 473 -21 q 418 -10 435 -16 q 384 2 403 -5 q 350 14 366 8 q 296 33 322 27 q 247 41 271 39 q 178 28 211 41 q 117 -12 146 16 q 92 -21 105 -21 q 77 -18 84 -21 q 64 -9 69 -16 l 65 -9 q 54 3 60 -3 q 42 16 47 9 q 33 40 33 26 q 45 69 33 57 q 142 178 105 117 l 142 178 q 169 236 159 207 q 179 297 178 266 q 172 369 178 336 q 153 430 166 401 l 81 430 q 55 440 66 430 q 44 467 44 451 l 44 491 q 55 517 44 507 q 81 528 66 528 l 103 528 q 90 555 96 542 q 76 583 83 569 l 76 582 q 49 648 58 614 q 39 715 40 682 q 143 922 42 853 q 358 983 235 983 q 609 889 519 983 q 666 797 648 848 q 684 682 684 745 q 683 655 684 668 q 681 630 682 642 q 669 607 680 617 q 644 597 659 597 l 619 597 q 593 610 604 597 q 583 638 583 623 q 584 655 584 648 q 584 671 584 663 q 532 823 584 769 q 358 885 471 885 q 201 843 272 885 l 201 844 q 155 792 170 824 q 139 715 140 760 q 146 667 140 692 q 168 619 153 643 q 187 582 179 597 q 204 550 195 566 q 210 540 208 544 q 215 528 212 536 l 389 528 z "},"":{"ha":772,"x_min":20,"x_max":711,"o":"m 620 784 q 646 795 631 795 q 659 792 652 795 q 671 784 666 789 l 690 766 q 698 754 695 761 q 701 740 701 747 q 698 727 701 734 q 690 714 695 720 l 642 667 q 711 460 711 577 q 694 351 711 401 q 642 254 677 301 l 690 207 q 701 180 701 196 q 690 155 701 165 l 671 137 q 659 129 666 132 q 646 125 652 125 q 632 129 639 125 q 620 137 625 132 l 572 184 q 475 133 526 150 q 366 115 425 116 q 257 131 308 115 q 159 184 206 148 q 136 160 147 172 q 113 137 124 149 q 87 125 102 125 q 60 137 71 125 l 43 155 q 31 180 31 165 q 43 207 31 195 l 90 254 q 37 352 54 301 q 20 460 20 402 q 90 667 22 575 q 79 678 85 673 q 68 689 73 684 q 55 701 62 694 q 43 714 49 708 q 34 727 37 720 q 31 740 31 734 q 35 753 31 746 q 43 766 38 761 q 51 775 46 770 q 60 784 56 780 q 72 792 65 789 q 87 795 79 795 q 113 784 102 795 l 160 736 q 257 789 207 772 q 366 806 307 806 q 573 736 483 806 l 620 784 m 612 460 q 595 556 612 513 q 542 636 578 600 q 462 689 505 673 q 366 707 418 706 q 193 635 260 705 q 119 460 120 566 q 193 288 119 356 q 366 213 261 214 q 541 288 471 214 q 612 460 611 356 z "},"":{"ha":772,"x_min":8,"x_max":725,"o":"m 414 327 l 560 327 q 586 316 576 327 q 597 290 597 306 l 597 265 q 586 239 597 250 q 560 228 576 228 l 414 228 l 414 37 q 404 11 414 22 q 378 0 393 0 l 352 0 q 326 11 336 0 q 315 37 315 22 l 315 228 l 169 228 q 143 239 153 228 q 132 265 132 250 l 132 290 q 143 316 132 306 q 169 327 153 327 l 315 327 l 315 380 l 169 380 q 143 390 153 380 q 132 416 132 401 l 132 442 q 143 468 132 457 q 169 479 153 479 l 275 479 q 144 693 209 587 q 14 907 79 799 q 8 927 8 917 q 13 945 8 937 q 26 958 18 953 q 46 963 35 963 l 73 963 q 91 957 81 963 q 105 945 101 951 q 235 732 170 838 q 366 519 300 626 q 459 671 412 596 q 552 823 505 746 q 589 884 570 852 q 627 945 608 916 q 642 957 631 951 q 659 963 652 963 l 686 963 q 707 958 698 963 q 720 945 715 953 q 725 927 725 937 q 718 907 724 917 l 457 479 l 560 479 q 586 468 576 479 q 597 442 597 457 l 597 416 q 586 390 597 401 q 560 380 576 380 l 414 380 l 414 327 z "},"":{"ha":309,"x_min":96,"x_max":196,"o":"m 196 -74 q 185 -100 196 -90 q 159 -111 174 -111 l 134 -111 q 107 -100 118 -111 q 96 -74 96 -90 l 96 237 q 107 264 96 254 q 134 275 118 275 l 159 275 q 185 264 174 275 q 196 237 196 254 l 196 -74 m 159 897 q 185 886 174 897 q 196 860 196 876 l 196 549 q 185 523 196 533 q 159 512 174 512 l 134 512 q 107 523 118 512 q 96 549 96 533 l 96 860 q 107 886 96 876 q 134 897 118 897 l 159 897 z "},"":{"ha":772,"x_min":53,"x_max":678,"o":"m 545 680 q 519 690 530 680 q 508 716 509 701 q 354 885 504 882 q 331 884 342 885 q 309 880 320 882 q 286 872 298 877 q 263 862 274 868 q 246 848 254 856 q 233 830 239 840 q 222 781 222 811 q 238 726 224 746 q 256 704 246 715 q 277 686 266 694 q 317 662 296 674 q 354 640 338 649 q 399 615 376 628 q 446 586 423 602 l 445 586 q 630 441 583 498 q 669 370 657 405 q 676 330 673 349 q 678 291 678 311 q 659 212 678 247 q 613 153 642 180 q 559 110 585 125 q 593 58 581 85 q 607 -13 607 20 q 607 -25 607 -20 q 606 -35 606 -31 q 580 -122 601 -83 q 524 -187 559 -161 q 450 -223 490 -211 q 365 -235 410 -235 q 111 43 113 -233 q 122 70 111 59 q 148 80 132 80 l 173 80 q 199 70 189 80 q 210 43 210 59 q 247 -89 210 -41 q 366 -136 282 -132 q 475 -100 441 -132 q 498 -63 490 -81 q 507 -32 507 -46 q 504 5 507 -12 q 495 35 500 22 l 495 34 q 468 63 488 45 q 423 98 447 81 q 333 157 382 125 q 232 222 283 189 q 218 230 225 227 q 204 239 212 234 q 82 357 113 301 q 54 473 53 412 q 68 543 55 510 q 106 604 81 576 q 135 633 119 619 q 165 657 150 647 q 157 668 161 663 q 150 680 153 674 q 130 726 137 701 q 123 781 123 751 q 152 887 123 844 q 218 949 179 928 q 291 976 256 968 q 357 983 326 984 q 541 910 471 983 q 607 717 606 836 q 596 690 607 701 q 570 680 586 680 l 545 680 m 579 292 q 573 340 579 318 l 574 340 q 564 358 570 348 q 549 379 558 368 q 488 436 527 406 q 391 503 449 467 l 391 502 l 349 526 q 321 543 334 535 q 296 558 309 551 q 272 572 284 565 q 245 587 260 579 q 243 587 244 587 q 241 586 243 587 l 242 586 q 237 583 239 585 q 231 580 234 581 q 195 555 211 570 q 179 538 186 547 q 165 517 172 528 l 165 517 q 156 492 159 506 q 153 463 153 479 q 154 451 153 457 q 156 439 155 446 q 161 425 157 433 q 168 409 164 416 q 197 374 178 391 q 225 348 209 361 q 260 321 241 334 l 259 322 q 320 284 292 302 q 376 249 349 266 q 428 215 402 231 q 479 180 453 198 q 539 217 507 191 q 556 233 549 224 q 568 251 564 241 q 576 271 574 261 q 579 292 579 281 z "},"":{"ha":180,"x_min":-61,"x_max":232,"o":"m -24 734 q -51 745 -40 734 q -61 771 -61 755 l -61 872 q -51 899 -61 888 q -24 909 -40 909 l 1 909 q 27 899 17 909 q 38 872 38 888 l 38 771 q 27 745 38 755 q 1 734 17 734 l -24 734 m 170 734 q 143 745 154 734 q 133 771 133 755 l 133 872 q 143 899 133 888 q 170 909 154 909 l 195 909 q 221 899 211 909 q 232 872 232 888 l 232 771 q 221 745 232 755 q 195 734 211 734 l 170 734 z "},"":{"ha":1111,"x_min":24,"x_max":1029,"o":"m 742 532 q 718 542 728 532 q 705 564 707 551 q 686 621 700 595 q 649 663 671 647 q 536 696 600 696 q 384 635 437 695 q 328 475 328 573 q 386 313 328 377 q 452 264 414 280 q 540 248 490 249 q 643 285 598 248 q 705 389 688 320 q 720 409 709 401 q 742 417 730 417 l 766 417 q 796 404 785 417 q 803 373 806 391 q 769 283 791 322 q 712 214 746 243 l 712 214 q 540 150 642 150 q 412 175 469 151 q 313 246 355 199 q 251 348 273 291 q 229 474 230 404 q 251 601 229 542 q 311 703 272 659 q 408 771 352 748 q 536 795 465 795 q 712 740 637 795 q 771 670 749 711 q 803 575 794 628 q 794 546 805 559 q 766 532 783 532 l 742 532 m 24 482 q 172 839 27 698 q 526 983 315 981 q 884 839 739 981 q 991 678 954 766 q 1029 481 1028 589 q 989 287 1028 376 q 884 126 951 197 q 723 18 812 56 q 526 -21 633 -20 q 172 126 316 -18 q 62 286 100 198 q 24 481 25 374 l 24 482 m 241 768 q 153 638 182 709 q 123 481 124 567 q 153 325 124 395 q 241 197 182 254 q 370 109 299 138 q 526 78 440 79 q 683 108 612 79 q 812 197 754 137 q 900 324 871 254 q 930 481 928 395 q 900 640 928 568 q 813 768 871 711 q 526 885 700 882 q 241 768 355 882 z "},"":{"ha":416,"x_min":-26,"x_max":421,"o":"m 344 701 q 321 680 334 689 q 288 667 307 671 q 280 673 280 665 l 280 724 q 284 731 280 730 q 292 729 288 732 l 318 702 q 327 706 323 704 q 336 711 332 709 l 344 701 m 280 664 q 270 663 275 663 q 260 662 264 663 q 215 659 239 661 q 166 655 191 656 q 90 638 119 652 q 73 599 73 630 q 77 582 73 589 q 90 570 81 574 q 150 556 117 556 q 249 589 215 556 q 280 664 280 621 m 368 562 q 367 563 368 563 q 367 564 367 563 q 371 556 372 562 q 366 551 371 551 q 363 551 365 551 q 359 553 361 551 l 368 562 m 99 766 q 87 743 97 753 q 163 753 123 752 q 219 756 193 754 q 264 760 245 758 q 280 773 279 762 q 197 837 279 837 q 99 766 106 833 m 421 503 q 411 477 421 488 q 385 466 401 466 q 357 466 371 465 q 330 473 344 467 l 331 472 q 292 494 304 476 q 231 467 267 476 q 150 457 195 457 q 90 464 117 457 q 61 474 77 467 q 35 488 46 481 l 35 488 q -26 598 -25 522 q -22 642 -26 622 q -8 678 -18 663 q 42 726 11 709 q 49 729 45 727 q 56 732 52 730 l 37 732 q 11 745 21 732 q 0 772 1 758 q 57 892 9 850 q 195 935 106 934 q 319 906 268 935 q 379 788 374 871 l 379 564 q 408 555 395 565 q 421 528 421 545 l 421 503 z "},"":{"ha":489,"x_min":56,"x_max":376,"o":"m 56 348 l 56 392 l 193 576 q 207 587 198 583 q 222 591 215 591 q 248 581 236 591 q 259 553 259 571 l 259 498 l 164 371 q 193 332 178 353 q 222 293 209 311 q 241 267 231 280 q 259 243 250 254 l 259 188 q 248 160 259 170 q 222 150 236 150 q 207 154 215 150 q 193 165 198 159 l 56 348 m 173 348 l 173 392 l 308 576 q 322 587 314 583 q 339 591 331 591 q 364 581 353 591 q 376 553 376 571 l 376 498 l 280 371 q 305 337 293 353 q 331 304 317 321 q 354 273 342 288 q 376 243 365 257 l 376 188 q 364 160 376 170 q 339 150 353 150 q 322 154 330 150 q 308 165 314 157 l 173 348 z "},"":{"ha":833,"x_min":43,"x_max":745,"o":"m 646 423 l 81 423 q 55 434 66 423 q 43 460 43 444 l 43 485 q 55 511 43 500 q 81 522 66 522 l 709 522 q 735 511 724 522 q 745 485 745 500 l 745 153 q 735 126 745 137 q 709 116 724 116 l 683 116 q 657 126 667 116 q 646 153 646 137 l 646 423 z "},"":{"ha":463,"x_min":73,"x_max":365,"o":"m 73 382 q 84 409 73 399 q 111 420 95 420 l 328 420 q 354 409 344 420 q 365 382 365 399 l 365 358 q 354 332 365 342 q 328 321 344 321 l 111 321 q 84 332 95 321 q 73 358 73 342 l 73 382 z "},"":{"ha":1111,"x_min":24,"x_max":1029,"o":"m 332 740 q 343 767 332 756 q 370 777 354 777 l 545 777 q 759 595 760 774 q 744 522 758 554 q 705 467 730 489 q 675 447 690 455 q 643 432 660 438 q 711 328 677 380 q 778 224 745 276 q 784 205 783 215 q 780 186 784 195 q 767 173 775 178 q 747 168 759 168 l 715 168 q 699 173 708 168 q 684 184 689 178 l 536 416 l 431 416 l 431 205 q 421 178 431 189 q 394 168 410 168 l 370 168 q 343 178 354 168 q 332 205 332 189 l 332 740 m 524 515 q 551 516 537 515 q 576 519 564 517 q 582 520 579 519 q 587 521 585 520 q 595 522 591 522 q 602 524 599 523 q 606 525 604 525 q 610 527 608 526 q 618 529 614 528 q 623 532 622 530 q 638 541 631 535 q 650 553 646 547 q 657 571 655 561 q 660 595 660 582 q 653 639 660 626 q 643 652 648 646 q 633 661 638 657 q 592 674 614 670 q 543 678 570 679 l 431 678 l 431 515 l 524 515 m 24 482 q 172 839 27 698 q 526 983 315 981 q 884 839 739 981 q 991 678 954 766 q 1029 481 1028 589 q 989 287 1028 376 q 884 126 951 197 q 723 18 812 56 q 526 -21 633 -20 q 172 126 316 -18 q 62 286 100 198 q 24 481 25 374 l 24 482 m 241 768 q 153 638 182 709 q 123 481 124 567 q 153 325 124 395 q 241 197 182 254 q 370 109 299 138 q 526 78 440 79 q 683 108 612 79 q 812 197 754 137 q 900 324 871 254 q 930 481 928 395 q 900 640 928 568 q 813 768 871 711 q 526 885 700 882 q 241 768 355 882 z "},"":{"ha":180,"x_min":-96,"x_max":267,"o":"m 267 819 q 257 792 267 804 q 231 781 246 781 l -58 781 q -85 792 -75 781 q -96 819 -96 804 l -96 844 q -85 870 -96 859 q -58 880 -75 880 l 231 880 q 257 870 246 880 q 267 844 267 859 l 267 819 z "},"":{"ha":555,"x_min":48,"x_max":478,"o":"m 379 721 q 348 803 379 768 q 264 837 316 835 q 184 802 217 836 q 157 764 165 784 q 148 721 149 744 q 157 674 149 695 q 184 635 165 652 q 264 602 215 603 q 347 636 315 602 q 379 721 378 670 m 478 720 q 462 637 477 675 q 418 568 447 600 q 263 503 357 503 q 111 566 171 504 q 48 720 50 627 q 111 872 50 809 q 263 935 173 935 q 348 919 311 935 q 416 872 386 903 q 462 803 446 841 q 478 721 477 766 l 478 720 z "},"":{"ha":833,"x_min":43,"x_max":745,"o":"m 345 667 q 356 693 345 682 q 382 703 367 703 l 408 703 q 434 693 423 703 q 444 667 444 682 l 444 458 l 709 458 q 735 447 724 458 q 745 420 745 437 l 745 395 q 735 369 745 380 q 709 359 724 359 l 444 359 l 444 149 q 434 122 444 133 q 408 112 423 112 l 382 112 q 356 122 367 112 q 345 149 345 133 l 345 359 l 81 359 q 55 369 66 359 q 43 395 43 380 l 43 420 q 55 447 43 437 q 81 458 66 458 l 345 458 l 345 667 m 43 62 q 55 89 43 78 q 81 99 66 99 l 709 99 q 735 89 724 99 q 745 62 745 78 l 745 37 q 735 11 745 22 q 709 0 724 0 l 81 0 q 55 11 66 0 q 43 37 43 22 l 43 62 z "},"":{"ha":463,"x_min":-3,"x_max":442,"o":"m 406 444 q 432 433 421 444 q 442 407 442 422 l 442 381 q 432 355 442 366 q 406 345 421 345 l 35 345 q 8 355 19 345 q -3 381 -3 366 q 18 465 -3 427 q 39 495 26 479 q 65 524 52 511 q 95 549 79 536 q 127 570 111 561 l 127 570 q 135 575 131 572 q 142 580 138 578 q 146 582 144 581 q 150 585 148 583 l 149 584 q 157 588 153 587 q 163 593 160 590 q 175 601 168 596 q 186 609 181 605 q 245 649 219 629 q 292 690 272 669 q 319 726 310 707 q 329 768 328 745 q 305 818 327 802 l 306 818 q 222 837 276 837 q 106 724 102 834 q 96 696 106 707 q 69 686 85 686 l 44 686 q 18 696 28 686 q 7 724 7 707 q 20 811 7 772 q 58 878 33 849 q 221 935 111 935 q 361 899 303 935 q 427 768 425 858 q 426 741 427 755 q 420 713 424 727 q 390 652 412 680 q 334 596 370 627 q 245 531 298 566 q 138 456 185 494 l 139 456 q 134 451 135 452 q 131 449 132 450 q 129 448 130 448 q 126 444 128 447 l 406 444 z "},"":{"ha":463,"x_min":-14,"x_max":450,"o":"m 41 696 q 15 707 26 696 q 5 732 5 717 q 71 886 5 833 q 230 935 132 935 q 264 934 246 935 q 299 930 281 933 q 334 921 317 927 q 367 907 351 916 q 396 885 382 898 q 419 856 410 871 l 418 856 q 440 774 440 822 q 428 712 440 740 q 393 663 416 684 q 390 660 392 661 q 385 656 387 658 q 390 652 388 654 q 396 648 393 650 q 450 522 448 606 q 429 445 449 481 q 379 383 410 408 q 309 349 348 361 q 227 336 270 336 q 128 351 172 336 q 52 392 84 366 q 2 464 19 422 q -12 556 -14 505 l -12 555 q 0 580 -11 570 q 26 591 12 591 l 50 591 q 77 580 66 591 q 87 553 88 569 q 118 467 84 492 q 226 435 156 435 q 319 461 279 435 q 350 523 350 481 q 342 562 350 548 q 319 587 333 577 l 319 586 q 300 595 309 591 q 281 600 291 599 q 255 604 269 602 q 227 605 242 605 l 197 605 q 171 615 182 605 q 161 642 161 626 l 161 668 q 171 694 161 684 q 197 705 182 705 l 230 705 q 315 724 278 705 q 341 774 340 736 q 340 792 341 785 q 336 806 338 800 q 315 822 327 815 q 275 833 296 829 q 229 837 253 837 q 104 732 105 838 q 93 707 104 718 q 66 696 82 696 l 41 696 z "},"":{"ha":180,"x_min":-20,"x_max":257,"o":"m 220 983 q 247 972 237 983 q 257 947 257 962 q 245 920 257 932 l 64 741 q 51 734 60 738 q 38 731 41 731 l 18 731 q -9 742 1 731 q -20 767 -20 753 q -9 793 -20 780 l 156 972 q 170 980 160 977 q 184 983 179 983 l 220 983 z "},"":{"ha":772,"x_min":86,"x_max":644,"o":"m 644 37 q 634 11 644 22 q 608 0 623 0 l 583 0 q 556 11 567 0 q 546 37 546 22 l 546 59 q 536 51 541 55 q 528 43 532 46 q 350 -16 457 -15 q 217 16 277 -16 l 218 16 q 185 35 201 24 l 185 -183 q 174 -210 185 -199 q 148 -220 163 -220 l 123 -220 q 97 -210 107 -220 q 86 -183 86 -199 l 86 677 q 97 703 86 692 q 123 714 107 714 l 147 714 q 173 703 163 714 q 184 677 184 692 l 184 256 q 231 125 184 164 q 350 84 278 84 q 434 101 399 85 q 494 152 470 117 q 546 315 546 218 l 546 677 q 556 703 546 692 q 583 714 567 714 l 608 714 q 634 703 623 714 q 644 677 644 692 l 644 37 z "},"":{"ha":833,"x_min":64,"x_max":667,"o":"m 631 963 q 657 952 647 963 q 667 926 667 941 l 667 -137 q 657 -164 667 -153 q 631 -174 647 -174 l 606 -174 q 580 -164 591 -174 q 569 -137 569 -153 l 569 864 l 441 864 l 441 -137 q 430 -164 441 -153 q 404 -174 419 -174 l 379 -174 q 352 -164 363 -174 q 342 -137 342 -153 l 342 410 q 239 436 287 416 q 155 489 191 456 q 88 576 111 528 q 64 682 65 625 q 380 963 70 960 l 631 963 z "},"":{"ha":386,"x_min":106,"x_max":260,"o":"m 106 460 q 131 517 106 494 q 154 532 141 526 q 183 537 168 537 q 260 460 258 535 q 237 406 260 425 l 237 407 q 183 383 214 383 q 130 406 150 383 l 130 406 q 106 460 106 428 z "},"":{"ha":180,"x_min":-66,"x_max":235,"o":"m -49 -130 q -28 -111 -42 -117 q -1 -112 -14 -106 q 37 -124 18 -121 q 76 -129 56 -128 q 102 -126 90 -129 q 125 -118 114 -123 q 133 -111 131 -115 q 135 -100 134 -106 q 134 -97 134 -98 q 132 -94 133 -95 q 104 -87 118 -87 q 56 -98 74 -87 q 36 -102 48 -103 q 16 -96 23 -102 l -3 -84 q -15 -70 -11 -79 q -19 -54 -19 -62 q -11 -31 -19 -41 q 24 15 6 -9 q 60 60 42 38 q 74 69 64 64 q 90 74 83 74 l 114 74 q 141 63 131 74 q 152 38 152 52 q 144 15 152 24 l 140 9 q 165 2 153 7 q 189 -11 178 -3 q 235 -100 234 -39 q 220 -162 234 -136 q 180 -204 205 -189 q 133 -222 159 -216 q 75 -228 106 -228 q 41 -225 58 -228 q 9 -217 25 -222 l 9 -218 q 3 -216 6 -216 q -3 -214 0 -216 l -3 -215 q -38 -204 -16 -212 q -60 -184 -54 -199 q -60 -155 -66 -170 l -49 -130 z "},"":{"ha":463,"x_min":50,"x_max":297,"o":"m 198 780 q 186 774 193 776 l 187 774 q 143 752 165 762 q 98 735 121 743 q 64 741 78 730 q 50 771 50 751 l 50 795 q 58 815 50 805 q 75 829 66 826 q 113 845 95 837 q 146 863 132 854 q 175 886 160 873 q 205 915 190 899 q 218 923 209 918 q 233 927 227 927 l 260 927 q 287 916 276 927 q 297 890 297 905 l 297 381 q 287 355 297 366 q 260 345 276 345 l 235 345 q 209 355 219 345 q 198 381 198 366 l 198 780 z "},"":{"ha":416,"x_min":-26,"x_max":422,"o":"m -26 697 q 32 863 -26 795 l 32 862 q 103 917 61 898 q 198 935 144 935 q 368 862 307 935 q 409 787 395 827 q 422 697 422 746 q 408 611 422 652 q 368 535 393 570 q 296 477 339 496 q 197 457 252 458 q 33 534 90 458 q -11 609 4 568 q -26 697 -26 650 m 73 697 q 81 644 73 669 q 109 597 90 619 q 199 556 140 556 q 289 597 256 556 q 323 697 323 643 q 315 750 323 725 q 290 798 306 775 q 198 837 257 836 q 109 797 140 835 q 73 697 73 753 z "},"":{"ha":489,"x_min":88,"x_max":407,"o":"m 407 392 l 407 348 l 271 165 q 257 154 265 158 q 241 150 248 150 q 216 160 227 150 q 205 188 205 170 l 205 243 l 299 371 q 291 381 296 376 q 283 393 286 387 q 243 446 263 418 q 205 498 222 474 l 205 553 q 216 581 205 571 q 241 591 227 591 q 257 587 248 591 q 271 576 265 583 l 407 392 m 290 392 l 290 348 l 155 165 q 140 154 149 158 q 125 150 132 150 q 100 160 111 150 q 88 188 88 170 l 88 243 l 182 371 q 162 399 173 385 q 141 427 152 413 q 114 464 127 445 q 88 498 100 482 l 88 553 q 100 581 88 571 q 125 591 111 591 q 155 576 141 591 l 290 392 z "},"":{"ha":1158,"x_min":119,"x_max":977,"o":"m 545 127 q 519 138 529 127 q 509 164 509 149 l 509 208 l 785 568 q 798 578 789 573 q 814 583 808 583 l 845 583 q 871 572 861 583 q 882 545 882 561 l 882 227 l 939 227 q 966 216 956 227 q 977 189 977 205 l 977 164 q 966 138 977 149 q 939 127 956 127 l 882 127 l 882 37 q 871 11 882 22 q 845 0 861 0 l 820 0 q 794 11 804 0 q 783 37 783 22 l 783 127 l 545 127 m 844 496 q 846 486 851 492 l 847 486 q 820 450 833 467 q 795 418 806 433 q 788 415 792 414 q 783 422 783 416 l 783 511 q 786 517 783 515 q 793 517 789 519 l 844 496 m 783 402 q 732 336 758 369 q 678 267 706 302 q 664 247 670 255 q 648 227 657 239 l 783 227 l 783 402 m 770 946 q 785 957 775 951 q 802 963 794 963 l 830 963 q 850 958 842 963 q 863 944 859 952 q 867 926 867 936 q 861 906 867 916 q 714 675 789 793 q 565 440 640 558 q 415 205 490 322 q 269 -26 340 87 q 254 -37 264 -32 q 237 -43 245 -43 l 209 -43 q 189 -37 197 -43 q 177 -24 181 -32 q 172 -5 172 -16 q 178 14 172 5 l 770 946 m 268 780 q 257 774 262 777 l 258 774 q 213 752 235 762 q 168 735 191 743 q 134 740 149 730 q 119 771 119 751 l 119 795 q 127 815 119 805 q 145 829 136 826 q 183 845 165 837 q 217 863 202 854 q 245 885 230 872 q 274 914 260 898 q 287 923 278 918 q 302 927 296 927 l 330 927 q 356 916 346 927 q 367 890 367 905 l 367 381 q 356 355 367 366 q 330 345 346 345 l 305 345 q 279 355 290 345 q 268 381 268 366 l 268 780 z "},"":{"ha":1158,"x_min":74,"x_max":1025,"o":"m 712 946 l 711 946 q 725 957 715 951 q 743 963 735 963 l 772 963 q 792 958 783 963 q 806 945 801 953 q 810 926 810 937 q 803 906 810 916 l 210 -25 l 211 -25 q 197 -37 207 -31 q 180 -43 187 -43 l 151 -43 q 131 -37 140 -43 q 118 -24 123 -32 q 114 -5 113 -16 q 119 14 114 5 l 712 946 m 222 780 q 211 774 217 776 l 212 774 q 167 752 189 762 q 121 735 145 743 q 88 741 102 730 q 74 771 74 751 l 74 795 q 81 816 74 805 q 99 830 89 827 l 99 829 q 137 845 119 837 q 170 863 156 854 q 199 886 184 872 q 229 915 215 899 q 243 923 234 919 q 257 927 253 927 l 284 927 q 310 916 300 927 q 321 890 321 905 l 321 381 q 310 355 321 366 q 284 345 300 345 l 259 345 q 233 355 243 345 q 222 381 222 366 l 222 780 m 988 99 q 1015 89 1004 99 q 1025 62 1025 78 l 1025 37 q 1015 11 1025 22 q 988 0 1004 0 l 617 0 q 591 11 602 0 q 581 37 581 22 q 586 79 581 58 q 601 119 591 99 q 622 150 610 134 q 648 178 635 165 q 676 202 661 191 q 709 225 692 214 q 719 231 715 229 q 728 237 724 233 q 735 241 731 239 q 742 246 739 243 q 757 256 749 251 q 772 267 764 261 q 829 304 804 285 q 875 345 854 323 q 911 425 910 379 q 889 473 910 458 l 890 472 q 851 487 872 481 q 804 492 830 492 q 689 379 685 488 q 679 352 690 363 q 652 340 669 340 l 627 340 q 601 352 612 340 q 590 378 590 363 q 642 533 591 474 q 804 591 692 591 q 943 555 885 591 q 1010 424 1009 511 q 1008 395 1010 409 q 1004 368 1007 381 q 992 338 1000 352 q 973 307 985 324 q 918 252 954 282 q 829 187 882 221 q 773 149 799 168 q 723 112 747 131 l 724 112 q 718 107 720 109 q 715 105 716 106 q 712 103 713 104 q 709 99 711 102 l 988 99 z "},"":{"ha":1158,"x_min":60,"x_max":1036,"o":"m 605 127 q 578 138 589 127 q 568 164 568 149 l 568 208 l 844 568 q 858 578 848 573 q 873 583 868 583 l 905 583 q 931 572 921 583 q 942 545 942 561 l 942 227 l 1000 227 q 1026 216 1015 227 q 1036 189 1036 205 l 1036 164 q 1026 138 1036 149 q 1000 127 1015 127 l 942 127 l 942 37 q 931 11 942 22 q 905 0 921 0 l 880 0 q 854 11 865 0 q 843 37 843 22 l 843 127 l 605 127 m 904 496 q 907 486 911 492 l 907 486 q 880 451 892 467 q 855 418 867 434 q 847 415 852 414 q 843 422 843 416 l 843 511 q 846 517 843 515 q 852 517 849 519 l 904 496 m 843 402 q 810 360 826 380 q 778 319 795 340 q 761 297 769 307 q 745 276 753 286 q 727 253 736 265 q 707 227 718 241 l 843 227 l 843 402 m 838 946 l 837 946 q 851 957 841 951 q 868 963 861 963 l 897 963 q 917 958 909 963 q 930 944 926 952 q 934 926 935 936 q 928 906 934 916 q 782 675 856 793 q 632 440 707 558 q 482 205 557 322 q 336 -25 408 88 l 336 -25 q 322 -37 332 -31 q 305 -43 313 -43 l 276 -43 q 256 -37 264 -43 q 244 -24 248 -32 q 239 -5 239 -16 q 245 14 239 5 l 838 946 m 115 696 q 88 707 98 696 q 77 732 77 717 q 143 886 77 833 q 302 935 206 935 q 336 934 318 935 q 371 930 355 932 q 439 906 408 924 l 439 907 q 468 885 454 898 q 493 854 482 872 q 507 818 503 839 q 512 774 512 798 q 466 663 512 707 l 458 656 q 469 648 467 651 l 469 648 q 523 522 520 606 q 503 443 522 479 q 452 383 484 408 q 381 349 420 361 q 299 336 342 336 q 125 393 188 336 l 126 392 q 76 463 92 421 q 62 556 60 505 q 74 580 63 570 q 98 591 85 591 l 123 591 q 150 579 139 591 q 160 551 161 568 l 160 552 q 191 467 157 492 q 298 435 230 435 q 393 461 353 435 q 424 523 423 481 q 391 587 422 568 q 354 602 373 597 q 328 605 342 604 q 299 606 314 606 q 291 606 296 606 q 281 606 287 606 q 277 605 279 606 q 272 605 275 605 q 244 615 256 604 q 233 642 233 626 l 233 668 q 243 694 233 684 q 270 705 254 705 l 302 705 q 388 724 351 705 q 407 743 401 730 q 413 774 412 756 q 412 792 413 785 q 408 806 410 800 q 400 814 405 810 q 390 821 395 818 q 348 833 371 829 q 300 837 326 837 q 176 732 178 838 q 165 707 176 718 q 139 696 154 696 l 115 696 z "},"":{"ha":694,"x_min":45,"x_max":640,"o":"m 597 135 q 623 124 612 135 q 634 99 633 114 q 559 -138 640 -48 l 559 -137 q 328 -235 479 -235 q 220 -219 269 -235 q 132 -173 171 -203 q 68 -95 91 -141 q 45 9 45 -49 q 60 101 45 58 q 99 176 75 144 q 180 260 140 230 q 232 314 211 289 q 266 364 253 340 l 266 363 q 283 416 277 386 q 289 485 289 446 q 299 511 289 500 q 326 522 310 522 l 351 522 q 377 511 366 522 q 388 485 388 500 q 381 404 388 442 q 359 332 374 366 q 316 264 344 300 q 251 192 288 228 q 248 189 250 191 q 245 186 246 187 q 236 178 241 183 q 226 170 230 173 q 208 153 216 162 q 191 132 199 144 q 174 107 182 121 q 158 79 165 94 q 148 46 151 63 q 144 9 144 28 q 156 -52 144 -26 q 193 -96 168 -79 q 251 -127 218 -117 q 328 -136 285 -136 q 420 -120 381 -136 q 486 -73 460 -105 q 525 1 513 -40 q 535 96 538 43 q 545 124 534 113 q 572 135 555 135 l 597 135 m 352 749 q 378 738 368 749 q 389 711 389 727 l 389 589 q 378 563 389 574 q 352 553 368 553 l 328 553 q 301 563 311 553 q 290 589 290 574 l 290 711 q 301 738 290 727 q 328 749 311 749 l 352 749 z "},"":{"ha":799,"x_min":-39,"x_max":810,"o":"m 422 913 q 408 878 414 895 q 394 843 401 861 q 388 839 393 838 q 382 844 383 839 q 377 855 380 849 q 373 866 375 861 l 373 865 q 364 889 368 877 q 355 915 359 902 q 357 922 353 919 q 364 922 360 924 l 388 905 q 400 914 394 910 q 412 921 406 918 l 422 913 m 552 403 q 482 583 517 492 q 412 764 447 674 q 406 781 408 774 q 400 796 403 789 q 395 811 397 803 q 388 828 392 819 q 331 686 358 754 q 274 546 303 617 q 247 476 260 511 q 218 403 233 441 l 552 403 m 177 301 q 137 200 157 250 q 96 100 116 151 q 80 62 87 81 q 64 24 72 43 l 64 24 q 50 7 61 15 q 29 0 39 0 l -1 0 q -20 4 -12 0 q -33 16 -28 9 q -38 33 -37 24 q -35 53 -39 43 l 336 968 q 351 984 340 977 q 371 991 361 991 l 406 991 q 426 984 415 991 q 441 968 437 977 l 802 52 q 800 16 810 32 q 766 0 789 0 l 739 0 q 718 7 729 0 q 704 24 707 15 l 704 24 q 648 162 675 94 q 591 301 620 231 l 177 301 m 439 981 q 424 985 433 981 q 411 994 414 989 l 233 1177 q 220 1205 220 1190 q 231 1231 220 1219 q 260 1242 242 1242 l 298 1242 q 313 1237 303 1242 q 327 1229 322 1233 q 407 1137 365 1185 q 487 1044 449 1088 l 486 1044 q 497 1018 497 1031 q 487 992 497 1004 q 458 981 476 981 l 439 981 z "},"":{"ha":799,"x_min":-39,"x_max":810,"o":"m 422 913 q 408 878 414 895 q 394 843 401 861 q 388 839 393 838 q 382 844 383 839 q 377 855 380 849 q 373 866 375 861 l 373 865 q 364 889 368 877 q 355 915 359 902 q 357 922 353 919 q 364 922 360 924 l 388 905 q 400 914 394 910 q 412 921 406 918 l 422 913 m 552 403 q 482 583 517 492 q 412 764 447 674 q 406 781 408 774 q 400 796 403 789 q 395 811 397 803 q 388 828 392 819 q 331 686 358 754 q 274 546 303 617 q 247 476 260 511 q 218 403 233 441 l 552 403 m 177 301 q 137 200 157 250 q 96 100 116 151 q 80 62 87 81 q 64 24 72 43 l 64 24 q 50 7 61 15 q 29 0 39 0 l -1 0 q -20 4 -12 0 q -33 16 -28 9 q -38 33 -37 24 q -35 53 -39 43 l 336 968 q 351 984 340 977 q 371 991 361 991 l 406 991 q 426 984 415 991 q 441 968 437 977 l 802 52 q 800 16 810 32 q 766 0 789 0 l 739 0 q 718 7 729 0 q 704 24 707 15 l 704 24 q 648 162 675 94 q 591 301 620 231 l 177 301 m 530 1242 q 558 1231 548 1242 q 569 1205 569 1219 q 557 1177 569 1188 q 464 1085 511 1131 q 370 992 416 1039 q 357 985 366 989 q 343 981 349 981 l 323 981 q 295 992 306 981 q 285 1018 285 1004 q 296 1045 285 1032 l 466 1230 l 465 1230 q 478 1238 469 1234 q 494 1242 488 1242 l 530 1242 z "},"":{"ha":799,"x_min":-39,"x_max":810,"o":"m 422 913 q 408 878 414 895 q 394 843 401 861 q 388 839 393 838 q 382 844 383 839 q 377 855 380 849 q 373 866 375 861 l 373 865 q 364 889 368 877 q 355 915 359 902 q 357 922 353 919 q 364 922 360 924 l 388 905 q 400 914 394 910 q 412 921 406 918 l 422 913 m 552 403 q 482 583 517 492 q 412 764 447 674 q 406 781 408 774 q 400 796 403 789 q 395 811 397 803 q 388 828 392 819 q 331 686 358 754 q 274 546 303 617 q 247 476 260 511 q 218 403 233 441 l 552 403 m 177 301 q 137 200 157 250 q 96 100 116 151 q 80 62 87 81 q 64 24 72 43 l 64 24 q 50 7 61 15 q 29 0 39 0 l -1 0 q -20 4 -12 0 q -33 16 -28 9 q -38 33 -37 24 q -35 53 -39 43 l 336 968 q 351 984 340 977 q 371 991 361 991 l 406 991 q 426 984 415 991 q 441 968 437 977 l 802 52 q 800 16 810 32 q 766 0 789 0 l 739 0 q 718 7 729 0 q 704 24 707 15 l 704 24 q 648 162 675 94 q 591 301 620 231 l 177 301 m 522 987 q 506 992 516 987 q 492 1002 496 996 q 441 1062 467 1033 q 390 1123 416 1092 q 367 1095 378 1109 q 344 1066 355 1080 q 318 1034 330 1050 q 292 1002 305 1018 q 278 992 288 997 q 263 987 268 987 l 237 987 q 209 998 219 987 q 198 1023 198 1009 q 208 1049 198 1036 l 353 1227 q 367 1237 357 1232 q 382 1242 376 1242 l 401 1242 q 417 1237 407 1242 q 431 1228 427 1233 l 577 1050 q 587 1024 587 1037 q 576 999 587 1010 q 547 987 565 987 l 522 987 z "},"":{"ha":799,"x_min":-39,"x_max":810,"o":"m 422 913 q 408 878 414 895 q 394 843 401 861 q 388 839 393 838 q 382 844 383 839 q 377 855 380 849 q 373 866 375 861 l 373 865 q 364 889 368 877 q 355 915 359 902 q 357 922 353 919 q 364 922 360 924 l 388 905 q 400 914 394 910 q 412 921 406 918 l 422 913 m 552 403 q 482 583 517 492 q 412 764 447 674 q 406 781 408 774 q 400 796 403 789 q 395 811 397 803 q 388 828 392 819 q 331 686 358 754 q 274 546 303 617 q 247 476 260 511 q 218 403 233 441 l 552 403 m 177 301 q 137 200 157 250 q 96 100 116 151 q 80 62 87 81 q 64 24 72 43 l 64 24 q 50 7 61 15 q 29 0 39 0 l -1 0 q -20 4 -12 0 q -33 16 -28 9 q -38 33 -37 24 q -35 53 -39 43 l 336 968 q 351 984 340 977 q 371 991 361 991 l 406 991 q 426 984 415 991 q 441 968 437 977 l 802 52 q 800 16 810 32 q 766 0 789 0 l 739 0 q 718 7 729 0 q 704 24 707 15 l 704 24 q 648 162 675 94 q 591 301 620 231 l 177 301 m 222 1001 q 194 1012 205 1001 q 184 1039 183 1023 q 220 1131 185 1090 q 261 1165 238 1152 q 309 1178 283 1177 q 369 1163 338 1178 q 395 1149 385 1154 q 413 1138 406 1143 l 415 1136 q 427 1128 420 1132 q 439 1120 433 1124 l 438 1120 l 454 1111 q 464 1105 460 1107 q 471 1104 468 1104 q 488 1112 483 1104 q 496 1136 496 1120 q 508 1163 496 1152 q 534 1173 519 1173 l 560 1173 q 587 1163 576 1173 q 598 1136 598 1152 q 570 1046 598 1088 q 471 1002 534 1002 q 408 1019 437 1002 q 405 1021 407 1020 q 401 1023 403 1022 l 402 1023 q 383 1035 393 1029 q 365 1047 373 1041 q 359 1052 361 1050 q 353 1056 356 1054 q 332 1071 343 1064 l 334 1070 q 322 1074 328 1072 q 311 1076 316 1076 q 303 1073 307 1075 q 296 1067 298 1071 q 286 1038 286 1055 q 274 1012 286 1023 q 248 1001 263 1001 l 222 1001 z "},"":{"ha":799,"x_min":-39,"x_max":810,"o":"m 422 913 q 408 878 414 895 q 394 843 401 861 q 388 839 393 838 q 382 844 383 839 q 377 855 380 849 q 373 866 375 861 l 373 865 q 364 889 368 877 q 355 915 359 902 q 357 922 353 919 q 364 922 360 924 l 388 905 q 400 914 394 910 q 412 921 406 918 l 422 913 m 552 403 q 482 583 517 492 q 412 764 447 674 q 406 781 408 774 q 400 796 403 789 q 395 811 397 803 q 388 828 392 819 q 331 686 358 754 q 274 546 303 617 q 247 476 260 511 q 218 403 233 441 l 552 403 m 177 301 q 137 200 157 250 q 96 100 116 151 q 80 62 87 81 q 64 24 72 43 l 64 24 q 50 7 61 15 q 29 0 39 0 l -1 0 q -20 4 -12 0 q -33 16 -28 9 q -38 33 -37 24 q -35 53 -39 43 l 336 968 q 351 984 340 977 q 371 991 361 991 l 406 991 q 426 984 415 991 q 441 968 437 977 l 802 52 q 800 16 810 32 q 766 0 789 0 l 739 0 q 718 7 729 0 q 704 24 707 15 l 704 24 q 648 162 675 94 q 591 301 620 231 l 177 301 m 279 985 q 253 996 264 985 q 241 1023 241 1007 l 241 1126 q 253 1154 241 1143 q 279 1165 264 1165 l 305 1165 q 332 1154 321 1165 q 343 1126 343 1143 l 343 1023 q 332 996 343 1007 q 305 985 321 985 l 279 985 m 479 985 q 452 996 463 985 q 441 1023 441 1007 l 441 1126 q 452 1154 441 1143 q 479 1165 463 1165 l 505 1165 q 532 1154 521 1165 q 543 1126 543 1143 l 543 1023 q 532 996 543 1007 q 505 985 521 985 l 479 985 z "},"":{"ha":799,"x_min":-39,"x_max":810,"o":"m 422 913 q 408 878 414 895 q 394 843 401 861 q 388 839 393 838 q 382 844 383 839 q 377 855 380 849 q 373 866 375 861 l 373 865 q 364 889 368 877 q 355 915 359 902 q 357 922 353 919 q 364 922 360 924 l 388 905 q 400 914 394 910 q 412 921 406 918 l 422 913 m 552 403 q 482 583 517 492 q 412 764 447 674 q 406 781 408 774 q 400 796 403 789 q 395 811 397 803 q 388 828 392 819 q 331 686 358 754 q 274 546 303 617 q 247 476 260 511 q 218 403 233 441 l 552 403 m 177 301 q 137 200 157 250 q 96 100 116 151 q 80 62 87 81 q 64 24 72 43 l 64 24 q 50 7 61 15 q 29 0 39 0 l -1 0 q -20 4 -12 0 q -33 16 -28 9 q -38 33 -37 24 q -35 53 -39 43 l 336 968 q 351 984 340 977 q 371 991 361 991 l 406 991 q 426 984 415 991 q 441 968 437 977 l 802 52 q 800 16 810 32 q 766 0 789 0 l 739 0 q 718 7 729 0 q 704 24 707 15 l 704 24 q 648 162 675 94 q 591 301 620 231 l 177 301 m 543 1094 q 499 988 543 1034 q 392 944 456 944 q 287 988 330 944 q 241 1094 242 1031 q 256 1156 241 1128 q 270 1179 261 1167 q 288 1200 278 1191 q 335 1232 309 1220 q 392 1245 361 1244 q 450 1234 423 1244 q 498 1200 476 1223 q 543 1095 543 1156 l 543 1094 m 441 1095 q 428 1131 441 1116 q 392 1144 414 1144 q 359 1131 371 1144 q 347 1114 351 1123 q 343 1094 344 1105 q 359 1061 345 1073 q 392 1045 372 1045 q 412 1049 404 1045 q 427 1061 420 1053 q 441 1095 441 1074 z "},"":{"ha":1183,"x_min":-33,"x_max":1131,"o":"m 243 351 q 213 293 228 322 q 182 235 197 264 q 125 129 154 182 q 68 20 96 75 q 53 6 63 13 q 35 0 43 0 l 6 0 q -15 5 -6 0 q -28 18 -24 9 q -33 36 -33 26 q -28 56 -33 45 l 458 971 l 458 970 q 472 985 461 978 q 492 991 483 991 l 1093 991 q 1120 980 1109 991 q 1131 954 1131 969 l 1131 928 q 1120 901 1131 912 q 1093 890 1109 890 l 628 890 l 628 566 l 1051 566 q 1079 555 1067 566 q 1090 528 1090 544 l 1090 502 q 1079 475 1090 486 q 1051 465 1067 465 l 628 465 l 628 102 l 1093 102 q 1120 91 1109 102 q 1131 64 1131 79 l 1131 38 q 1120 11 1131 22 q 1093 0 1109 0 l 564 0 q 537 11 548 0 q 526 38 526 22 l 526 351 l 243 351 m 526 892 q 503 847 514 869 q 481 804 492 825 q 435 716 457 758 q 391 633 413 675 q 347 547 370 591 q 297 453 323 503 l 526 453 l 526 892 z "},"":{"ha":951,"x_min":12,"x_max":907,"o":"m 821 641 q 795 651 806 641 q 783 675 785 662 q 758 762 779 721 q 696 838 736 802 q 480 912 618 909 q 311 871 379 911 q 248 826 276 851 q 199 770 220 800 l 199 770 q 135 631 157 701 q 113 488 113 562 q 208 201 113 320 q 465 79 296 83 q 699 171 614 81 q 767 274 741 215 q 804 402 793 334 q 817 425 805 416 q 842 435 828 435 l 867 435 q 897 422 886 435 q 905 392 907 410 q 859 229 892 302 q 770 98 825 155 q 564 -12 688 14 l 564 -12 q 610 -103 609 -40 q 553 -210 609 -179 q 446 -235 511 -235 q 410 -231 427 -234 q 378 -223 393 -229 l 378 -224 q 372 -223 374 -223 q 366 -221 369 -222 l 366 -222 q 351 -218 359 -220 q 329 -210 342 -215 q 307 -189 313 -204 q 307 -159 300 -174 q 312 -147 309 -153 q 318 -134 315 -140 q 339 -115 324 -121 q 368 -116 354 -110 q 448 -133 404 -132 q 496 -123 475 -133 q 505 -115 502 -121 q 509 -104 507 -110 q 504 -97 507 -99 q 476 -90 490 -90 q 425 -102 446 -90 q 405 -106 417 -106 q 385 -100 392 -105 l 366 -86 l 366 -86 q 354 -73 357 -81 q 350 -56 350 -64 q 357 -32 350 -43 l 374 -12 q 131 133 227 20 l 131 132 q 12 488 13 271 q 119 837 12 678 l 119 836 q 481 1014 231 1009 q 657 982 583 1012 q 783 897 732 953 l 782 897 q 885 680 884 785 q 874 652 885 664 q 847 641 863 641 l 821 641 z "},"":{"ha":746,"x_min":47,"x_max":735,"o":"m 149 102 l 697 102 q 724 91 713 102 q 735 64 735 79 l 735 38 q 724 11 735 22 q 697 0 713 0 l 85 0 q 58 11 69 0 q 47 38 47 22 l 47 954 q 58 980 47 969 q 85 991 69 991 l 692 991 q 720 980 709 991 q 730 954 730 969 l 730 928 q 720 901 730 912 q 692 890 709 890 l 149 890 l 149 566 l 659 566 q 685 555 674 566 q 696 528 696 544 l 696 502 q 685 475 696 486 q 659 465 674 465 l 149 465 l 149 102 m 206 1177 q 194 1205 194 1190 q 205 1231 194 1219 q 233 1242 216 1242 l 271 1242 q 286 1237 276 1242 q 300 1229 296 1233 q 380 1137 338 1185 q 460 1044 422 1088 l 460 1044 q 468 1031 465 1038 q 470 1018 470 1024 q 459 992 470 1004 q 431 981 449 981 l 412 981 q 397 985 407 981 q 385 993 388 989 l 206 1177 z "},"":{"ha":746,"x_min":47,"x_max":735,"o":"m 149 102 l 697 102 q 724 91 713 102 q 735 64 735 79 l 735 38 q 724 11 735 22 q 697 0 713 0 l 85 0 q 58 11 69 0 q 47 38 47 22 l 47 954 q 58 980 47 969 q 85 991 69 991 l 692 991 q 720 980 709 991 q 730 954 730 969 l 730 928 q 720 901 730 912 q 692 890 709 890 l 149 890 l 149 566 l 659 566 q 685 555 674 566 q 696 528 696 544 l 696 502 q 685 475 696 486 q 659 465 674 465 l 149 465 l 149 102 m 504 1242 q 532 1231 522 1242 q 543 1205 543 1219 q 530 1177 543 1188 q 437 1085 484 1131 q 344 993 391 1039 q 331 985 340 989 q 317 981 321 981 l 297 981 q 269 992 279 981 q 258 1018 258 1004 q 270 1045 258 1032 l 439 1230 l 438 1230 q 444 1234 440 1232 q 452 1238 448 1236 q 460 1241 456 1240 q 467 1242 465 1242 l 504 1242 z "},"":{"ha":746,"x_min":47,"x_max":735,"o":"m 149 102 l 697 102 q 724 91 713 102 q 735 64 735 79 l 735 38 q 724 11 735 22 q 697 0 713 0 l 85 0 q 58 11 69 0 q 47 38 47 22 l 47 954 q 58 980 47 969 q 85 991 69 991 l 692 991 q 720 980 709 991 q 730 954 730 969 l 730 928 q 720 901 730 912 q 692 890 709 890 l 149 890 l 149 566 l 659 566 q 685 555 674 566 q 696 528 696 544 l 696 502 q 685 475 696 486 q 659 465 674 465 l 149 465 l 149 102 m 494 987 q 478 992 488 987 q 465 1002 469 997 l 465 1002 q 414 1062 438 1034 q 363 1123 389 1090 q 346 1103 354 1114 q 330 1083 338 1093 q 297 1043 313 1063 q 264 1002 280 1022 l 264 1003 q 259 998 263 1000 q 251 992 256 995 q 242 989 246 990 q 235 987 237 987 l 209 987 q 181 998 191 987 q 170 1023 170 1009 q 172 1036 170 1029 q 179 1049 174 1043 l 324 1227 q 338 1237 328 1232 q 355 1242 349 1242 l 373 1242 q 388 1237 378 1242 q 403 1228 398 1232 q 476 1139 439 1183 q 549 1050 513 1095 q 559 1024 559 1037 q 548 999 559 1010 q 519 987 537 987 l 494 987 z "},"":{"ha":746,"x_min":47,"x_max":735,"o":"m 149 102 l 697 102 q 724 91 713 102 q 735 64 735 79 l 735 38 q 724 11 735 22 q 697 0 713 0 l 85 0 q 58 11 69 0 q 47 38 47 22 l 47 954 q 58 980 47 969 q 85 991 69 991 l 692 991 q 720 980 709 991 q 730 954 730 969 l 730 928 q 720 901 730 912 q 692 890 709 890 l 149 890 l 149 566 l 659 566 q 685 555 674 566 q 696 528 696 544 l 696 502 q 685 475 696 486 q 659 465 674 465 l 149 465 l 149 102 m 253 985 q 226 996 237 985 q 215 1023 215 1007 l 215 1126 q 226 1154 215 1143 q 253 1165 237 1165 l 278 1165 q 306 1154 295 1165 q 317 1126 317 1143 l 317 1023 q 306 996 317 1007 q 278 985 295 985 l 253 985 m 453 985 q 426 996 436 985 q 415 1023 415 1007 l 415 1126 q 426 1154 415 1143 q 453 1165 436 1165 l 478 1165 q 506 1154 494 1165 q 517 1126 517 1143 l 517 1023 q 506 996 517 1007 q 478 985 494 985 l 453 985 z "},"":{"ha":178,"x_min":-90,"x_max":187,"o":"m 33 954 q 44 980 33 969 q 71 991 55 991 l 98 991 q 124 980 113 991 q 135 954 135 969 l 135 38 q 124 11 135 22 q 98 0 113 0 l 71 0 q 44 11 55 0 q 33 38 33 22 l 33 954 m 128 981 q 114 985 123 981 q 100 994 104 989 l -77 1177 q -90 1205 -90 1190 q -79 1231 -90 1219 q -50 1242 -68 1242 l -12 1242 q -5 1240 -9 1242 q 3 1237 -1 1239 q 11 1233 7 1235 q 16 1228 15 1230 l 16 1229 l 177 1044 l 176 1044 q 187 1018 187 1031 q 176 992 187 1004 q 148 981 165 981 l 128 981 z "},"":{"ha":178,"x_min":-23,"x_max":261,"o":"m 36 954 q 47 980 36 969 q 75 991 58 991 l 100 991 q 127 980 116 991 q 138 954 138 969 l 138 38 q 127 11 138 22 q 100 0 116 0 l 75 0 q 47 11 58 0 q 36 38 36 22 l 36 954 m 222 1242 q 251 1230 240 1242 q 261 1205 261 1219 q 248 1177 261 1189 l 62 992 q 48 985 58 989 q 35 981 39 981 l 16 981 q -13 992 -2 981 q -23 1018 -23 1004 q -13 1045 -23 1031 l 157 1230 q 171 1238 162 1234 q 184 1242 180 1242 l 222 1242 z "},"":{"ha":178,"x_min":-112,"x_max":277,"o":"m 35 954 q 46 980 35 969 q 73 991 57 991 l 98 991 q 125 980 115 991 q 136 954 136 969 l 136 38 q 125 11 136 22 q 98 0 115 0 l 73 0 q 46 11 57 0 q 35 38 35 22 l 35 954 m 212 987 q 197 992 207 987 q 182 1002 186 996 q 132 1062 157 1033 q 80 1123 106 1092 q 61 1099 71 1112 q 41 1074 51 1087 q 11 1038 25 1057 q -18 1002 -3 1020 q -32 992 -22 997 q -47 987 -42 987 l -73 987 q -101 999 -91 987 q -112 1024 -112 1010 q -103 1049 -112 1038 l 42 1227 q 48 1232 44 1230 q 56 1237 52 1235 q 65 1240 61 1239 q 72 1242 69 1242 l 91 1242 q 107 1237 96 1242 q 121 1228 117 1233 l 267 1050 q 277 1025 277 1037 q 266 999 277 1010 q 237 987 255 987 l 212 987 z "},"":{"ha":178,"x_min":-67,"x_max":234,"o":"m 35 954 q 46 980 35 969 q 73 991 57 991 l 98 991 q 125 980 115 991 q 136 954 136 969 l 136 38 q 125 11 136 22 q 98 0 115 0 l 73 0 q 46 11 57 0 q 35 38 35 22 l 35 954 m -30 985 q -56 996 -45 985 q -67 1023 -67 1007 l -67 1126 q -56 1154 -67 1143 q -30 1165 -45 1165 l -3 1165 q 23 1154 12 1165 q 35 1126 35 1143 l 35 1023 q 23 996 35 1007 q -3 985 12 985 l -30 985 m 170 985 q 143 996 155 985 q 132 1023 132 1007 l 132 1126 q 143 1154 132 1143 q 170 1165 155 1165 l 196 1165 q 223 1154 212 1165 q 234 1126 234 1143 l 234 1023 q 223 996 234 1007 q 196 985 212 985 l 170 985 z "},"":{"ha":900,"x_min":-35,"x_max":833,"o":"m 3 465 q -24 475 -13 465 q -35 502 -35 486 l -35 528 q -24 555 -35 544 q 3 566 -13 566 l 47 566 l 47 954 q 58 980 47 969 q 85 991 69 991 l 406 991 q 480 986 443 991 q 556 969 517 981 q 630 935 593 956 q 695 888 666 913 q 752 820 727 859 q 796 734 778 782 q 833 495 832 639 q 795 270 832 365 q 688 115 759 175 q 366 0 551 0 l 85 0 q 58 11 69 0 q 47 38 47 22 l 47 465 l 3 465 m 149 465 l 149 102 l 372 102 q 627 198 524 102 q 705 319 679 245 q 732 496 730 393 q 730 555 732 526 q 724 610 728 583 q 716 655 722 634 q 704 695 711 675 l 704 694 q 671 762 690 733 q 628 813 652 791 q 579 849 606 833 q 524 873 553 864 q 464 886 496 882 q 399 890 431 890 l 149 890 l 149 566 l 492 566 q 519 555 508 566 q 530 528 530 544 l 530 502 q 519 475 530 486 q 492 465 508 465 l 149 465 z "},"":{"ha":900,"x_min":48,"x_max":817,"o":"m 48 954 q 59 980 48 969 q 87 991 71 991 l 125 991 q 141 986 131 991 q 156 975 151 981 q 435 582 294 782 q 715 186 577 381 l 715 954 q 726 980 715 969 q 753 991 737 991 l 779 991 q 806 980 795 991 q 817 954 817 969 l 817 38 q 806 11 817 22 q 779 0 795 0 l 740 0 q 723 5 733 0 q 709 17 712 10 l 709 16 q 569 215 638 117 q 430 410 499 313 q 291 606 361 508 q 150 805 221 704 l 150 38 q 139 11 150 22 q 112 0 129 0 l 87 0 q 59 11 71 0 q 48 38 48 22 l 48 954 m 270 1001 q 243 1012 254 1001 q 233 1039 232 1023 q 269 1131 233 1091 q 309 1165 286 1152 q 357 1178 332 1177 q 418 1163 386 1178 q 444 1148 434 1154 q 460 1138 453 1143 l 460 1137 q 465 1134 463 1136 q 471 1131 468 1132 q 487 1121 479 1125 q 501 1112 494 1116 q 512 1106 508 1107 q 520 1104 517 1104 q 537 1112 532 1104 q 545 1136 545 1121 q 555 1163 545 1152 q 583 1173 566 1173 l 608 1173 q 635 1163 625 1173 q 646 1136 646 1152 q 618 1046 646 1086 q 520 1002 583 1002 q 457 1019 486 1002 q 434 1033 445 1026 q 412 1047 423 1040 q 396 1060 403 1055 q 380 1071 389 1065 l 382 1070 q 371 1074 377 1072 q 358 1076 364 1076 q 350 1072 355 1075 q 343 1067 346 1069 q 334 1038 334 1053 q 323 1012 334 1023 q 296 1001 312 1001 l 270 1001 z "},"":{"ha":1002,"x_min":22,"x_max":942,"o":"m 222 799 q 151 666 176 741 q 123 496 125 591 q 151 326 125 401 q 222 193 176 251 q 481 79 313 81 q 631 108 566 80 q 742 194 695 136 q 815 327 791 252 q 840 496 839 401 q 743 799 837 684 l 743 798 q 630 881 696 851 q 481 912 564 911 q 333 882 397 911 q 222 799 269 854 m 22 496 q 52 694 22 604 q 139 857 81 785 q 481 1014 258 1011 q 681 973 595 1013 q 827 858 767 934 q 942 496 942 711 q 911 301 942 393 q 828 137 881 209 q 681 21 768 63 q 481 -22 593 -21 q 283 19 368 -21 q 140 136 198 59 q 22 496 22 282 m 539 981 q 524 985 534 981 q 511 994 515 989 l 333 1177 q 321 1205 321 1190 q 332 1231 321 1219 q 361 1242 342 1242 l 398 1242 q 405 1240 401 1242 q 414 1237 410 1239 q 421 1233 418 1235 q 427 1228 425 1230 l 427 1229 l 587 1044 l 587 1044 q 597 1018 597 1031 q 587 992 597 1004 q 559 981 576 981 l 539 981 z "},"":{"ha":1002,"x_min":22,"x_max":942,"o":"m 222 799 q 151 666 176 741 q 123 496 125 591 q 151 326 125 401 q 222 193 176 251 q 481 79 313 81 q 631 108 566 80 q 742 194 695 136 q 815 327 791 252 q 840 496 839 401 q 743 799 837 684 l 743 798 q 630 881 696 851 q 481 912 564 911 q 333 882 397 911 q 222 799 269 854 m 22 496 q 52 694 22 604 q 139 857 81 785 q 481 1014 258 1011 q 681 973 595 1013 q 827 858 767 934 q 942 496 942 711 q 911 301 942 393 q 828 137 881 209 q 681 21 768 63 q 481 -22 593 -21 q 283 19 368 -21 q 140 136 198 59 q 22 496 22 282 m 629 1242 q 657 1231 647 1242 q 668 1205 668 1219 q 656 1177 668 1188 q 563 1085 610 1131 q 469 993 516 1039 q 457 985 467 989 q 442 981 448 981 l 422 981 q 394 992 405 981 q 384 1018 384 1004 q 395 1045 384 1032 l 565 1230 l 564 1230 q 577 1238 568 1234 q 593 1242 587 1242 l 629 1242 z "},"":{"ha":1002,"x_min":22,"x_max":942,"o":"m 222 799 q 151 666 176 741 q 123 496 125 591 q 151 326 125 401 q 222 193 176 251 q 481 79 313 81 q 631 108 566 80 q 742 194 695 136 q 815 327 791 252 q 840 496 839 401 q 743 799 837 684 l 743 798 q 630 881 696 851 q 481 912 564 911 q 333 882 397 911 q 222 799 269 854 m 22 496 q 52 694 22 604 q 139 857 81 785 q 481 1014 258 1011 q 681 973 595 1013 q 827 858 767 934 q 942 496 942 711 q 911 301 942 393 q 828 137 881 209 q 681 21 768 63 q 481 -22 593 -21 q 283 19 368 -21 q 140 136 198 59 q 22 496 22 282 m 621 987 q 605 992 615 987 q 592 1002 595 997 l 592 1002 q 541 1062 566 1034 q 490 1123 516 1090 q 473 1103 481 1114 q 457 1083 465 1093 q 424 1043 440 1063 q 391 1002 408 1022 l 391 1003 q 378 992 388 998 q 362 987 368 987 l 336 987 q 308 998 318 987 q 297 1023 297 1009 q 307 1049 297 1036 l 452 1227 q 465 1237 455 1232 q 481 1242 475 1242 l 500 1242 q 516 1237 506 1242 q 530 1228 526 1233 l 676 1050 q 686 1024 686 1037 q 675 999 686 1010 q 647 987 665 987 l 621 987 z "},"":{"ha":1002,"x_min":22,"x_max":942,"o":"m 222 799 q 151 666 176 741 q 123 496 125 591 q 151 326 125 401 q 222 193 176 251 q 481 79 313 81 q 631 108 566 80 q 742 194 695 136 q 815 327 791 252 q 840 496 839 401 q 743 799 837 684 l 743 798 q 630 881 696 851 q 481 912 564 911 q 333 882 397 911 q 222 799 269 854 m 22 496 q 52 694 22 604 q 139 857 81 785 q 481 1014 258 1011 q 681 973 595 1013 q 827 858 767 934 q 942 496 942 711 q 911 301 942 393 q 828 137 881 209 q 681 21 768 63 q 481 -22 593 -21 q 283 19 368 -21 q 140 136 198 59 q 22 496 22 282 m 320 1001 q 293 1012 304 1001 q 282 1039 281 1023 q 318 1131 283 1090 q 359 1165 336 1152 q 407 1178 382 1177 q 467 1163 436 1178 q 494 1149 484 1154 q 511 1138 504 1143 l 513 1136 q 531 1124 521 1131 q 549 1113 541 1117 q 548 1114 547 1114 q 551 1112 549 1113 q 570 1104 564 1104 q 587 1111 583 1104 q 595 1136 595 1120 q 606 1163 595 1152 q 633 1173 617 1173 l 659 1173 q 685 1163 674 1173 q 696 1136 696 1152 q 668 1046 696 1088 q 570 1002 632 1002 q 507 1019 535 1002 q 503 1021 505 1020 q 500 1023 501 1022 l 500 1023 q 481 1035 491 1029 q 463 1047 471 1041 q 457 1052 460 1050 q 452 1056 454 1054 q 430 1071 441 1064 l 432 1070 q 420 1074 427 1072 q 409 1076 414 1076 q 401 1073 406 1075 q 394 1067 397 1071 q 384 1038 384 1054 q 373 1012 384 1023 q 346 1001 361 1001 l 320 1001 z "},"":{"ha":1002,"x_min":22,"x_max":942,"o":"m 222 799 q 151 666 176 741 q 123 496 125 591 q 151 326 125 401 q 222 193 176 251 q 481 79 313 81 q 631 108 566 80 q 742 194 695 136 q 815 327 791 252 q 840 496 839 401 q 743 799 837 684 l 743 798 q 630 881 696 851 q 481 912 564 911 q 333 882 397 911 q 222 799 269 854 m 22 496 q 52 694 22 604 q 139 857 81 785 q 481 1014 258 1011 q 681 973 595 1013 q 827 858 767 934 q 942 496 942 711 q 911 301 942 393 q 828 137 881 209 q 681 21 768 63 q 481 -22 593 -21 q 283 19 368 -21 q 140 136 198 59 q 22 496 22 282 m 380 985 q 353 996 364 985 q 342 1023 342 1007 l 342 1126 q 353 1154 342 1143 q 380 1165 364 1165 l 406 1165 q 432 1154 421 1165 q 444 1126 444 1143 l 444 1023 q 432 996 444 1007 q 406 985 421 985 l 380 985 m 579 985 q 553 996 564 985 q 542 1023 542 1007 l 542 1126 q 553 1154 542 1143 q 579 1165 564 1165 l 606 1165 q 632 1154 621 1165 q 644 1126 644 1143 l 644 1023 q 632 996 644 1007 q 606 985 621 985 l 579 985 z "},"":{"ha":833,"x_min":104,"x_max":685,"o":"m 115 562 q 104 589 104 573 q 115 614 104 604 l 132 631 q 158 642 143 642 q 172 639 165 642 q 184 631 178 636 l 394 418 q 500 525 447 471 q 606 631 553 578 q 618 639 611 636 q 631 642 625 642 q 657 631 644 642 l 675 614 q 683 602 680 609 q 685 589 685 595 q 675 562 685 573 l 464 352 l 531 285 q 675 141 602 212 q 685 115 685 130 q 675 90 685 102 q 666 81 671 86 q 657 72 661 76 q 631 60 644 60 q 618 63 625 60 q 606 72 611 66 l 394 283 q 342 232 368 257 q 291 180 317 206 q 237 126 264 153 q 184 72 210 99 q 172 63 178 66 q 158 60 165 60 q 132 72 144 60 l 115 90 q 108 102 111 95 q 104 115 104 109 q 107 129 104 122 q 115 141 111 136 q 165 191 138 164 q 220 246 193 218 q 275 301 248 274 q 326 352 302 328 l 115 562 z "},"":{"ha":1002,"x_min":22,"x_max":942,"o":"m 713 829 q 612 891 669 872 q 481 912 555 911 q 334 880 399 911 q 222 799 268 850 q 152 665 178 741 q 123 496 125 589 q 140 358 125 420 q 186 244 155 296 l 713 829 m 250 165 q 352 102 294 123 q 481 79 410 80 q 631 108 566 80 q 742 194 695 136 q 815 327 791 252 q 840 496 839 401 q 823 634 839 572 q 777 748 808 696 l 250 165 m 115 167 q 45 317 68 236 q 22 496 22 398 q 52 694 22 604 q 139 857 81 785 q 481 1014 258 1011 q 650 984 575 1013 q 781 904 724 956 q 792 916 786 909 q 803 928 798 922 l 802 928 q 816 943 809 935 q 829 958 823 950 q 843 966 835 963 q 858 969 850 969 q 870 968 863 969 q 882 962 876 966 l 881 962 q 891 954 886 958 q 901 946 896 949 q 911 933 908 941 q 914 918 914 925 q 905 891 914 903 q 876 860 890 874 q 847 827 862 845 q 919 677 896 758 q 942 496 942 595 q 911 301 942 393 q 828 137 881 209 q 681 21 768 63 q 481 -22 593 -21 q 314 8 389 -21 q 181 90 239 38 q 166 74 174 82 q 151 57 159 65 q 134 38 142 47 q 118 19 125 28 q 105 10 113 13 q 90 7 98 7 q 77 8 83 7 q 66 15 71 10 l 66 15 q 57 22 62 18 q 47 30 52 26 q 36 43 39 35 q 33 60 33 52 q 43 85 33 73 l 115 167 z "},"":{"ha":878,"x_min":48,"x_max":796,"o":"m 694 954 q 705 980 694 969 q 733 991 716 991 l 758 991 q 785 980 774 991 q 796 954 796 969 l 796 378 q 422 -22 791 -22 q 48 379 52 -22 l 48 954 q 59 980 48 969 q 87 991 70 991 l 112 991 q 139 980 128 991 q 150 954 150 969 l 150 379 q 168 253 149 308 q 221 161 186 199 q 307 103 256 124 q 422 79 358 83 q 535 103 485 83 q 621 161 586 124 q 675 253 656 199 q 694 379 694 308 l 694 954 m 270 1177 q 258 1205 258 1190 q 269 1231 258 1219 q 297 1242 279 1242 l 335 1242 q 350 1237 340 1242 q 364 1229 360 1233 q 444 1137 402 1185 q 524 1044 486 1088 l 524 1044 q 534 1018 534 1031 q 524 992 534 1004 q 495 981 513 981 l 476 981 q 461 985 471 981 q 448 993 452 989 l 270 1177 z "},"":{"ha":878,"x_min":48,"x_max":796,"o":"m 694 954 q 705 980 694 969 q 733 991 716 991 l 758 991 q 785 980 774 991 q 796 954 796 969 l 796 378 q 422 -22 791 -22 q 48 379 52 -22 l 48 954 q 59 980 48 969 q 87 991 70 991 l 112 991 q 139 980 128 991 q 150 954 150 969 l 150 379 q 168 253 149 308 q 221 161 186 199 q 307 103 256 124 q 422 79 358 83 q 535 103 485 83 q 621 161 586 124 q 675 253 656 199 q 694 379 694 308 l 694 954 m 567 1242 q 595 1231 585 1242 q 605 1205 605 1219 q 593 1177 605 1188 q 499 1085 546 1131 q 406 993 453 1039 q 394 985 403 989 q 380 981 385 981 l 360 981 q 332 992 342 981 q 321 1018 321 1004 q 332 1045 321 1032 l 502 1230 q 516 1238 507 1234 q 530 1242 525 1242 l 567 1242 z "},"":{"ha":878,"x_min":48,"x_max":796,"o":"m 694 954 q 705 980 694 969 q 733 991 716 991 l 758 991 q 785 980 774 991 q 796 954 796 969 l 796 378 q 422 -22 791 -22 q 48 379 52 -22 l 48 954 q 59 980 48 969 q 87 991 70 991 l 112 991 q 139 980 128 991 q 150 954 150 969 l 150 379 q 168 253 149 308 q 221 161 186 199 q 307 103 256 124 q 422 79 358 83 q 535 103 485 83 q 621 161 586 124 q 675 253 656 199 q 694 379 694 308 l 694 954 m 557 987 q 542 992 552 987 q 529 1002 532 997 l 529 1002 q 477 1062 502 1034 q 427 1123 453 1090 q 410 1103 418 1114 q 393 1083 402 1093 q 360 1043 377 1063 q 328 1002 344 1022 l 328 1003 q 323 998 327 1000 q 315 992 319 995 q 306 989 310 990 q 298 987 301 987 l 273 987 q 244 998 255 987 q 234 1023 234 1009 q 243 1049 234 1036 l 388 1227 q 402 1237 391 1232 q 418 1242 412 1242 l 437 1242 q 452 1237 442 1242 q 467 1228 462 1232 q 540 1139 503 1183 q 613 1050 576 1095 q 623 1024 623 1037 q 612 999 623 1010 q 584 987 602 987 l 557 987 z "},"":{"ha":878,"x_min":48,"x_max":796,"o":"m 694 954 q 705 980 694 969 q 733 991 716 991 l 758 991 q 785 980 774 991 q 796 954 796 969 l 796 378 q 422 -22 791 -22 q 48 379 52 -22 l 48 954 q 59 980 48 969 q 87 991 70 991 l 112 991 q 139 980 128 991 q 150 954 150 969 l 150 379 q 168 253 149 308 q 221 161 186 199 q 307 103 256 124 q 422 79 358 83 q 535 103 485 83 q 621 161 586 124 q 675 253 656 199 q 694 379 694 308 l 694 954 m 315 985 q 288 996 299 985 q 277 1023 277 1007 l 277 1126 q 288 1154 277 1143 q 315 1165 299 1165 l 341 1165 q 368 1154 357 1165 q 379 1126 379 1143 l 379 1023 q 368 996 379 1007 q 341 985 357 985 l 315 985 m 515 985 q 488 996 499 985 q 477 1023 477 1007 l 477 1126 q 488 1154 477 1143 q 515 1165 499 1165 l 541 1165 q 568 1154 557 1165 q 579 1126 579 1143 l 579 1023 q 568 996 579 1007 q 541 985 557 985 l 515 985 z "},"":{"ha":747,"x_min":-62,"x_max":781,"o":"m 681 975 l 680 975 q 694 986 684 981 q 711 991 704 991 l 743 991 q 771 980 760 991 q 781 955 781 969 q 780 943 781 949 q 774 931 778 937 l 410 412 l 410 38 q 399 11 410 22 q 372 0 388 0 l 347 0 q 319 11 330 0 q 308 38 308 22 l 308 412 q 126 672 217 543 q -55 931 36 801 q -62 955 -62 943 q -52 980 -62 969 q -24 991 -41 991 l 7 991 q 25 986 15 991 q 39 975 35 981 l 359 517 l 681 975 m 505 1270 q 533 1259 522 1270 q 544 1233 544 1248 q 532 1205 544 1217 q 438 1113 485 1158 q 345 1021 391 1067 q 332 1014 342 1017 q 318 1010 323 1010 l 299 1010 q 271 1021 281 1010 q 260 1047 260 1032 q 271 1073 260 1061 l 441 1259 q 455 1266 446 1263 q 468 1270 464 1270 l 505 1270 z "},"":{"ha":797,"x_min":47,"x_max":773,"o":"m 149 360 l 456 360 q 613 410 553 360 q 671 545 670 456 q 455 730 671 727 l 149 730 l 149 360 m 456 832 q 773 545 768 831 q 748 421 772 475 q 677 330 724 368 q 443 258 587 258 l 149 258 l 149 38 q 138 11 149 22 q 111 0 127 0 l 85 0 q 59 11 70 0 q 47 38 47 22 l 47 954 q 59 980 47 969 q 85 991 70 991 l 111 991 q 138 980 127 991 q 149 954 149 969 l 149 832 l 456 832 z "},"":{"ha":668,"x_min":50,"x_max":619,"o":"m 233 543 q 244 570 233 559 q 271 581 255 581 q 420 615 357 578 l 420 614 q 473 734 472 647 q 428 839 471 804 q 306 879 381 879 q 256 875 286 879 q 231 867 243 873 q 205 854 218 861 q 183 836 193 846 q 165 810 173 825 q 149 725 149 781 l 149 37 q 138 11 149 22 q 112 0 127 0 l 87 0 q 60 11 71 0 q 50 37 50 22 l 50 730 q 73 846 50 798 q 100 890 84 871 q 134 926 115 910 q 215 966 172 954 q 306 978 257 979 q 488 916 414 978 q 572 735 572 852 q 526 583 572 646 q 509 561 518 572 q 488 543 499 551 q 529 517 511 531 q 563 484 547 503 q 618 298 618 412 q 542 80 619 160 q 269 0 459 -4 q 243 11 254 1 q 233 37 233 22 l 233 62 q 244 89 233 78 q 271 99 256 100 l 276 99 q 290 98 283 98 q 304 98 297 98 q 456 137 400 98 q 503 198 488 158 q 519 298 518 239 q 514 353 519 328 q 502 395 509 378 q 481 425 493 411 q 458 446 470 439 q 384 473 425 464 q 293 482 343 482 l 281 482 l 270 482 q 243 493 254 482 q 233 519 233 503 l 233 543 z "},"":{"ha":668,"x_min":16,"x_max":644,"o":"m 168 895 q 157 921 157 907 q 167 946 157 935 q 195 957 177 957 l 231 957 q 246 952 237 957 q 259 945 256 948 l 415 766 l 414 766 q 425 739 425 753 q 415 715 425 726 q 387 704 405 704 l 368 704 q 354 707 363 704 q 342 714 345 711 l 168 895 m 493 350 q 486 357 486 350 l 486 412 q 490 419 486 418 q 498 417 494 420 l 523 391 q 533 396 528 393 q 543 401 538 399 q 551 400 547 404 q 551 391 554 395 q 498 352 534 368 l 493 350 m 486 347 q 458 340 473 343 q 427 336 443 338 q 354 330 393 333 q 275 325 315 327 q 243 322 259 324 q 210 317 227 321 q 157 294 182 310 q 128 262 138 283 q 118 233 121 249 q 114 195 114 216 q 116 174 114 185 q 122 155 119 163 q 131 138 125 146 q 144 123 136 130 q 191 94 161 104 q 264 84 221 85 q 359 101 317 85 q 431 149 401 118 l 430 149 q 472 217 457 180 q 486 295 486 254 l 486 347 m 93 442 q 66 453 77 442 q 56 480 55 464 q 77 579 58 535 q 132 659 96 624 q 336 729 204 728 q 505 684 433 730 q 585 509 579 631 l 585 103 q 586 103 585 103 q 587 104 586 104 q 598 106 592 105 q 612 105 604 106 q 629 99 622 104 q 640 86 636 94 q 644 70 644 79 q 640 52 644 61 l 640 53 q 607 15 629 30 q 562 1 585 1 q 516 16 536 1 q 488 68 496 31 q 473 55 480 60 q 456 41 466 49 q 267 -16 377 -15 q 168 -2 212 -16 q 90 37 123 12 q 36 105 55 65 q 16 195 16 144 q 40 310 16 265 q 67 349 52 332 q 104 379 83 366 q 145 400 123 391 q 187 413 167 410 q 228 420 205 417 q 270 423 250 422 q 287 425 277 425 q 304 425 296 425 q 308 426 306 425 q 311 426 310 426 l 311 426 l 334 428 q 361 430 348 429 q 385 431 374 431 l 385 431 q 424 436 406 433 q 454 443 441 439 q 479 456 472 448 q 486 490 486 466 q 482 545 486 515 q 475 567 479 557 q 464 588 470 577 q 448 604 458 596 q 427 616 438 611 q 386 626 409 623 q 337 629 363 629 q 207 590 252 628 q 155 476 161 553 q 142 452 153 462 q 117 442 132 442 l 93 442 z "},"":{"ha":668,"x_min":16,"x_max":644,"o":"m 458 957 q 485 946 475 957 q 496 920 496 935 q 484 894 496 906 l 301 714 q 289 707 298 711 q 275 704 281 704 l 256 704 q 229 715 239 704 q 219 740 219 726 q 229 766 219 754 l 395 946 q 407 953 398 949 q 422 957 416 957 l 458 957 m 493 350 q 486 357 486 350 l 486 412 q 490 419 486 418 q 498 417 494 420 l 523 391 q 533 396 528 393 q 543 401 538 399 q 551 400 547 404 q 551 391 554 395 q 498 352 534 368 l 493 350 m 486 347 q 458 340 473 343 q 427 336 443 338 q 354 330 393 333 q 275 325 315 327 q 243 322 259 324 q 210 317 227 321 q 157 294 182 310 q 128 262 138 283 q 118 233 121 249 q 114 195 114 216 q 116 174 114 185 q 122 155 119 163 q 131 138 125 146 q 144 123 136 130 q 191 94 161 104 q 264 84 221 85 q 359 101 317 85 q 431 149 401 118 l 430 149 q 472 217 457 180 q 486 295 486 254 l 486 347 m 93 442 q 66 453 77 442 q 56 480 55 464 q 77 579 58 535 q 132 659 96 624 q 336 729 204 728 q 505 684 433 730 q 585 509 579 631 l 585 103 q 586 103 585 103 q 587 104 586 104 q 598 106 592 105 q 612 105 604 106 q 629 99 622 104 q 640 86 636 94 q 644 70 644 79 q 640 52 644 61 l 640 53 q 607 15 629 30 q 562 1 585 1 q 516 16 536 1 q 488 68 496 31 q 473 55 480 60 q 456 41 466 49 q 267 -16 377 -15 q 168 -2 212 -16 q 90 37 123 12 q 36 105 55 65 q 16 195 16 144 q 40 310 16 265 q 67 349 52 332 q 104 379 83 366 q 145 400 123 391 q 187 413 167 410 q 228 420 205 417 q 270 423 250 422 q 287 425 277 425 q 304 425 296 425 q 308 426 306 425 q 311 426 310 426 l 311 426 l 334 428 q 361 430 348 429 q 385 431 374 431 l 385 431 q 424 436 406 433 q 454 443 441 439 q 479 456 472 448 q 486 490 486 466 q 482 545 486 515 q 475 567 479 557 q 464 588 470 577 q 448 604 458 596 q 427 616 438 611 q 386 626 409 623 q 337 629 363 629 q 207 590 252 628 q 155 476 161 553 q 142 452 153 462 q 117 442 132 442 l 93 442 z "},"":{"ha":668,"x_min":16,"x_max":644,"o":"m 449 710 q 433 714 443 710 q 420 723 424 719 l 321 841 q 299 813 310 827 q 276 786 288 800 q 250 755 262 770 q 226 724 238 739 q 221 720 224 722 q 213 715 217 717 q 204 711 209 713 q 197 710 200 710 l 172 710 q 144 721 155 710 q 134 745 134 732 q 144 770 134 759 l 284 943 q 298 952 288 947 q 313 957 308 957 l 331 957 q 346 952 336 957 q 361 944 356 947 q 432 857 395 901 q 503 770 469 813 q 511 746 511 759 q 501 721 511 732 q 473 710 491 710 l 449 710 m 493 350 q 486 357 486 350 l 486 412 q 490 419 486 418 q 498 417 494 420 l 523 391 q 533 396 528 393 q 543 401 538 399 q 551 400 547 404 q 551 391 554 395 q 498 352 534 368 l 493 350 m 486 347 q 458 340 473 343 q 427 336 443 338 q 354 330 393 333 q 275 325 315 327 q 243 322 259 324 q 210 317 227 321 q 157 294 182 310 q 128 262 138 283 q 118 233 121 249 q 114 195 114 216 q 116 174 114 185 q 122 155 119 163 q 131 138 125 146 q 144 123 136 130 q 191 94 161 104 q 264 84 221 85 q 359 101 317 85 q 431 149 401 118 l 430 149 q 472 217 457 180 q 486 295 486 254 l 486 347 m 93 442 q 66 453 77 442 q 56 480 55 464 q 77 579 58 535 q 132 659 96 624 q 336 729 204 728 q 505 684 433 730 q 585 509 579 631 l 585 103 q 586 103 585 103 q 587 104 586 104 q 598 106 592 105 q 612 105 604 106 q 629 99 622 104 q 640 86 636 94 q 644 70 644 79 q 640 52 644 61 l 640 53 q 607 15 629 30 q 562 1 585 1 q 516 16 536 1 q 488 68 496 31 q 473 55 480 60 q 456 41 466 49 q 267 -16 377 -15 q 168 -2 212 -16 q 90 37 123 12 q 36 105 55 65 q 16 195 16 144 q 40 310 16 265 q 67 349 52 332 q 104 379 83 366 q 145 400 123 391 q 187 413 167 410 q 228 420 205 417 q 270 423 250 422 q 287 425 277 425 q 304 425 296 425 q 308 426 306 425 q 311 426 310 426 l 311 426 l 334 428 q 361 430 348 429 q 385 431 374 431 l 385 431 q 424 436 406 433 q 454 443 441 439 q 479 456 472 448 q 486 490 486 466 q 482 545 486 515 q 475 567 479 557 q 464 588 470 577 q 448 604 458 596 q 427 616 438 611 q 386 626 409 623 q 337 629 363 629 q 207 590 252 628 q 155 476 161 553 q 142 452 153 462 q 117 442 132 442 l 93 442 z "},"":{"ha":668,"x_min":16,"x_max":644,"o":"m 156 723 q 130 734 141 723 q 119 760 119 745 q 155 849 121 810 q 194 882 172 870 q 241 895 216 895 q 299 880 271 895 q 324 867 315 873 q 342 857 334 862 q 344 854 343 855 q 361 843 353 848 q 378 831 370 837 q 380 830 379 831 q 385 828 383 829 q 399 823 395 823 q 415 830 410 823 q 423 854 423 840 q 434 880 423 869 q 460 891 444 891 l 485 891 q 511 880 500 891 q 522 854 522 869 q 494 767 522 806 q 399 724 458 724 q 338 740 368 724 q 315 754 326 747 q 294 768 304 761 q 289 772 292 770 q 283 777 286 774 q 274 784 278 780 q 264 791 269 787 l 264 790 q 253 794 260 792 q 240 796 245 795 q 233 793 237 795 q 228 787 230 791 q 221 774 222 781 q 219 760 219 767 q 208 733 219 744 q 182 723 197 723 l 156 723 m 493 350 q 486 357 486 350 l 486 412 q 490 419 486 418 q 498 417 494 420 l 523 391 q 533 396 528 393 q 543 401 538 399 q 551 400 547 404 q 551 391 554 395 q 498 352 534 368 l 493 350 m 486 347 q 458 340 473 343 q 427 336 443 338 q 354 330 393 333 q 275 325 315 327 q 243 322 259 324 q 210 317 227 321 q 157 294 182 310 q 128 262 138 283 q 118 233 121 249 q 114 195 114 216 q 116 174 114 185 q 122 155 119 163 q 131 138 125 146 q 144 123 136 130 q 191 94 161 104 q 264 84 221 85 q 359 101 317 85 q 431 149 401 118 l 430 149 q 472 217 457 180 q 486 295 486 254 l 486 347 m 93 442 q 66 453 77 442 q 56 480 55 464 q 77 579 58 535 q 132 659 96 624 q 336 729 204 728 q 505 684 433 730 q 585 509 579 631 l 585 103 q 586 103 585 103 q 587 104 586 104 q 598 106 592 105 q 612 105 604 106 q 629 99 622 104 q 640 86 636 94 q 644 70 644 79 q 640 52 644 61 l 640 53 q 607 15 629 30 q 562 1 585 1 q 516 16 536 1 q 488 68 496 31 q 473 55 480 60 q 456 41 466 49 q 267 -16 377 -15 q 168 -2 212 -16 q 90 37 123 12 q 36 105 55 65 q 16 195 16 144 q 40 310 16 265 q 67 349 52 332 q 104 379 83 366 q 145 400 123 391 q 187 413 167 410 q 228 420 205 417 q 270 423 250 422 q 287 425 277 425 q 304 425 296 425 q 308 426 306 425 q 311 426 310 426 l 311 426 l 334 428 q 361 430 348 429 q 385 431 374 431 l 385 431 q 424 436 406 433 q 454 443 441 439 q 479 456 472 448 q 486 490 486 466 q 482 545 486 515 q 475 567 479 557 q 464 588 470 577 q 448 604 458 596 q 427 616 438 611 q 386 626 409 623 q 337 629 363 629 q 207 590 252 628 q 155 476 161 553 q 142 452 153 462 q 117 442 132 442 l 93 442 z "},"":{"ha":668,"x_min":16,"x_max":644,"o":"m 214 707 q 188 718 198 707 q 177 745 177 729 l 177 845 q 188 872 177 861 q 214 882 198 882 l 239 882 q 265 872 254 882 q 275 845 275 861 l 275 745 q 265 718 275 729 q 239 707 254 707 l 214 707 m 408 707 q 381 718 392 707 q 370 745 370 729 l 370 845 q 381 872 370 861 q 408 882 392 882 l 433 882 q 459 872 448 882 q 470 845 470 861 l 470 745 q 459 718 470 729 q 433 707 448 707 l 408 707 m 493 350 q 486 357 486 350 l 486 412 q 490 419 486 418 q 498 417 494 420 l 523 391 q 533 396 528 393 q 543 401 538 399 q 551 400 547 404 q 551 391 554 395 q 498 352 534 368 l 493 350 m 486 347 q 458 340 473 343 q 427 336 443 338 q 354 330 393 333 q 275 325 315 327 q 243 322 259 324 q 210 317 227 321 q 157 294 182 310 q 128 262 138 283 q 118 233 121 249 q 114 195 114 216 q 116 174 114 185 q 122 155 119 163 q 131 138 125 146 q 144 123 136 130 q 191 94 161 104 q 264 84 221 85 q 359 101 317 85 q 431 149 401 118 l 430 149 q 472 217 457 180 q 486 295 486 254 l 486 347 m 93 442 q 66 453 77 442 q 56 480 55 464 q 77 579 58 535 q 132 659 96 624 q 336 729 204 728 q 505 684 433 730 q 585 509 579 631 l 585 103 q 586 103 585 103 q 587 104 586 104 q 598 106 592 105 q 612 105 604 106 q 629 99 622 104 q 640 86 636 94 q 644 70 644 79 q 640 52 644 61 l 640 53 q 607 15 629 30 q 562 1 585 1 q 516 16 536 1 q 488 68 496 31 q 473 55 480 60 q 456 41 466 49 q 267 -16 377 -15 q 168 -2 212 -16 q 90 37 123 12 q 36 105 55 65 q 16 195 16 144 q 40 310 16 265 q 67 349 52 332 q 104 379 83 366 q 145 400 123 391 q 187 413 167 410 q 228 420 205 417 q 270 423 250 422 q 287 425 277 425 q 304 425 296 425 q 308 426 306 425 q 311 426 310 426 l 311 426 l 334 428 q 361 430 348 429 q 385 431 374 431 l 385 431 q 424 436 406 433 q 454 443 441 439 q 479 456 472 448 q 486 490 486 466 q 482 545 486 515 q 475 567 479 557 q 464 588 470 577 q 448 604 458 596 q 427 616 438 611 q 386 626 409 623 q 337 629 363 629 q 207 590 252 628 q 155 476 161 553 q 142 452 153 462 q 117 442 132 442 l 93 442 z "},"":{"ha":668,"x_min":16,"x_max":644,"o":"m 470 875 q 427 772 469 817 q 323 730 385 730 q 220 772 263 730 q 188 819 199 794 q 177 875 178 844 q 190 935 177 909 q 203 958 195 947 q 221 979 212 970 q 268 1009 241 997 q 323 1022 294 1021 q 379 1011 353 1021 q 427 979 405 1001 q 470 876 469 936 l 470 875 m 370 876 q 358 911 370 897 q 323 924 345 924 q 291 911 303 924 q 275 875 277 897 q 292 842 277 857 q 323 829 304 829 q 357 842 344 829 q 370 876 370 856 m 493 350 q 486 357 486 350 l 486 412 q 490 419 486 418 q 498 417 494 420 l 523 391 q 533 396 528 393 q 543 401 538 399 q 551 400 547 404 q 551 391 554 395 q 498 352 534 368 l 493 350 m 486 347 q 458 340 473 343 q 427 336 443 338 q 354 330 393 333 q 275 325 315 327 q 243 322 259 324 q 210 317 227 321 q 157 294 182 310 q 128 262 138 283 q 118 233 121 249 q 114 195 114 216 q 116 174 114 185 q 122 155 119 163 q 131 138 125 146 q 144 123 136 130 q 191 94 161 104 q 264 84 221 85 q 359 101 317 85 q 431 149 401 118 l 430 149 q 472 217 457 180 q 486 295 486 254 l 486 347 m 93 442 q 66 453 77 442 q 56 480 55 464 q 77 579 58 535 q 132 659 96 624 q 336 729 204 728 q 505 684 433 730 q 585 509 579 631 l 585 103 q 586 103 585 103 q 587 104 586 104 q 598 106 592 105 q 612 105 604 106 q 629 99 622 104 q 640 86 636 94 q 644 70 644 79 q 640 52 644 61 l 640 53 q 607 15 629 30 q 562 1 585 1 q 516 16 536 1 q 488 68 496 31 q 473 55 480 60 q 456 41 466 49 q 267 -16 377 -15 q 168 -2 212 -16 q 90 37 123 12 q 36 105 55 65 q 16 195 16 144 q 40 310 16 265 q 67 349 52 332 q 104 379 83 366 q 145 400 123 391 q 187 413 167 410 q 228 420 205 417 q 270 423 250 422 q 287 425 277 425 q 304 425 296 425 q 308 426 306 425 q 311 426 310 426 l 311 426 l 334 428 q 361 430 348 429 q 385 431 374 431 l 385 431 q 424 436 406 433 q 454 443 441 439 q 479 456 472 448 q 486 490 486 466 q 482 545 486 515 q 475 567 479 557 q 464 588 470 577 q 448 604 458 596 q 427 616 438 611 q 386 626 409 623 q 337 629 363 629 q 207 590 252 628 q 155 476 161 553 q 142 452 153 462 q 117 442 132 442 l 93 442 z "},"":{"ha":1235,"x_min":35,"x_max":1136,"o":"m 1036 414 q 1019 494 1032 459 q 983 559 1005 530 q 824 629 932 629 q 671 566 724 629 l 671 566 q 631 500 647 537 q 608 414 616 463 l 1036 414 m 515 351 q 515 351 515 351 q 514 351 515 351 q 505 357 505 348 l 505 412 q 509 419 505 418 q 517 417 513 420 l 543 391 q 552 396 548 393 q 562 400 557 398 q 569 398 566 402 q 569 390 572 394 q 517 352 551 367 l 515 351 m 505 347 q 477 341 492 343 q 446 336 463 338 q 373 330 412 333 q 293 325 334 327 q 261 322 277 324 q 229 317 245 321 q 201 308 214 313 q 176 294 189 302 q 158 280 166 289 q 145 258 151 271 q 134 195 134 238 q 136 175 134 186 q 144 151 139 163 q 167 120 150 135 q 283 84 196 85 q 379 100 338 85 q 449 149 420 116 q 505 295 505 212 l 505 347 m 111 442 q 85 453 96 442 q 74 480 74 464 q 152 659 80 589 q 237 711 186 693 q 355 729 288 728 q 525 684 455 730 q 582 610 561 658 q 608 641 595 627 q 637 668 622 656 q 722 713 675 697 q 824 729 769 728 q 968 699 907 728 q 1067 610 1029 669 q 1119 502 1102 559 q 1136 375 1136 444 q 1136 362 1136 370 q 1135 349 1136 355 q 1123 325 1135 335 q 1099 315 1112 315 l 606 315 q 625 228 612 267 q 660 157 637 189 q 822 84 707 85 q 900 96 864 84 q 964 130 936 108 q 1009 188 991 153 q 1034 265 1027 222 q 1046 287 1036 278 q 1069 296 1057 296 l 1095 296 q 1121 283 1111 296 q 1132 255 1131 269 q 1100 146 1124 197 q 1036 62 1075 96 q 941 5 994 25 q 822 -16 887 -14 q 664 23 730 -14 q 558 130 597 60 q 485 49 530 81 q 393 1 442 18 q 286 -16 343 -15 q 187 -2 231 -16 q 109 37 143 12 q 55 105 75 65 q 35 195 35 144 q 58 309 35 263 q 86 349 70 332 q 123 379 103 366 q 164 400 142 392 q 206 413 185 409 q 247 420 226 418 q 290 423 268 423 q 294 424 292 423 q 300 424 297 424 q 309 425 306 424 q 325 426 317 425 q 340 427 332 426 q 373 429 357 428 q 403 431 389 431 q 444 436 427 433 q 472 442 461 439 q 498 456 488 448 q 503 471 501 463 q 505 490 505 480 q 504 519 505 505 q 502 545 503 533 q 482 588 497 566 q 466 605 476 597 q 445 617 456 612 q 406 626 428 623 q 355 629 385 629 q 173 476 189 626 q 161 452 172 463 q 136 442 150 442 l 111 442 z "},"":{"ha":694,"x_min":19,"x_max":641,"o":"m 602 292 q 630 279 619 292 q 639 250 641 267 q 422 -5 608 37 q 428 -7 425 -6 q 433 -10 430 -9 q 478 -100 477 -37 q 424 -204 477 -173 q 376 -222 404 -216 q 319 -228 349 -228 q 284 -225 300 -228 q 253 -217 268 -222 l 253 -218 l 237 -214 q 221 -210 229 -212 q 205 -205 213 -208 q 184 -184 189 -199 q 184 -155 178 -169 q 189 -142 186 -149 q 195 -130 193 -136 q 215 -111 201 -117 q 243 -112 229 -106 q 279 -124 260 -121 q 319 -129 298 -128 q 369 -118 346 -129 q 379 -100 378 -113 q 375 -94 378 -96 l 376 -94 q 362 -89 368 -90 q 348 -87 355 -87 q 299 -98 319 -87 q 290 -101 296 -100 q 279 -102 285 -102 q 268 -100 273 -102 q 258 -96 262 -99 l 240 -84 q 228 -71 232 -79 q 224 -54 224 -62 q 232 -31 224 -41 l 255 -2 q 206 13 228 3 q 165 36 184 22 q 130 65 146 49 q 98 102 114 82 q 40 213 60 151 q 19 343 19 274 q 39 488 19 420 q 100 610 60 555 q 205 697 141 666 q 355 729 269 728 q 538 668 458 729 q 633 487 616 603 q 624 458 635 471 q 597 446 613 446 l 572 446 q 548 455 559 446 q 535 477 538 464 q 512 544 529 515 q 474 592 496 574 q 355 629 425 629 q 295 623 323 629 q 245 606 267 617 q 204 577 223 593 q 174 543 185 560 q 132 448 147 498 q 118 343 117 397 q 176 159 118 234 q 245 103 205 121 q 340 84 286 85 q 479 131 425 84 l 479 131 q 540 258 530 176 q 552 282 541 272 q 576 292 563 292 l 602 292 z "},"":{"ha":694,"x_min":10,"x_max":647,"o":"m 546 414 q 529 493 542 456 q 492 559 515 530 q 425 612 465 595 q 331 629 385 629 q 250 612 288 629 q 182 564 212 595 q 139 499 156 536 q 114 414 121 462 l 546 414 m 113 315 q 129 227 117 267 q 163 156 142 186 q 228 102 187 119 q 326 84 269 85 q 468 131 415 85 q 541 267 521 177 q 553 288 543 279 q 576 296 564 296 l 602 296 q 630 284 618 296 q 639 254 641 271 q 538 57 621 129 q 444 3 496 22 q 329 -16 392 -15 q 87 96 163 -14 q 12 357 10 200 q 110 630 15 536 q 329 729 202 729 q 475 697 413 728 q 576 610 537 666 q 629 500 611 559 q 647 375 647 441 q 647 362 647 370 q 646 349 647 354 q 634 325 645 335 q 610 315 623 315 l 113 315 m 178 895 q 167 921 167 907 q 177 946 167 935 q 205 957 187 957 l 241 957 q 256 952 247 957 q 269 945 266 948 l 269 945 q 347 855 309 900 q 425 765 386 810 q 434 739 434 753 q 424 715 434 726 q 397 704 414 704 l 378 704 q 364 708 374 704 q 351 715 355 711 l 178 895 z "},"":{"ha":694,"x_min":10,"x_max":647,"o":"m 546 414 q 529 493 542 456 q 492 559 515 530 q 425 612 465 595 q 331 629 385 629 q 250 612 288 629 q 182 564 212 595 q 139 499 156 536 q 114 414 121 462 l 546 414 m 113 315 q 129 227 117 267 q 163 156 142 186 q 228 102 187 119 q 326 84 269 85 q 468 131 415 85 q 541 267 521 177 q 553 288 543 279 q 576 296 564 296 l 602 296 q 630 284 618 296 q 639 254 641 271 q 538 57 621 129 q 444 3 496 22 q 329 -16 392 -15 q 87 96 163 -14 q 12 357 10 200 q 110 630 15 536 q 329 729 202 729 q 475 697 413 728 q 576 610 537 666 q 629 500 611 559 q 647 375 647 441 q 647 362 647 370 q 646 349 647 354 q 634 325 645 335 q 610 315 623 315 l 113 315 m 466 957 q 494 946 484 957 q 504 921 504 935 q 492 894 504 906 l 310 714 q 298 707 307 711 q 284 704 290 704 l 265 704 q 237 715 248 704 q 227 740 227 726 q 238 766 227 753 l 403 946 q 416 953 407 949 q 430 957 425 957 l 466 957 z "},"":{"ha":694,"x_min":10,"x_max":647,"o":"m 546 414 q 529 493 542 456 q 492 559 515 530 q 425 612 465 595 q 331 629 385 629 q 250 612 288 629 q 182 564 212 595 q 139 499 156 536 q 114 414 121 462 l 546 414 m 113 315 q 129 227 117 267 q 163 156 142 186 q 228 102 187 119 q 326 84 269 85 q 468 131 415 85 q 541 267 521 177 q 553 288 543 279 q 576 296 564 296 l 602 296 q 630 284 618 296 q 639 254 641 271 q 538 57 621 129 q 444 3 496 22 q 329 -16 392 -15 q 87 96 163 -14 q 12 357 10 200 q 110 630 15 536 q 329 729 202 729 q 475 697 413 728 q 576 610 537 666 q 629 500 611 559 q 647 375 647 441 q 647 362 647 370 q 646 349 647 354 q 634 325 645 335 q 610 315 623 315 l 113 315 m 457 710 q 442 714 452 710 q 429 724 433 719 q 379 783 404 755 q 330 841 355 810 q 324 834 327 838 q 318 827 321 831 q 276 775 297 801 q 235 724 254 749 q 220 715 230 720 q 205 710 211 710 l 181 710 q 153 721 163 710 q 143 746 143 732 q 151 770 143 758 l 292 943 q 306 952 296 947 q 322 957 317 957 l 340 957 q 355 952 345 957 q 369 944 366 948 l 511 770 q 520 746 520 760 q 510 721 520 732 q 482 710 500 710 l 457 710 z "},"":{"ha":694,"x_min":10,"x_max":647,"o":"m 546 414 q 529 493 542 456 q 492 559 515 530 q 425 612 465 595 q 331 629 385 629 q 250 612 288 629 q 182 564 212 595 q 139 499 156 536 q 114 414 121 462 l 546 414 m 113 315 q 129 227 117 267 q 163 156 142 186 q 228 102 187 119 q 326 84 269 85 q 468 131 415 85 q 541 267 521 177 q 553 288 543 279 q 576 296 564 296 l 602 296 q 630 284 618 296 q 639 254 641 271 q 538 57 621 129 q 444 3 496 22 q 329 -16 392 -15 q 87 96 163 -14 q 12 357 10 200 q 110 630 15 536 q 329 729 202 729 q 475 697 413 728 q 576 610 537 666 q 629 500 611 559 q 647 375 647 441 q 647 362 647 370 q 646 349 647 354 q 634 325 645 335 q 610 315 623 315 l 113 315 m 223 707 q 197 718 208 707 q 186 745 186 729 l 186 845 q 197 872 186 861 q 223 882 208 882 l 248 882 q 275 872 264 882 q 286 845 286 861 l 286 745 q 275 718 286 729 q 248 707 264 707 l 223 707 m 417 707 q 391 718 401 707 q 380 745 380 729 l 380 845 q 391 872 380 861 q 417 882 401 882 l 442 882 q 468 872 458 882 q 479 845 479 861 l 479 745 q 468 718 479 729 q 442 707 458 707 l 417 707 z "},"":{"ha":180,"x_min":-83,"x_max":185,"o":"m 72 0 q 45 11 56 0 q 35 37 35 22 l 35 677 q 45 703 35 692 q 72 714 56 714 l 96 714 q 123 703 112 714 q 134 677 134 692 l 134 37 q 123 11 134 22 q 96 0 112 0 l 72 0 m -72 895 q -83 921 -83 906 q -73 946 -83 935 q -45 957 -63 957 l -9 957 q 6 953 -3 957 q 19 945 16 949 l 176 765 q 185 739 185 752 q 175 715 185 726 q 147 704 165 704 l 128 704 q 114 708 123 704 q 102 715 105 711 l -72 895 z "},"":{"ha":180,"x_min":-20,"x_max":256,"o":"m 75 0 q 49 11 60 0 q 39 37 39 22 l 39 677 q 49 703 39 692 q 75 714 60 714 l 100 714 q 126 703 116 714 q 137 677 137 692 l 137 37 q 126 11 137 22 q 100 0 116 0 l 75 0 m 219 957 q 247 946 237 957 q 256 921 256 935 q 245 894 256 905 l 62 713 q 50 707 59 710 q 37 704 41 704 l 18 704 q -10 715 1 704 q -20 739 -20 726 q -9 766 -20 753 l 155 946 q 168 953 159 949 q 183 957 178 957 l 219 957 z "},"":{"ha":180,"x_min":-104,"x_max":274,"o":"m 73 0 q 47 11 58 0 q 36 37 36 22 l 36 677 q 47 703 36 692 q 73 714 58 714 l 98 714 q 124 703 114 714 q 135 677 135 692 l 135 37 q 124 11 135 22 q 98 0 114 0 l 73 0 m 210 710 q 195 714 205 710 q 182 724 186 719 q 133 783 157 755 q 83 841 109 810 q 77 834 80 838 q 71 827 75 831 q 29 775 50 801 q -12 724 8 749 q -25 715 -15 720 q -41 710 -35 710 l -66 710 q -94 721 -83 710 q -104 746 -104 732 q -95 770 -104 759 l 46 943 q 60 952 50 947 q 75 957 70 957 l 94 957 q 100 956 96 957 q 109 952 104 954 q 117 948 113 951 q 123 944 121 946 l 264 770 q 274 746 274 759 q 263 721 274 732 q 236 710 253 710 l 210 710 z "},"":{"ha":180,"x_min":-62,"x_max":231,"o":"m 73 0 q 47 11 58 0 q 36 37 36 22 l 36 677 q 47 703 36 692 q 73 714 58 714 l 98 714 q 124 703 114 714 q 135 677 135 692 l 135 37 q 124 11 135 22 q 98 0 114 0 l 73 0 m -24 707 q -51 718 -41 707 q -62 745 -62 729 l -62 845 q -51 872 -62 861 q -24 882 -41 882 l 0 882 q 27 872 16 882 q 37 845 37 861 l 37 745 q 27 718 37 729 q 0 707 16 707 l -24 707 m 169 707 q 143 718 153 707 q 132 745 132 729 l 132 845 q 143 872 132 861 q 169 882 153 882 l 195 882 q 221 872 210 882 q 231 845 231 861 l 231 745 q 221 718 231 729 q 195 707 210 707 l 169 707 z "},"":{"ha":721,"x_min":16,"x_max":668,"o":"m 260 848 q 229 867 246 857 q 194 886 212 876 q 174 918 174 897 q 178 934 174 926 q 189 947 182 942 l 209 965 q 229 972 216 971 q 250 969 242 974 q 307 935 279 953 q 357 901 335 918 q 386 916 372 908 q 413 932 399 924 q 450 953 432 943 q 488 974 468 963 q 512 977 498 979 q 533 966 526 975 l 532 966 q 542 956 537 961 q 551 946 547 951 q 558 933 555 941 q 562 920 562 926 q 542 888 562 900 l 437 829 q 610 594 553 715 q 667 345 668 473 q 586 98 667 203 q 340 -14 500 -11 q 99 98 182 -11 q 16 346 16 204 q 37 480 16 418 q 99 594 58 543 q 202 675 142 647 q 341 705 263 703 q 384 702 363 705 q 426 696 406 700 q 425 696 425 696 q 382 744 401 723 q 344 781 362 765 l 300 757 q 258 733 279 745 q 215 709 237 720 q 192 705 205 703 q 171 715 178 707 q 161 725 166 720 q 152 734 156 730 q 140 761 140 747 q 145 779 140 770 q 159 793 150 788 l 260 848 m 115 346 q 176 161 115 238 q 341 85 232 88 q 509 161 454 89 q 568 346 568 238 q 509 530 568 455 q 342 606 454 603 q 176 530 231 604 q 115 346 115 454 z "},"":{"ha":694,"x_min":50,"x_max":609,"o":"m 50 677 q 60 703 50 692 q 86 714 71 714 l 112 714 q 138 703 127 714 q 149 677 149 692 l 149 654 q 155 660 152 658 q 161 665 158 662 q 165 668 163 667 l 169 672 q 345 729 240 728 q 534 660 462 729 q 590 576 571 625 q 609 461 608 526 l 609 37 q 598 11 609 22 q 572 0 587 0 l 547 0 q 520 11 531 0 q 509 37 509 22 l 509 458 q 498 537 509 505 q 464 589 487 570 q 345 629 416 629 q 261 610 298 628 q 201 565 224 593 q 163 488 177 530 q 149 399 149 446 l 149 37 q 138 11 149 22 q 112 0 127 0 l 86 0 q 60 11 71 0 q 50 37 50 22 l 50 677 m 168 723 q 141 734 152 723 q 130 760 130 745 q 165 849 132 810 q 205 882 183 870 q 252 895 227 895 q 311 880 281 895 q 336 867 326 873 q 353 857 345 862 l 354 855 q 374 842 364 848 q 393 829 384 836 l 393 830 q 410 823 405 823 q 426 830 420 823 q 434 854 434 840 q 445 880 434 869 q 471 891 455 891 l 496 891 q 522 880 511 891 q 533 854 533 869 q 526 808 533 830 q 505 767 519 787 q 410 724 469 724 q 349 740 377 724 q 327 754 338 747 q 306 768 316 761 q 298 773 302 771 q 291 779 294 776 q 283 785 288 782 q 274 791 279 787 q 262 794 269 792 q 252 796 255 795 q 239 787 244 793 q 229 760 229 775 q 219 733 229 744 q 192 723 208 723 l 168 723 z "},"":{"ha":721,"x_min":16,"x_max":667,"o":"m 16 357 q 37 495 16 431 q 98 613 58 559 q 342 729 182 726 q 586 613 501 726 q 646 495 626 559 q 667 357 667 431 q 586 102 667 211 q 340 -16 502 -12 q 202 16 262 -14 q 98 102 141 45 q 38 220 60 155 q 16 357 16 286 m 115 357 q 176 163 115 244 q 245 105 205 124 q 341 84 286 85 q 509 163 453 87 q 568 357 568 243 q 509 551 568 469 q 342 629 454 626 q 176 551 231 627 q 115 357 115 467 m 193 895 q 184 908 188 901 q 181 922 181 916 q 191 946 181 936 q 219 957 201 957 l 256 957 q 271 953 261 957 q 283 945 280 949 l 440 765 q 449 739 449 751 q 439 715 449 726 q 411 704 429 704 l 393 704 q 378 708 387 704 q 366 715 369 711 l 193 895 z "},"":{"ha":721,"x_min":16,"x_max":667,"o":"m 16 357 q 37 495 16 431 q 98 613 58 559 q 342 729 182 726 q 586 613 501 726 q 646 495 626 559 q 667 357 667 431 q 586 102 667 211 q 340 -16 502 -12 q 202 16 262 -14 q 98 102 141 45 q 38 220 60 155 q 16 357 16 286 m 115 357 q 176 163 115 244 q 245 105 205 124 q 341 84 286 85 q 509 163 453 87 q 568 357 568 243 q 509 551 568 469 q 342 629 454 626 q 176 551 231 627 q 115 357 115 467 m 480 957 q 508 946 498 957 q 518 921 518 935 q 507 894 518 907 l 325 714 q 312 707 321 711 q 298 704 302 704 l 280 704 q 252 715 262 704 q 242 740 242 726 q 253 766 242 753 l 417 946 q 430 953 420 949 q 444 957 439 957 l 480 957 z "},"":{"ha":721,"x_min":16,"x_max":667,"o":"m 16 357 q 37 495 16 431 q 98 613 58 559 q 342 729 182 726 q 586 613 501 726 q 646 495 626 559 q 667 357 667 431 q 586 102 667 211 q 340 -16 502 -12 q 202 16 262 -14 q 98 102 141 45 q 38 220 60 155 q 16 357 16 286 m 115 357 q 176 163 115 244 q 245 105 205 124 q 341 84 286 85 q 509 163 453 87 q 568 357 568 243 q 509 551 568 469 q 342 629 454 626 q 176 551 231 627 q 115 357 115 467 m 472 710 q 456 714 467 710 q 444 724 446 719 q 394 783 418 755 q 345 841 370 810 q 338 834 341 838 q 333 827 336 831 q 290 775 311 801 q 250 724 269 749 q 236 715 246 720 q 220 710 226 710 l 195 710 q 168 721 178 710 q 157 746 157 732 q 166 770 157 759 l 307 943 q 313 948 309 945 q 321 952 317 950 q 330 956 326 954 q 336 957 334 957 l 355 957 q 370 952 360 957 q 384 944 380 948 l 526 770 q 535 746 535 759 q 525 721 535 732 q 497 710 514 710 l 472 710 z "},"":{"ha":721,"x_min":16,"x_max":667,"o":"m 16 357 q 37 495 16 431 q 98 613 58 559 q 342 729 182 726 q 586 613 501 726 q 646 495 626 559 q 667 357 667 431 q 586 102 667 211 q 340 -16 502 -12 q 202 16 262 -14 q 98 102 141 45 q 38 220 60 155 q 16 357 16 286 m 115 357 q 176 163 115 244 q 245 105 205 124 q 341 84 286 85 q 509 163 453 87 q 568 357 568 243 q 509 551 568 469 q 342 629 454 626 q 176 551 231 627 q 115 357 115 467 m 182 723 q 156 734 167 723 q 145 760 144 745 q 180 849 146 812 q 220 882 198 870 q 266 895 241 895 q 326 880 295 895 q 351 867 341 873 q 368 857 360 862 l 369 855 q 389 842 379 848 q 408 829 398 836 l 408 830 q 425 823 420 823 q 440 830 436 823 q 448 854 448 840 q 459 880 448 869 q 485 891 469 891 l 511 891 q 536 880 526 891 q 547 854 547 869 q 519 767 547 806 q 425 724 485 724 q 363 740 393 724 q 320 768 338 755 q 314 772 317 770 q 309 777 311 774 q 299 784 303 780 q 290 791 295 787 l 290 790 q 278 794 285 792 q 266 796 271 795 q 254 787 259 794 q 244 760 244 775 q 233 733 244 744 q 207 723 222 723 l 182 723 z "},"":{"ha":721,"x_min":16,"x_max":667,"o":"m 16 357 q 37 495 16 431 q 98 613 58 559 q 342 729 182 726 q 586 613 501 726 q 646 495 626 559 q 667 357 667 431 q 586 102 667 211 q 340 -16 502 -12 q 202 16 262 -14 q 98 102 141 45 q 38 220 60 155 q 16 357 16 286 m 115 357 q 176 163 115 244 q 245 105 205 124 q 341 84 286 85 q 509 163 453 87 q 568 357 568 243 q 509 551 568 469 q 342 629 454 626 q 176 551 231 627 q 115 357 115 467 m 238 707 q 212 718 222 707 q 201 745 201 729 l 201 845 q 212 872 201 861 q 238 882 222 882 l 262 882 q 289 872 279 882 q 300 845 300 861 l 300 745 q 289 718 300 729 q 262 707 279 707 l 238 707 m 432 707 q 405 718 416 707 q 395 745 395 729 l 395 845 q 405 872 395 861 q 432 882 416 882 l 456 882 q 483 872 472 882 q 494 845 494 861 l 494 745 q 483 718 494 729 q 456 707 472 707 l 432 707 z "},"":{"ha":833,"x_min":43,"x_max":745,"o":"m 81 303 q 55 313 66 303 q 43 339 43 323 l 43 365 q 55 391 43 380 q 81 402 66 402 l 709 402 q 735 391 724 402 q 745 365 745 380 l 745 339 q 735 313 745 323 q 709 303 724 303 l 81 303 m 394 528 q 307 616 306 528 q 395 703 308 703 q 483 617 478 699 q 395 528 484 528 l 394 528 m 394 0 q 307 89 306 1 q 395 176 307 175 q 483 90 478 171 q 395 0 484 1 l 394 0 z "},"":{"ha":721,"x_min":4,"x_max":666,"o":"m 481 578 q 341 629 428 627 q 176 551 231 627 q 115 357 115 467 q 121 287 115 319 q 140 223 127 254 l 481 578 m 197 138 q 341 84 252 85 q 438 106 396 85 q 509 163 480 126 q 552 252 537 203 q 568 357 568 300 q 560 430 568 395 q 538 496 552 465 l 197 138 m 579 681 q 606 692 590 692 q 632 681 619 692 l 649 663 q 657 651 654 658 q 660 637 660 644 q 657 624 660 631 q 650 611 654 616 q 631 592 640 602 q 612 572 621 582 q 653 472 640 526 q 666 357 666 418 q 645 220 666 286 q 585 102 624 155 q 481 16 543 45 q 340 -16 420 -14 q 221 7 275 -14 q 127 65 168 28 q 106 43 117 55 q 85 21 95 32 q 73 13 79 16 q 58 10 66 10 q 33 20 43 10 l 14 39 q 4 64 4 50 q 6 78 4 71 q 14 90 9 85 l 68 147 q 16 357 16 239 q 36 495 16 431 q 98 613 57 559 q 341 729 183 726 q 458 708 406 728 q 551 650 511 688 l 579 681 z "},"":{"ha":694,"x_min":50,"x_max":609,"o":"m 609 37 q 598 11 609 22 q 572 0 587 0 l 547 0 q 520 11 531 0 q 509 37 509 22 l 509 58 q 501 51 506 54 q 492 43 496 47 q 412 1 457 16 q 314 -16 367 -15 q 211 4 259 -15 q 126 56 163 22 q 69 140 89 91 q 50 252 50 189 l 50 677 q 60 703 50 692 q 86 714 71 714 l 112 714 q 138 703 127 714 q 149 677 149 692 l 149 256 q 195 125 149 165 q 314 84 243 84 q 458 152 410 85 q 509 315 509 218 l 509 677 q 520 703 509 692 q 547 714 531 714 l 572 714 q 598 703 587 714 q 609 677 609 692 l 609 37 m 177 895 q 165 921 165 907 q 176 946 165 935 q 203 957 186 957 l 240 957 q 255 952 245 957 q 268 945 264 947 l 268 945 q 346 855 307 900 q 424 765 385 810 q 433 739 433 752 q 423 715 433 726 q 395 704 413 704 l 376 704 q 363 707 372 704 q 351 714 354 711 l 177 895 z "},"":{"ha":694,"x_min":50,"x_max":609,"o":"m 609 37 q 598 11 609 22 q 572 0 587 0 l 547 0 q 520 11 531 0 q 509 37 509 22 l 509 58 q 501 51 506 54 q 492 43 496 47 q 412 1 457 16 q 314 -16 367 -15 q 211 4 259 -15 q 126 56 163 22 q 69 140 89 91 q 50 252 50 189 l 50 677 q 60 703 50 692 q 86 714 71 714 l 112 714 q 138 703 127 714 q 149 677 149 692 l 149 256 q 195 125 149 165 q 314 84 243 84 q 458 152 410 85 q 509 315 509 218 l 509 677 q 520 703 509 692 q 547 714 531 714 l 572 714 q 598 703 587 714 q 609 677 609 692 l 609 37 m 467 957 q 495 946 485 957 q 505 921 505 935 q 493 894 505 906 l 311 714 q 299 707 308 711 q 286 704 290 704 l 267 704 q 239 715 249 704 q 229 740 229 726 q 239 766 229 753 l 404 946 q 416 953 407 949 q 431 957 426 957 l 467 957 z "},"":{"ha":694,"x_min":50,"x_max":609,"o":"m 609 37 q 598 11 609 22 q 572 0 587 0 l 547 0 q 520 11 531 0 q 509 37 509 22 l 509 58 q 501 51 506 54 q 492 43 496 47 q 412 1 457 16 q 314 -16 367 -15 q 211 4 259 -15 q 126 56 163 22 q 69 140 89 91 q 50 252 50 189 l 50 677 q 60 703 50 692 q 86 714 71 714 l 112 714 q 138 703 127 714 q 149 677 149 692 l 149 256 q 195 125 149 165 q 314 84 243 84 q 458 152 410 85 q 509 315 509 218 l 509 677 q 520 703 509 692 q 547 714 531 714 l 572 714 q 598 703 587 714 q 609 677 609 692 l 609 37 m 458 710 q 443 714 453 710 q 431 724 433 719 q 381 783 405 755 q 331 841 357 810 q 325 834 328 838 q 319 827 323 831 q 277 775 298 801 q 236 724 256 749 q 223 715 233 720 q 207 710 213 710 l 182 710 q 155 721 165 710 q 144 746 144 732 q 153 770 144 758 l 294 943 q 308 952 297 947 q 323 957 318 957 l 341 957 q 357 952 347 957 q 370 944 367 948 l 512 770 q 522 746 522 759 q 511 721 522 732 q 484 710 500 710 l 458 710 z "},"":{"ha":694,"x_min":50,"x_max":609,"o":"m 609 37 q 598 11 609 22 q 572 0 587 0 l 547 0 q 520 11 531 0 q 509 37 509 22 l 509 58 q 501 51 506 54 q 492 43 496 47 q 412 1 457 16 q 314 -16 367 -15 q 211 4 259 -15 q 126 56 163 22 q 69 140 89 91 q 50 252 50 189 l 50 677 q 60 703 50 692 q 86 714 71 714 l 112 714 q 138 703 127 714 q 149 677 149 692 l 149 256 q 195 125 149 165 q 314 84 243 84 q 458 152 410 85 q 509 315 509 218 l 509 677 q 520 703 509 692 q 547 714 531 714 l 572 714 q 598 703 587 714 q 609 677 609 692 l 609 37 m 223 707 q 197 718 208 707 q 186 745 186 729 l 186 845 q 197 872 186 861 q 223 882 208 882 l 248 882 q 275 872 264 882 q 286 845 286 861 l 286 745 q 275 718 286 729 q 248 707 264 707 l 223 707 m 417 707 q 391 718 401 707 q 380 745 380 729 l 380 845 q 391 872 380 861 q 417 882 401 882 l 442 882 q 468 872 458 882 q 479 845 479 861 l 479 745 q 468 718 479 729 q 442 707 458 707 l 417 707 z "},"":{"ha":566,"x_min":-38,"x_max":574,"o":"m 475 691 q 489 707 478 700 q 510 714 500 714 l 536 714 q 554 710 547 714 q 567 699 562 706 q 573 683 572 692 q 571 663 574 673 l 276 -107 q 186 -207 245 -185 q 71 -220 136 -221 q 45 -209 55 -220 q 35 -183 35 -199 l 35 -158 q 45 -132 35 -142 q 72 -121 56 -121 q 77 -122 75 -121 q 82 -122 79 -122 l 92 -122 q 152 -113 132 -122 q 170 -94 161 -107 q 187 -62 179 -81 q 198 -32 193 -47 q 210 -3 204 -18 q 219 19 215 9 q 227 43 222 30 q 162 196 195 120 q 97 351 130 273 q 31 506 64 429 q -35 662 -1 584 q -37 681 -38 671 q -31 697 -35 690 q -18 709 -26 705 q -1 714 -10 714 l 26 714 q 46 707 36 714 q 60 692 56 700 l 279 171 l 475 691 m 408 983 q 435 972 425 983 q 446 947 446 962 q 434 920 446 933 l 252 741 q 239 734 248 738 q 226 731 230 731 l 208 731 q 180 742 190 731 q 170 767 170 753 q 180 793 170 780 l 345 972 q 357 980 348 976 q 372 983 367 983 l 408 983 z "},"":{"ha":746,"x_min":52,"x_max":682,"o":"m 583 358 q 569 465 583 414 q 531 555 555 515 l 532 554 q 468 609 508 589 q 372 629 428 628 q 276 608 318 628 q 208 554 234 589 q 166 464 182 515 q 151 358 151 413 q 166 240 151 291 q 214 154 181 189 q 372 84 273 84 q 428 90 403 84 q 473 107 453 96 l 473 106 q 508 134 492 119 q 535 167 524 149 q 558 211 549 189 q 574 256 568 233 q 583 358 583 306 m 372 -16 q 244 8 298 -13 q 151 74 190 28 l 151 -183 q 140 -210 151 -199 q 113 -220 129 -220 l 89 -220 q 62 -210 73 -220 q 52 -183 52 -199 l 52 926 q 62 952 52 941 q 89 963 73 963 l 113 963 q 140 952 129 963 q 151 926 151 941 l 151 637 q 165 652 157 644 q 180 665 172 659 q 265 712 217 696 q 372 729 313 728 q 606 621 524 728 q 682 358 682 519 q 612 103 682 209 q 513 15 573 44 q 372 -16 454 -14 z "},"":{"ha":566,"x_min":-38,"x_max":574,"o":"m 475 691 q 489 707 478 700 q 510 714 500 714 l 536 714 q 554 710 547 714 q 567 699 562 706 q 573 683 572 692 q 571 663 574 673 l 276 -107 q 186 -207 245 -185 q 71 -220 136 -221 q 45 -209 55 -220 q 35 -183 35 -199 l 35 -158 q 45 -132 35 -142 q 72 -121 56 -121 q 77 -122 75 -121 q 82 -122 79 -122 l 92 -122 q 152 -113 132 -122 q 170 -94 161 -107 q 187 -62 179 -81 q 198 -32 193 -47 q 210 -3 204 -18 q 219 19 215 9 q 227 43 222 30 q 162 196 195 120 q 97 351 130 273 q 31 506 64 429 q -35 662 -1 584 q -37 681 -38 671 q -31 697 -35 690 q -18 709 -26 705 q -1 714 -10 714 l 26 714 q 46 707 36 714 q 60 692 56 700 l 279 171 l 475 691 m 164 734 q 138 745 149 734 q 127 771 127 755 l 127 872 q 138 899 127 888 q 164 909 149 909 l 189 909 q 215 899 205 909 q 226 872 226 888 l 226 771 q 215 745 226 755 q 189 734 205 734 l 164 734 m 358 734 q 331 745 342 734 q 321 771 321 755 l 321 872 q 331 899 321 888 q 358 909 342 909 l 382 909 q 409 899 398 909 q 420 872 420 888 l 420 771 q 409 745 420 755 q 382 734 398 734 l 358 734 z "},"":{"ha":386,"x_min":0,"x_max":0,"o":""},"":{"ha":232,"x_min":-237,"x_max":458,"o":"m 361 946 l 360 946 q 374 957 364 951 q 392 963 385 963 l 420 963 q 441 958 432 963 q 454 945 450 953 q 458 926 458 937 q 452 906 458 916 l -141 -25 l -140 -25 q -155 -37 -144 -31 q -172 -43 -165 -43 l -201 -43 q -220 -37 -212 -43 q -233 -24 -229 -32 q -237 -5 -237 -16 q -231 14 -237 5 l 361 946 z "},"":{"ha":463,"x_min":0,"x_max":0,"o":""},"":{"ha":668,"x_min":-45,"x_max":665,"o":"m 84 0 q 58 11 68 0 q 47 37 47 22 l 47 301 q 42 297 45 299 q 37 293 40 294 l 14 277 q 2 271 8 273 q -9 269 -5 269 q -34 279 -24 269 q -45 307 -45 290 l -45 338 q -40 354 -45 345 q -30 368 -35 364 q 9 394 -10 381 q 47 420 28 407 l 47 926 q 58 952 47 941 q 84 963 68 963 l 109 963 q 135 952 125 963 q 146 926 146 941 l 146 490 q 271 578 210 535 q 395 666 333 621 q 407 672 401 669 q 419 674 414 674 q 444 664 433 674 q 454 635 454 653 l 454 606 q 449 590 454 600 q 439 576 444 580 q 293 473 367 525 q 146 370 218 421 l 146 99 l 628 99 q 654 89 644 99 q 665 62 665 78 l 665 37 q 654 11 665 22 q 628 0 644 0 l 84 0 z "},"":{"ha":180,"x_min":-55,"x_max":226,"o":"m 98 963 q 124 952 114 963 q 135 926 135 941 l 135 636 q 146 647 140 641 q 158 657 153 652 q 164 662 160 659 q 190 673 176 673 q 215 662 203 673 q 226 634 226 652 l 226 604 q 221 589 226 598 q 213 575 217 579 l 135 508 l 135 37 q 124 11 135 22 q 98 0 114 0 l 73 0 q 47 11 58 0 q 36 37 36 22 l 36 422 q 25 413 31 418 q 15 404 20 408 l 15 405 q 10 400 12 402 q 6 397 8 399 q -19 387 -7 387 q -44 397 -33 387 q -55 425 -55 408 l -55 456 q -51 472 -55 463 q -43 485 -46 481 l 36 553 l 36 926 q 47 952 36 941 q 73 963 58 963 l 98 963 z "},"":{"ha":833,"x_min":43,"x_max":745,"o":"m 81 303 q 55 313 66 303 q 43 339 43 323 l 43 365 q 55 391 43 380 q 81 402 66 402 l 709 402 q 735 391 724 402 q 745 365 745 380 l 745 339 q 735 313 745 323 q 709 303 724 303 l 81 303 z "},"":{"ha":0,"x_min":0,"x_max":0,"o":""},"":{"ha":694,"x_min":-50,"x_max":702,"o":"m 664 102 q 691 91 680 102 q 702 64 702 79 l 702 38 q 691 11 702 22 q 664 0 680 0 l -11 0 q -39 11 -28 0 q -50 38 -50 22 l -50 85 l 552 890 l 24 890 q -3 901 8 890 q -14 928 -14 912 l -14 954 q -3 980 -14 969 q 24 991 8 991 l 654 991 q 681 980 671 991 q 692 954 692 969 l 692 907 l 90 102 l 664 102 m 203 1270 q 220 1265 210 1270 q 233 1256 230 1261 l 336 1133 q 385 1194 359 1162 q 433 1255 410 1225 q 438 1260 435 1257 q 447 1265 442 1263 q 456 1268 452 1267 q 463 1270 460 1270 l 488 1270 q 517 1259 506 1270 q 528 1233 528 1248 q 519 1208 528 1219 l 374 1029 q 360 1020 370 1025 q 343 1015 349 1015 l 325 1015 q 310 1020 319 1015 q 295 1029 300 1025 q 222 1118 258 1074 q 149 1208 185 1163 q 139 1233 139 1219 q 150 1259 139 1248 q 178 1270 161 1270 l 203 1270 z "},"":{"ha":464,"x_min":84,"x_max":398,"o":"m 84 819 q 101 901 85 869 q 151 945 118 932 q 245 963 197 963 l 245 963 q 398 728 398 972 q 398 722 398 725 q 397 715 397 718 l 397 703 q 387 676 397 687 q 361 665 376 665 l 336 665 q 309 676 320 665 q 299 704 298 688 q 299 714 299 709 q 300 725 300 720 l 300 742 q 243 864 300 867 q 191 853 202 864 q 183 810 182 844 l 183 665 l 284 665 q 310 655 300 665 q 321 628 321 644 l 321 604 q 310 577 321 588 q 284 566 300 566 l 183 566 l 183 37 q 173 11 183 22 q 146 0 162 0 l 121 0 q 95 11 106 0 q 84 37 84 22 l 84 819 m 397 37 q 387 11 397 22 q 361 0 376 0 l 336 0 q 310 11 320 0 q 299 37 299 22 l 299 677 q 310 703 299 692 q 336 714 320 714 l 361 714 q 387 703 376 714 q 397 677 397 692 l 397 37 z "},"":{"ha":464,"x_min":84,"x_max":397,"o":"m 84 819 q 101 901 85 869 q 151 945 118 932 q 248 963 197 963 q 293 960 267 962 q 349 954 318 958 q 373 939 363 951 q 382 912 383 927 l 376 880 q 361 854 374 863 q 332 848 348 844 q 243 864 262 864 q 191 853 202 864 q 183 810 182 844 l 183 665 l 284 665 q 310 655 300 665 q 321 628 321 644 l 321 604 q 310 577 321 588 q 284 566 300 566 l 183 566 l 183 37 q 173 11 183 22 q 146 0 162 0 l 121 0 q 95 11 106 0 q 84 37 84 22 l 84 819 m 299 926 q 310 952 299 941 q 336 963 320 963 l 361 963 q 387 952 376 963 q 397 926 397 941 l 397 37 q 387 11 397 22 q 361 0 376 0 l 336 0 q 310 11 320 0 q 299 37 299 22 l 299 926 z "},"":{"ha":978,"x_min":26,"x_max":920,"o":"m 637 656 q 625 628 636 640 q 598 615 614 616 q 451 622 526 618 q 303 629 375 626 q 253 626 277 629 q 215 617 229 623 q 172 586 184 603 q 160 569 164 576 q 155 555 156 562 q 149 531 149 534 q 162 481 149 496 q 196 454 175 461 q 264 433 224 444 q 355 409 304 421 q 394 399 374 404 q 433 388 414 394 q 471 374 451 382 q 507 355 492 366 l 507 355 q 542 328 527 344 q 568 294 557 313 q 590 199 590 255 q 566 100 589 142 q 498 31 543 58 q 322 -16 419 -16 q 26 256 27 -16 q 37 282 26 271 q 63 293 47 293 l 87 293 q 114 282 103 293 q 125 256 125 272 q 322 84 127 83 q 384 92 353 84 q 442 115 414 99 q 492 199 488 139 q 489 226 492 214 q 481 245 486 237 q 443 276 468 264 q 414 290 430 283 q 379 302 397 296 q 361 307 370 304 q 342 312 352 309 q 332 313 336 313 q 322 315 328 314 q 311 317 317 317 q 300 319 306 317 q 219 341 260 329 q 151 366 179 353 q 77 428 104 387 q 50 530 50 469 q 65 601 50 568 q 112 665 81 633 q 193 713 144 694 q 244 725 215 721 q 305 729 273 729 l 599 714 q 623 703 612 713 q 635 680 633 693 l 637 656 m 776 615 l 776 162 q 787 109 777 115 q 806 101 795 103 q 825 99 814 99 q 870 101 862 99 l 869 101 q 903 96 889 106 q 917 66 917 85 l 917 41 q 906 14 917 25 q 880 3 895 3 q 872 3 876 3 q 863 3 869 3 l 864 3 q 846 1 857 1 q 819 0 834 0 q 722 34 761 0 q 688 89 697 62 q 677 157 677 119 l 677 615 l 596 615 q 570 626 581 615 q 559 652 559 636 l 559 677 q 570 703 559 692 q 596 714 581 714 l 677 714 l 677 865 q 683 884 677 873 q 696 899 688 894 l 721 911 q 741 916 731 916 q 759 911 751 916 q 771 898 766 907 q 776 878 776 890 l 776 714 l 884 714 q 910 703 899 714 q 920 677 920 692 l 920 652 q 910 626 920 636 q 884 615 899 615 l 776 615 z "},"a":{"ha":668,"x_min":7,"x_max":642,"o":"m 491 352 q 485 350 488 350 q 478 357 478 350 l 478 412 q 482 419 478 418 q 490 417 486 420 l 515 391 q 525 396 520 394 q 534 401 530 399 q 542 400 538 404 q 543 391 546 396 q 491 352 526 367 m 478 347 q 450 340 465 342 q 419 336 435 338 q 346 330 385 333 q 267 325 307 327 q 235 322 251 324 q 203 317 218 321 q 174 308 187 313 q 149 294 161 302 q 119 260 131 284 q 110 232 113 248 q 107 195 107 216 q 113 157 107 172 q 139 121 119 137 q 256 84 169 85 q 352 101 309 85 q 422 149 394 117 l 422 149 q 478 295 478 213 l 478 347 m 85 442 q 58 453 69 442 q 47 480 47 464 q 70 579 50 535 q 125 659 89 624 q 328 729 195 728 q 419 718 378 730 q 498 684 461 707 q 577 509 571 632 l 577 103 q 579 104 578 104 q 591 106 585 105 q 604 105 597 106 q 633 86 624 102 q 633 53 642 71 q 599 15 621 30 q 553 1 576 1 q 508 16 528 1 q 481 68 488 31 q 466 55 473 60 q 449 41 458 49 q 258 -16 370 -15 q 160 -2 204 -16 q 82 37 116 12 q 28 105 47 65 q 7 195 8 144 q 14 258 7 229 q 33 310 20 288 q 60 349 44 332 q 96 379 76 366 q 137 400 115 391 q 180 413 158 409 q 220 420 198 417 q 262 423 243 422 q 279 425 270 425 q 296 425 289 425 q 300 426 298 425 q 304 426 302 426 l 303 426 l 329 428 q 353 430 342 429 q 376 431 365 431 q 416 436 398 433 q 446 443 433 439 q 471 456 465 448 q 478 490 478 466 q 477 515 478 502 q 475 542 477 528 q 475 544 475 543 q 456 588 471 567 q 440 603 450 595 q 418 616 430 611 q 329 629 383 629 q 146 476 162 626 q 134 452 145 463 q 110 442 123 442 l 85 442 z "}}}
